<svg width="44" height="43" viewBox="0 0 44 43" fill="none" xmlns="http://www.w3.org/2000/svg">
<g clip-path="url(#clip0_43_4026)">
<path d="M9.90585 0C4.43062 0 0 4.46329 0 9.96983C0 15.4764 4.43062 19.9397 9.89685 19.9487C15.3631 19.9487 19.7937 15.4854 19.8027 9.9789C19.7937 4.47236 15.3631 0.00907173 9.90585 0ZM9.90585 18.4882C5.23209 18.4882 1.44986 14.6781 1.44986 9.96983C1.44986 5.2616 5.23209 1.45148 9.90585 1.45148C14.5796 1.45148 18.3619 5.2616 18.3619 9.96983C18.3528 14.6781 14.5706 18.4882 9.90585 18.4882Z" fill="#A46CFF"/>
<path d="M14.787 5.38871L7.3576 12.9636L5.07025 10.0697C4.82711 9.75222 4.37684 9.67964 4.06166 9.92458C3.74647 10.1695 3.67443 10.6231 3.91757 10.9406C3.92658 10.9497 3.93558 10.9588 3.94459 10.9769L6.73624 14.5149C6.86231 14.6782 7.05142 14.778 7.25855 14.787H7.29457C7.48368 14.787 7.67279 14.7054 7.80787 14.5693L15.8136 6.41382C16.0838 6.12352 16.0658 5.66087 15.7776 5.38871C15.4984 5.11656 15.0572 5.12563 14.787 5.38871Z" fill="#A46CFF"/>
<path d="M34.0941 19.9397C39.5603 19.9397 43.991 15.4764 44 9.96983C44.009 4.46329 39.5693 0 34.1031 0C28.6369 0 24.2063 4.46329 24.1973 9.96983C24.2063 15.4764 28.6279 19.9397 34.0941 19.9397ZM34.0941 1.45148C38.7679 1.45148 42.5501 5.2616 42.5501 9.96983C42.5501 14.6781 38.7679 18.4882 34.0941 18.4882C29.4204 18.4882 25.6381 14.6781 25.6381 9.96983C25.6471 5.27067 29.4294 1.46055 34.0941 1.45148Z" fill="#A46CFF"/>
<path d="M30.9247 14.5056C31.0508 14.6689 31.2399 14.7687 31.447 14.7778H31.483C31.6722 14.7778 31.8613 14.6961 31.9963 14.5601L40.0021 6.40458C40.2812 6.12336 40.2812 5.6607 39.9931 5.37947C39.7139 5.09825 39.2546 5.09825 38.9755 5.38855L31.5371 12.9634L29.2587 10.0696C29.0156 9.75205 28.5653 9.67948 28.2501 9.92441C27.9349 10.1693 27.8629 10.6229 28.106 10.9404C28.1151 10.9495 28.1241 10.9586 28.1331 10.9767L30.9247 14.5056Z" fill="#A46CFF"/>
<path d="M9.90585 23.0603C4.43962 23.0603 0 27.5236 0 33.0301C0 38.5367 4.43062 43 9.89685 43C15.3631 43 19.7937 38.5367 19.7937 33.0301C19.7937 27.5236 15.3631 23.0694 9.90585 23.0603ZM9.90585 41.5485C5.23209 41.5485 1.44986 37.7384 1.44986 33.0301C1.44986 28.3219 5.23209 24.5118 9.90585 24.5118C14.5796 24.5118 18.3619 28.3219 18.3619 33.0301C18.3528 37.7293 14.5706 41.5394 9.90585 41.5485Z" fill="#A46CFF"/>
<path d="M34.0941 23.0603C28.6279 23.0603 24.1973 27.5236 24.1973 33.0301C24.1973 38.5367 28.6279 43 34.0941 43C39.5603 43 43.991 38.5367 43.991 33.0301C43.982 27.5236 39.5603 23.0694 34.0941 23.0603ZM34.0941 41.5485C29.4204 41.5485 25.6381 37.7384 25.6381 33.0301C25.6381 28.3219 29.4204 24.5118 34.0941 24.5118C38.7679 24.5118 42.5501 28.3219 42.5501 33.0301C42.5411 37.7293 38.7589 41.5394 34.0941 41.5485Z" fill="#A46CFF"/>
<path d="M38.9753 28.449L31.5369 36.0239L29.2495 33.121C28.9884 32.8125 28.5381 32.7762 28.2319 33.0302C27.9438 33.2752 27.8897 33.7106 28.1149 34.0191L30.9065 37.557C31.0326 37.7203 31.2217 37.8201 31.4288 37.8292H31.4648C31.654 37.8292 31.8431 37.7475 31.9781 37.6115L39.9839 29.456C40.263 29.1748 40.263 28.7121 39.9749 28.4309C39.7137 28.1496 39.2544 28.1496 38.9753 28.449Z" fill="#A46CFF"/>
</g>
<defs>
<clipPath id="clip0_43_4026">
<rect width="44" height="43" fill="white"/>
</clipPath>
</defs>
</svg>
