<svg width="21" height="21" viewBox="0 0 21 21" fill="none" xmlns="http://www.w3.org/2000/svg">
<path d="M19.95 10.5002C19.3701 10.5002 18.9068 10.9722 18.8345 11.5475C18.6031 13.3892 17.7661 15.1135 16.4397 16.4399C14.8644 18.0152 12.7278 18.9002 10.5 18.9002C8.27218 18.9002 6.13561 18.0152 4.5603 16.4399C2.985 14.8646 2.1 12.7281 2.1 10.5002C2.1 8.27243 2.985 6.13585 4.5603 4.56055C6.13561 2.98524 8.27218 2.10024 10.5 2.10024C11.0704 2.10024 11.63 2.15925 12.1712 2.26959C12.569 2.35068 12.988 2.24771 13.2751 1.96066C13.8385 1.39721 13.6427 0.447357 12.8664 0.267691C12.1078 0.0921266 11.3163 0.000244141 10.5 0.000244141C9.12112 0.000244141 7.75574 0.271835 6.48182 0.799509C5.2079 1.32718 4.05039 2.10061 3.07538 3.07562C1.10625 5.04475 0 7.71547 0 10.5002C0 13.285 1.10625 15.9557 3.07538 17.9249C4.05039 18.8999 5.2079 19.6733 6.48182 20.201C7.75574 20.7287 9.12112 21.0002 10.5 21.0002C13.2848 21.0002 15.9555 19.894 17.9246 17.9249C19.6451 16.2044 20.7069 13.9483 20.9476 11.5485C21.0054 10.9715 20.5299 10.5002 19.95 10.5002ZM6.951 9.22975C6.5397 8.81845 5.87248 8.81962 5.46263 9.23238C5.05483 9.64308 5.056 10.3062 5.46525 10.7155L9.45 14.7002L19.2097 4.9405C19.619 4.53125 19.6202 3.86808 19.2124 3.45738C18.8025 3.04462 18.1353 3.04344 17.724 3.45475L9.45 11.7287L6.951 9.22975Z" fill="#A46CFF"/>
</svg>
