<svg width="33" height="31" viewBox="0 0 33 31" fill="none" xmlns="http://www.w3.org/2000/svg">
<path d="M16.4994 30.3326L22.5788 11.6705H10.4287L16.4994 30.3326Z" fill="#E24329"/>
<path d="M1.91301 11.6705L0.0616787 17.3403C-0.105851 17.8551 0.0750689 18.4234 0.517253 18.7443L16.4989 30.3325L1.91301 11.6705Z" fill="#FCA326"/>
<path d="M1.91309 11.6705H10.4284L6.76362 0.431261C6.57605 -0.143754 5.75864 -0.143754 5.56433 0.431261L1.91309 11.6705Z" fill="#E24329"/>
<path d="M31.0937 11.6705L32.9384 17.3403C33.1059 17.8551 32.925 18.4234 32.4828 18.7443L16.499 30.3326L31.0937 11.6705Z" fill="#FCA326"/>
<path d="M31.0934 11.6705H22.5781L26.2361 0.431261C26.4237 -0.143754 27.2411 -0.143754 27.4354 0.431261L31.0934 11.6705Z" fill="#E24329"/>
<path d="M16.499 30.3326L22.5785 11.6705H31.0937L16.499 30.3326Z" fill="#FC6D26"/>
<path d="M16.499 30.3326L1.91309 11.6705H10.4284L16.499 30.3326Z" fill="#FC6D26"/>
</svg>
