<svg width="24" height="18" viewBox="0 0 24 18" fill="none" xmlns="http://www.w3.org/2000/svg">
<path d="M20.4687 1.49433C18.9766 0.796233 17.3813 0.288887 15.7133 0C15.5085 0.370343 15.2692 0.868462 15.1042 1.26471C13.3312 0.998071 11.5744 0.998071 9.83399 1.26471C9.66903 0.868462 9.42428 0.370343 9.21761 0C7.54789 0.288887 5.95068 0.798097 4.45863 1.49802C1.44915 6.04574 0.63333 10.4805 1.04124 14.8523C3.03729 16.3429 4.9717 17.2484 6.87346 17.8409C7.34302 17.1947 7.7618 16.5077 8.12257 15.7837C7.43547 15.5226 6.77738 15.2004 6.15556 14.8264C6.32052 14.7042 6.48188 14.5764 6.63778 14.4449C10.4304 16.2188 14.5513 16.2188 18.2986 14.4449C18.4563 14.5764 18.6177 14.7042 18.7808 14.8264C18.1572 15.2023 17.4973 15.5245 16.8102 15.7856C17.171 16.5077 17.5879 17.1965 18.0593 17.8428C19.9629 17.2502 21.8991 16.3448 23.8951 14.8523C24.3738 9.78428 23.0775 5.39024 20.4687 1.49433ZM8.63926 12.1637C7.50075 12.1637 6.56707 11.1008 6.56707 9.80649C6.56707 8.51217 7.48081 7.44746 8.63926 7.44746C9.79775 7.44746 10.7314 8.51031 10.7115 9.80649C10.7133 11.1008 9.79775 12.1637 8.63926 12.1637ZM16.2971 12.1637C15.1586 12.1637 14.2249 11.1008 14.2249 9.80649C14.2249 8.51217 15.1386 7.44746 16.2971 7.44746C17.4556 7.44746 18.3893 8.51031 18.3693 9.80649C18.3693 11.1008 17.4556 12.1637 16.2971 12.1637Z" fill="white"/>
</svg>
