<svg width="93" height="93" viewBox="0 0 93 93" fill="none" xmlns="http://www.w3.org/2000/svg">
<path d="M46.0063 23.0008C48.2808 23.0008 50.5043 22.3264 52.3956 21.0627C54.2868 19.799 55.7608 18.0029 56.6313 15.9014C57.5017 13.8 57.7295 11.4877 57.2857 9.2568C56.842 7.02594 55.7467 4.97676 54.1383 3.3684C52.5299 1.76004 50.4808 0.664729 48.2499 0.220982C46.019 -0.222764 43.7067 0.00498291 41.6053 0.875422C39.5038 1.74586 37.7077 3.2199 36.444 5.11113C35.1803 7.00237 34.5059 9.22586 34.5059 11.5004C34.5093 14.5495 35.7221 17.4726 37.8781 19.6286C40.0341 21.7846 42.9572 22.9974 46.0063 23.0008ZM46.0063 2.87511C47.7122 2.87511 49.3798 3.38098 50.7982 4.32874C52.2167 5.2765 53.3222 6.62359 53.975 8.19966C54.6279 9.77573 54.7987 11.51 54.4659 13.1831C54.1331 14.8563 53.3116 16.3932 52.1053 17.5994C50.899 18.8057 49.3621 19.6272 47.689 19.96C46.0158 20.2928 44.2816 20.122 42.7055 19.4692C41.1294 18.8163 39.7824 17.7108 38.8346 16.2924C37.8868 14.874 37.381 13.2064 37.381 11.5004C37.3836 9.21365 38.2932 7.02129 39.9101 5.4043C41.5271 3.7873 43.7195 2.87773 46.0063 2.87511Z" fill="#A46CFF"/>
<path d="M51.5714 76.1903H40.4402C39.2757 76.1469 38.1147 76.3436 37.0293 76.7679C35.944 77.1923 34.9576 77.8354 34.1313 78.6571C33.3051 79.4789 32.6567 80.4618 32.2264 81.5448C31.7962 82.6278 31.5932 83.7877 31.6303 84.9525V90.5658C31.6303 90.9471 31.7817 91.3127 32.0513 91.5823C32.3209 91.8519 32.6866 92.0034 33.0678 92.0034C33.4491 92.0034 33.8147 91.8519 34.0843 91.5823C34.3539 91.3127 34.5054 90.9471 34.5054 90.5658V84.9525C34.4722 84.1665 34.6034 83.3821 34.8905 82.6497C35.1777 81.9172 35.6145 81.2527 36.173 80.6986C36.7316 80.1446 37.3996 79.7132 38.1343 79.4319C38.8691 79.1507 39.6544 79.0259 40.4402 79.0654H51.5714C52.3571 79.0259 53.1425 79.1507 53.8773 79.4319C54.612 79.7132 55.28 80.1446 55.8386 80.6986C56.3971 81.2527 56.8339 81.9172 57.1211 82.6497C57.4082 83.3821 57.5394 84.1665 57.5062 84.9525V90.5658C57.5062 90.9471 57.6577 91.3127 57.9273 91.5823C58.1969 91.8519 58.5625 92.0034 58.9438 92.0034C59.325 92.0034 59.6907 91.8519 59.9603 91.5823C60.2299 91.3127 60.3813 90.9471 60.3813 90.5658V84.9525C60.4183 83.7877 60.2154 82.6278 59.7852 81.5448C59.3549 80.4618 58.7065 79.4789 57.8802 78.6571C57.054 77.8354 56.0676 77.1923 54.9822 76.7679C53.8969 76.3436 52.7359 76.1469 51.5714 76.1903Z" fill="#A46CFF"/>
<path d="M17.2549 23.1475V52.4405C17.2531 53.1427 17.4479 53.8315 17.8173 54.4288C18.1866 55.0261 18.7158 55.5081 19.3449 55.8203C19.3688 55.8315 19.3926 55.8424 19.4168 55.8526L35.6035 62.6185C35.8528 61.6886 36.2264 60.7966 36.7143 59.9666L20.5719 53.2193C20.435 53.1412 20.3217 53.0277 20.2439 52.8906C20.1661 52.7535 20.1268 52.598 20.13 52.4405V23.1471C20.121 23.0138 20.1458 22.8804 20.2022 22.7592C20.2585 22.6381 20.3446 22.5332 20.4524 22.4542C20.5602 22.3752 20.6862 22.3248 20.8187 22.3076C20.9512 22.2904 21.0859 22.3069 21.2103 22.3557C21.2355 22.368 21.2615 22.3796 21.2878 22.3905L44.5684 32.0034V54.7343C45.5214 54.5912 46.4905 54.5912 47.4435 54.7343V32.0034L70.7241 22.3905C70.7504 22.3796 70.7763 22.3681 70.8024 22.3554C70.9268 22.3067 71.0615 22.2902 71.194 22.3075C71.3265 22.3247 71.4525 22.3753 71.5602 22.4543C71.6679 22.5334 71.7539 22.6384 71.8102 22.7596C71.8664 22.8808 71.8911 23.0142 71.8819 23.1475V52.4405C71.8851 52.598 71.8458 52.7535 71.768 52.8906C71.6902 53.0277 71.5769 53.1412 71.44 53.2193L55.2976 59.9666C55.7855 60.7966 56.1591 61.6886 56.4084 62.6186L72.595 55.8526C72.6193 55.8424 72.6431 55.8315 72.667 55.8203C73.2961 55.5081 73.8253 55.0261 74.1946 54.4288C74.564 53.8315 74.7588 53.1427 74.757 52.4405V23.1476C74.7586 22.534 74.6075 21.9296 74.3171 21.3891C74.0267 20.8486 73.6063 20.3889 73.0939 20.0515C72.5814 19.7141 71.9929 19.5096 71.3817 19.4565C70.7704 19.4034 70.1555 19.5034 69.5925 19.7474L46.0059 29.4865L22.4194 19.7474C21.856 19.5105 21.243 19.416 20.6344 19.4722C20.0259 19.5284 19.4405 19.7336 18.93 20.0697C18.4196 20.4057 17.9997 20.8623 17.7076 21.3991C17.4154 21.9359 17.26 22.5364 17.2549 23.1475Z" fill="#A46CFF"/>
<path d="M38.0996 65.4086C38.0996 66.9724 38.5633 68.5011 39.4321 69.8013C40.3009 71.1015 41.5357 72.1149 42.9804 72.7133C44.4252 73.3118 46.0149 73.4683 47.5486 73.1633C49.0824 72.8582 50.4912 72.1052 51.5969 70.9994C52.7027 69.8937 53.4557 68.4849 53.7608 66.9511C54.0658 65.4174 53.9093 63.8277 53.3108 62.3829C52.7124 60.9382 51.699 59.7034 50.3988 58.8346C49.0986 57.9658 47.5699 57.5021 46.0061 57.5021C44.9678 57.502 43.9396 57.7064 42.9803 58.1037C42.021 58.501 41.1493 59.0834 40.4151 59.8176C39.6809 60.5518 39.0985 61.4235 38.7012 62.3828C38.3039 63.3421 38.0995 64.3703 38.0996 65.4086ZM51.0376 65.4086C51.0376 66.4038 50.7425 67.3765 50.1896 68.204C49.6368 69.0314 48.851 69.6763 47.9316 70.0571C47.0122 70.4379 46.0006 70.5375 45.0246 70.3434C44.0486 70.1493 43.152 69.6701 42.4484 68.9664C41.7447 68.2627 41.2655 67.3662 41.0714 66.3902C40.8773 65.4142 40.9769 64.4026 41.3577 63.4832C41.7385 62.5638 42.3834 61.778 43.2108 61.2252C44.0382 60.6723 45.011 60.3772 46.0061 60.3772C47.3401 60.3787 48.619 60.9093 49.5622 61.8526C50.5055 62.7958 51.0361 64.0747 51.0376 65.4086Z" fill="#A46CFF"/>
<path d="M19.9454 76.1903H8.81422C7.64969 76.1469 6.48869 76.3436 5.40337 76.7679C4.31805 77.1923 3.33161 77.8354 2.50536 78.6571C1.67911 79.4789 1.0307 80.4618 0.600444 81.5448C0.170182 82.6278 -0.0327389 83.7877 0.00429192 84.9525V90.5658C0.00429192 90.9471 0.155748 91.3127 0.425341 91.5823C0.694935 91.8519 1.06058 92.0034 1.44184 92.0034C1.82311 92.0034 2.18875 91.8519 2.45835 91.5823C2.72794 91.3127 2.8794 90.9471 2.8794 90.5658V84.9525C2.84621 84.1665 2.97738 83.3821 3.26453 82.6497C3.55168 81.9172 3.98849 81.2527 4.54704 80.6986C5.10559 80.1446 5.7736 79.7132 6.50836 79.4319C7.24312 79.1507 8.02847 79.0259 8.81422 79.0654H19.9454C20.7312 79.0259 21.5165 79.1507 22.2513 79.4319C22.986 79.7132 23.654 80.1446 24.2126 80.6986C24.7711 81.2527 25.208 81.9172 25.4951 82.6497C25.7823 83.3821 25.9134 84.1665 25.8802 84.9525V90.5658C25.8802 90.9471 26.0317 91.3127 26.3013 91.5823C26.5709 91.8519 26.9365 92.0034 27.3178 92.0034C27.6991 92.0034 28.0647 91.8519 28.3343 91.5823C28.6039 91.3127 28.7553 90.9471 28.7553 90.5658V84.9525C28.7924 83.7877 28.5895 82.6278 28.1592 81.5448C27.7289 80.4618 27.0805 79.4789 26.2543 78.6571C25.428 77.8354 24.4416 77.1923 23.3563 76.7679C22.2709 76.3436 21.1099 76.1469 19.9454 76.1903Z" fill="#A46CFF"/>
<path d="M6.47266 65.4086C6.47266 66.9724 6.93637 68.5011 7.80515 69.8013C8.67393 71.1015 9.90876 72.1149 11.3535 72.7133C12.7982 73.3118 14.388 73.4683 15.9217 73.1633C17.4554 72.8582 18.8642 72.1052 19.97 70.9994C21.0757 69.8937 21.8287 68.4849 22.1338 66.9511C22.4389 65.4174 22.2823 63.8277 21.6839 62.3829C21.0855 60.9382 20.0721 59.7034 18.7718 58.8346C17.4716 57.9658 15.943 57.5021 14.3792 57.5021C13.3409 57.502 12.3127 57.7064 11.3533 58.1037C10.394 58.501 9.52233 59.0833 8.78811 59.8176C8.0539 60.5518 7.47151 61.4234 7.07422 62.3828C6.67693 63.3421 6.47252 64.3703 6.47266 65.4086ZM19.4106 65.4086C19.4106 66.4038 19.1155 67.3765 18.5627 68.204C18.0098 69.0314 17.224 69.6763 16.3046 70.0571C15.3853 70.4379 14.3736 70.5375 13.3976 70.3434C12.4216 70.1493 11.5251 69.6701 10.8214 68.9664C10.1178 68.2627 9.63858 67.3662 9.44444 66.3902C9.2503 65.4142 9.34994 64.4026 9.73076 63.4832C10.1116 62.5638 10.7565 61.778 11.5839 61.2252C12.4113 60.6723 13.3841 60.3772 14.3792 60.3772C15.7132 60.3787 16.992 60.9093 17.9353 61.8526C18.8785 62.7958 19.4091 64.0747 19.4106 65.4086Z" fill="#A46CFF"/>
<path d="M83.1983 76.1903H72.0671C70.9026 76.1469 69.7416 76.3436 68.6563 76.7679C67.571 77.1923 66.5845 77.8354 65.7583 78.6571C64.932 79.4789 64.2836 80.4618 63.8534 81.5448C63.4231 82.6278 63.2202 83.7877 63.2572 84.9525V90.5658C63.2572 90.9471 63.4087 91.3127 63.6783 91.5823C63.9479 91.8519 64.3135 92.0034 64.6948 92.0034C65.076 92.0034 65.4417 91.8519 65.7113 91.5823C65.9809 91.3127 66.1323 90.9471 66.1323 90.5658V84.9525C66.0991 84.1665 66.2303 83.3821 66.5175 82.6497C66.8046 81.9172 67.2414 81.2527 67.8 80.6986C68.3585 80.1446 69.0265 79.7132 69.7613 79.4319C70.496 79.1507 71.2814 79.0259 72.0671 79.0654H83.1984C83.9841 79.0259 84.7695 79.1507 85.5042 79.4319C86.239 79.7132 86.907 80.1446 87.4655 80.6986C88.0241 81.2527 88.4609 81.9172 88.748 82.6497C89.0352 83.3821 89.1664 84.1665 89.1332 84.9525V90.5658C89.1332 90.9471 89.2846 91.3127 89.5542 91.5823C89.8238 91.8519 90.1895 92.0034 90.5707 92.0034C90.952 92.0034 91.3176 91.8519 91.5872 91.5823C91.8568 91.3127 92.0083 90.9471 92.0083 90.5658V84.9525C92.0453 83.7877 91.8424 82.6278 91.4121 81.5448C90.9819 80.4618 90.3335 79.4789 89.5072 78.6571C88.681 77.8354 87.6945 77.1923 86.6092 76.7679C85.5239 76.3436 84.3629 76.1469 83.1983 76.1903Z" fill="#A46CFF"/>
<path d="M77.6321 57.5021C76.0684 57.5021 74.5397 57.9658 73.2395 58.8346C71.9393 59.7034 70.9259 60.9382 70.3274 62.3829C69.729 63.8277 69.5724 65.4174 69.8775 66.9511C70.1826 68.4849 70.9356 69.8937 72.0414 70.9994C73.1471 72.1052 74.5559 72.8582 76.0896 73.1633C77.6234 73.4683 79.2131 73.3118 80.6578 72.7133C82.1026 72.1149 83.3374 71.1015 84.2062 69.8013C85.075 68.5011 85.5387 66.9724 85.5387 65.4086C85.5388 64.3703 85.3344 63.3421 84.9371 62.3828C84.5399 61.4234 83.9575 60.5517 83.2233 59.8175C82.489 59.0833 81.6174 58.5009 80.658 58.1036C79.6987 57.7063 78.6705 57.5019 77.6321 57.5021ZM77.6321 70.4401C76.637 70.4401 75.6642 70.145 74.8368 69.5921C74.0094 69.0393 73.3645 68.2535 72.9837 67.3341C72.6029 66.4147 72.5032 65.4031 72.6974 64.4271C72.8915 63.4511 73.3707 62.5545 74.0744 61.8509C74.778 61.1472 75.6745 60.668 76.6505 60.4739C77.6265 60.2798 78.6382 60.3794 79.5576 60.7602C80.477 61.141 81.2628 61.7859 81.8156 62.6133C82.3685 63.4407 82.6636 64.4135 82.6636 65.4086C82.662 66.7426 82.1315 68.0215 81.1882 68.9647C80.245 69.908 78.9661 70.4386 77.6321 70.4401Z" fill="#A46CFF"/>
<path d="M6.00627 12.6151L5.37172 16.2869C5.32608 16.551 5.35516 16.8227 5.45569 17.0712C5.55621 17.3197 5.72417 17.5351 5.94063 17.6932C6.15825 17.8488 6.4144 17.9416 6.68114 17.9615C6.94788 17.9814 7.21498 17.9277 7.45329 17.8062L10.7878 16.0662L14.1223 17.8062C14.3599 17.9303 14.6274 17.9855 14.8947 17.9655C15.162 17.9456 15.4184 17.8513 15.6349 17.6933C15.8514 17.5353 16.0194 17.3199 16.12 17.0714C16.2205 16.823 16.2496 16.5514 16.2039 16.2873L15.5697 12.6151L18.2588 10.0134C18.452 9.82649 18.5889 9.58914 18.654 9.32832C18.7191 9.0675 18.7098 8.79365 18.6271 8.53787C18.5443 8.28209 18.3916 8.05462 18.1861 7.8813C17.9806 7.70798 17.7306 7.59575 17.4646 7.55735L13.7391 7.02003L12.0752 3.67288C11.9561 3.43328 11.7725 3.23167 11.5451 3.09073C11.3176 2.94979 11.0554 2.87512 10.7878 2.87512C10.5203 2.87512 10.258 2.94979 10.0306 3.09073C9.80316 3.23167 9.61958 3.43328 9.5005 3.67288L7.83655 7.02003L4.11106 7.55736C3.84501 7.59579 3.59506 7.70804 3.38959 7.88136C3.18413 8.05469 3.03137 8.28214 2.94866 8.53791C2.86594 8.79368 2.8566 9.06751 2.92167 9.32832C2.98675 9.58914 3.12364 9.82648 3.31681 10.0134L6.00627 12.6151ZM8.99333 9.75791C9.22357 9.72466 9.44231 9.63604 9.63077 9.49966C9.81923 9.36328 9.97179 9.18321 10.0754 8.9749L10.7878 7.54191L11.5003 8.9749C11.6038 9.18321 11.7564 9.36328 11.9449 9.49966C12.1333 9.63604 12.3521 9.72466 12.5823 9.75791L14.1539 9.98463L13.0242 11.0775C12.8558 11.2404 12.7298 11.442 12.6571 11.6647C12.5845 11.8874 12.5673 12.1245 12.6072 12.3554L12.876 13.913L11.4529 13.1703C11.2462 13.0678 11.0185 13.0144 10.7878 13.0144C10.557 13.0144 10.3294 13.0678 10.1227 13.1703L8.69952 13.913L8.96871 12.3558C9.00862 12.1249 8.99149 11.8877 8.91883 11.6649C8.84616 11.4421 8.72015 11.2405 8.55176 11.0775L7.42206 9.98463L8.99333 9.75791Z" fill="#A46CFF"/>
<path d="M76.4467 12.6151L75.8122 16.2869C75.7665 16.551 75.7956 16.8226 75.8961 17.0711C75.9966 17.3195 76.1645 17.535 76.3809 17.6931C76.6005 17.8442 76.8562 17.9344 77.122 17.9542C77.3878 17.9741 77.6541 17.923 77.8937 17.8062L81.2282 16.0661L84.5628 17.8062C84.8003 17.9303 85.0679 17.9855 85.3352 17.9655C85.6025 17.9456 85.8588 17.8513 86.0753 17.6933C86.2919 17.5353 86.4599 17.3199 86.5604 17.0714C86.661 16.823 86.69 16.5513 86.6443 16.2872L86.0101 12.6151L88.6992 10.0134C88.8924 9.82647 89.0294 9.58912 89.0945 9.3283C89.1596 9.06748 89.1502 8.79363 89.0675 8.53785C88.9848 8.28206 88.832 8.0546 88.6265 7.88128C88.421 7.70796 88.1711 7.59573 87.905 7.55733L84.1795 7.02L82.5156 3.67284C82.3965 3.43325 82.2129 3.23164 81.9855 3.0907C81.7581 2.94976 81.4958 2.87509 81.2282 2.87509C80.9607 2.87509 80.6984 2.94976 80.471 3.0907C80.2436 3.23164 80.06 3.43325 79.9409 3.67284L78.277 7.02001L74.5515 7.55733C74.2854 7.59577 74.0355 7.70801 73.83 7.88134C73.6246 8.05466 73.4718 8.28212 73.3891 8.53789C73.3064 8.79365 73.297 9.06749 73.3621 9.3283C73.4272 9.58911 73.5641 9.82646 73.7572 10.0134L76.4467 12.6151ZM79.4338 9.75788C79.664 9.72463 79.8827 9.63602 80.0712 9.49964C80.2597 9.36326 80.4122 9.18318 80.5158 8.97488L81.2282 7.54189L81.9407 8.97488C82.0443 9.18319 82.1968 9.36326 82.3853 9.49964C82.5737 9.63602 82.7925 9.72463 83.0227 9.75788L84.5944 9.98461L83.4646 11.0775C83.2962 11.2404 83.1702 11.442 83.0976 11.6647C83.0249 11.8874 83.0078 12.1245 83.0476 12.3554L83.3165 13.913L81.8933 13.1703C81.6877 13.064 81.4596 13.0085 81.2282 13.0085C80.9968 13.0085 80.7687 13.064 80.5631 13.1703L79.14 13.913L79.4091 12.3557C79.4491 12.1248 79.4319 11.8877 79.3593 11.6649C79.2866 11.4421 79.1606 11.2405 78.9922 11.0775L77.8624 9.98461L79.4338 9.75788Z" fill="#A46CFF"/>
</svg>
