<svg width="28" height="28" viewBox="0 0 28 28" fill="none" xmlns="http://www.w3.org/2000/svg">
<path fill-rule="evenodd" clip-rule="evenodd" d="M13.9084 19.3052C14.8786 19.3072 15.6655 20.0669 15.6655 21.0041C15.6655 21.9429 14.8786 22.7027 13.9084 22.7027C12.9381 22.7027 12.1492 21.9429 12.1492 21.0041C12.1492 20.0669 12.9381 19.3052 13.9084 19.3052ZM14.432 4.91454C18.2782 4.97612 21.5229 9.09728 18.9011 12.7103C18.2736 13.5167 17.4826 13.7569 16.8054 14.12C15.5744 14.7829 15.2209 14.6139 15.2209 16.1123C15.2209 17.8826 12.5329 17.868 12.451 16.1123L12.4013 15.0418C12.352 14.0252 13.0892 13.1787 13.7229 12.7419C14.6563 12.0981 15.1932 12.1317 15.997 11.1378C17.8816 8.81244 14.4407 6.44614 11.7912 8.24072C11.1119 8.7002 10.7046 9.33148 10.7046 10.5381C10.7518 12.3088 8.0162 12.3088 8.0638 10.5381C8.0638 8.61592 8.97112 7.06243 10.2303 6.15725C11.4894 5.25408 13.0093 4.91454 14.432 4.91454ZM14.2168 0.00366585C12.7937 -0.0279388 11.4099 0.145481 10.0991 0.497994C4.85632 1.90318 0.785817 6.16859 0.154586 11.3043C-0.477059 16.4409 0.870257 20.1447 3.40553 22.8882L2.1857 26.2732C1.76516 27.4409 2.51767 28.3433 3.69031 27.8729L7.96984 26.1553C9.30226 26.7566 10.7551 27.1707 12.2986 27.3522C20.0125 28.2614 26.939 23.1188 27.8919 15.3716C28.8472 7.62645 23.3644 1.01501 15.6535 0.105368C15.1721 0.0478314 14.6907 0.0146059 14.2168 0.00366585Z" fill="#A46CFF"/>
</svg>
