<svg width="13" height="13" viewBox="0 0 13 13" fill="none" xmlns="http://www.w3.org/2000/svg">
<path d="M5.85 5.85L7.15 5.85L7.15 9.75L5.85 9.75L5.85 5.85ZM5.85 3.25L7.15 3.25L7.15 4.55L5.85 4.55L5.85 3.25ZM6.5 13C7.35359 13 8.19883 12.8319 8.98744 12.5052C9.77606 12.1786 10.4926 11.6998 11.0962 11.0962C12.3152 9.87721 13 8.22391 13 6.5C13 4.77609 12.3152 3.12279 11.0962 1.90381C10.4926 1.30023 9.77606 0.821438 8.98744 0.494783C8.19883 0.168127 7.35359 2.81236e-07 6.5 2.06612e-07C4.77609 5.59035e-08 3.12279 0.68482 1.90381 1.90381C0.68482 3.12279 -2.34718e-07 4.77609 -3.85426e-07 6.5C-4.6005e-07 7.35359 0.168126 8.19883 0.494782 8.98744C0.821437 9.77606 1.30023 10.4926 1.90381 11.0962C2.50739 11.6998 3.22394 12.1786 4.01256 12.5052C4.80117 12.8319 5.64641 13 6.5 13Z" fill="#5C4484"/>
</svg>
