<svg width="46" height="46" viewBox="0 0 46 46" fill="none" xmlns="http://www.w3.org/2000/svg">
<g clip-path="url(#clip0_43_4023)">
<path d="M7.96334 0C3.57882 0 0 3.57882 0 7.96334C0 12.3479 3.57882 15.9267 7.96334 15.9267C12.3479 15.9267 15.9267 12.3479 15.9267 7.96334C15.9267 3.57882 12.3479 0 7.96334 0ZM38.046 0C33.6615 0 30.0827 3.57882 30.0827 7.96334C30.0827 12.3479 33.6615 15.9267 38.046 15.9267C42.4306 15.9267 46.0094 12.3479 46.0094 7.96334C46 3.57882 42.4306 0 38.046 0ZM7.96334 1.5833C11.4953 1.5833 14.3434 4.43136 14.3434 7.96334C14.3434 11.4953 11.4953 14.334 7.96334 14.334C4.43136 14.334 1.5833 11.4859 1.5833 7.96334C1.5833 4.44073 4.43136 1.5833 7.96334 1.5833ZM38.046 1.5833C41.578 1.5833 44.4261 4.43136 44.4261 7.96334C44.4261 11.4953 41.578 14.334 38.046 14.334C34.5141 14.334 31.666 11.4953 31.666 7.96334C31.666 4.43136 34.5141 1.5833 38.046 1.5833ZM24.1242 4.31894C23.9369 4.32831 23.7495 4.40326 23.609 4.53442C23.2904 4.83422 23.2811 5.34012 23.5902 5.64929L25.033 7.15764H19.1214C18.6811 7.15764 18.3251 7.51365 18.3251 7.9446C18.3251 8.38493 18.6811 8.74094 19.112 8.74094C19.112 8.74094 19.112 8.74094 19.1214 8.74094H25.033L23.5996 10.2493C23.2998 10.5678 23.3092 11.0644 23.6183 11.3642C23.9369 11.664 24.4334 11.664 24.7426 11.3454L27.422 8.5442C27.5906 8.3943 27.6843 8.17882 27.6843 7.95397C27.6843 7.9446 27.6843 7.92587 27.6843 7.9165C27.6843 7.90713 27.6843 7.88839 27.6843 7.87902C27.6656 7.72912 27.6094 7.57923 27.5157 7.4668L27.5063 7.45743C27.4969 7.44807 27.4969 7.44807 27.4876 7.4387C27.4782 7.42933 27.4688 7.41996 27.4595 7.41059C27.4501 7.40122 27.4407 7.39185 27.4314 7.38249L24.7426 4.55316C24.5833 4.40326 24.3585 4.30957 24.1242 4.31894ZM38.046 18.3251C37.6057 18.3251 37.2497 18.6811 37.2497 19.112C37.2497 19.112 37.2497 19.112 37.2497 19.1214V25.033L35.7413 23.5996C35.5914 23.4497 35.3853 23.3747 35.1699 23.3747C34.9637 23.3841 34.7576 23.4684 34.6171 23.6183C34.3173 23.9369 34.3267 24.4334 34.6452 24.7332L37.4558 27.422C37.6057 27.5813 37.8212 27.6749 38.0367 27.6749C38.2615 27.6749 38.477 27.5813 38.6269 27.4126L41.4375 24.7332C41.756 24.4334 41.7654 23.9275 41.4562 23.6183C41.1564 23.2998 40.6505 23.2904 40.3413 23.5902L38.833 25.033V19.1214C38.833 18.6811 38.477 18.3251 38.046 18.3251ZM7.96334 30.0827C3.57882 30.0827 0 33.6615 0 38.046C0 42.4306 3.57882 46 7.96334 46C12.3479 46 15.9267 42.4306 15.9267 38.046C15.9267 33.6521 12.3479 30.0827 7.96334 30.0827ZM38.046 30.0827C33.6615 30.0827 30.0827 33.6615 30.0827 38.046C30.0827 42.4306 33.6615 46 38.046 46C42.4306 46 46.0094 42.4306 46.0094 38.046C46 33.6521 42.4306 30.0827 38.046 30.0827ZM7.96334 31.666C11.4953 31.666 14.3434 34.5141 14.3434 38.046C14.3434 41.578 11.4953 44.4167 7.96334 44.4167C4.43136 44.4167 1.5833 41.578 1.5833 38.046C1.5833 34.5141 4.43136 31.666 7.96334 31.666ZM38.046 31.666C41.578 31.666 44.4261 34.5141 44.4261 38.046C44.4261 41.578 41.578 44.4167 38.046 44.4167C34.5141 44.4167 31.666 41.578 31.666 38.046C31.666 34.5141 34.5141 31.666 38.046 31.666ZM21.8196 34.4016C21.6134 34.411 21.4073 34.4953 21.2668 34.6452L18.5686 37.4652C18.4094 37.6151 18.3251 37.8212 18.3251 38.046C18.3251 38.2615 18.4187 38.4676 18.5686 38.6175L21.2574 41.4468C21.5572 41.7654 22.0631 41.7747 22.3817 41.475C22.7002 41.1752 22.7096 40.6692 22.4004 40.3601L20.9576 38.8517H26.8692C27.3096 38.8517 27.6656 38.4957 27.6656 38.0648C27.6656 37.6244 27.3096 37.2684 26.8786 37.2684C26.8786 37.2684 26.8786 37.2684 26.8692 37.2684H20.9576L22.391 35.7601C22.6908 35.4416 22.6908 34.945 22.3723 34.6358C22.2318 34.4766 22.0257 34.3923 21.8196 34.4016Z" fill="#A46CFF"/>
</g>
<defs>
<clipPath id="clip0_43_4023">
<rect width="46" height="46" fill="white"/>
</clipPath>
</defs>
</svg>
