<svg width="36" height="34" viewBox="0 0 36 34" fill="none" xmlns="http://www.w3.org/2000/svg">
<path d="M32.1617 7.55721C31.9602 6.91404 31.4765 6.39147 30.872 6.06989L18.5792 0.20099C18.2568 0.0401979 17.894 0 17.5716 0C17.2492 0 16.8864 0 16.564 0.0803959L4.27121 5.98949C3.66665 6.27088 3.2233 6.79345 3.06209 7.47682L0.0392707 20.7019C-0.0816418 21.3853 0.0795749 22.0687 0.482617 22.6314L8.9868 33.1231C9.47045 33.6055 10.1556 33.9271 10.8408 33.9673H24.383C25.1085 34.0476 25.7936 33.7261 26.237 33.1231L34.7412 22.6314C35.1442 22.0687 35.3054 21.3853 35.2248 20.7019L32.1617 7.55721Z" fill="#326DE6"/>
<path d="M30.267 20.1793C30.2267 20.1793 30.1864 20.1793 30.1864 20.1391C30.1864 20.0989 30.1058 20.0989 30.0252 20.0989C29.864 20.0587 29.7028 20.0587 29.5416 20.0587C29.4609 20.0587 29.3803 20.0587 29.2997 20.0186H29.2594C28.8161 19.9784 28.3324 19.898 27.8891 19.7774C27.7682 19.7372 27.6473 19.6166 27.607 19.496L27.2845 19.4156C27.4457 18.2498 27.3651 17.0439 27.1233 15.8782C26.8412 14.7124 26.3575 13.5869 25.7127 12.5819L25.9545 12.3407V12.3005C25.9545 12.18 25.9948 12.0192 26.0754 11.9388C26.4381 11.6172 26.8009 11.376 27.2039 11.1348C27.2845 11.0946 27.3651 11.0544 27.4457 11.0142C27.607 10.9338 27.7279 10.8534 27.8891 10.773C27.9294 10.7328 27.9697 10.7328 28.01 10.6926C28.0503 10.6524 28.01 10.6524 28.01 10.6122C28.3727 10.3308 28.4533 9.84847 28.1712 9.48669C28.0503 9.3259 27.8085 9.20531 27.607 9.20531C27.4054 9.20531 27.2039 9.2857 27.0427 9.4063L27.0024 9.44649C26.9621 9.48669 26.9218 9.52689 26.8815 9.52689C26.7606 9.64748 26.6397 9.76808 26.559 9.88867C26.5187 9.96907 26.4381 10.0093 26.3978 10.0495C26.1157 10.371 25.753 10.6926 25.3902 10.9338C25.3096 10.974 25.229 11.0142 25.1484 11.0142C25.1081 11.0142 25.0275 11.0142 24.9872 10.974H24.9469L24.6244 11.175C24.302 10.8534 23.9393 10.5318 23.6168 10.2103C22.1256 9.04452 20.2716 8.32095 18.3773 8.11996L18.337 7.79838V7.83858C18.2161 7.75818 18.1758 7.63759 18.1355 7.51699C18.1355 7.07482 18.1355 6.63264 18.2161 6.15026V6.11007C18.2161 6.02967 18.2564 5.94927 18.2564 5.86888C18.2967 5.70809 18.2967 5.54729 18.337 5.3865V5.14532C18.3773 4.74334 18.0549 4.34136 17.6518 4.30116C17.41 4.26096 17.1682 4.38155 16.9666 4.58254C16.8054 4.74334 16.7248 4.94433 16.7248 5.14532V5.34631C16.7248 5.5071 16.7651 5.66789 16.8054 5.82868C16.8457 5.90908 16.8457 5.98947 16.8457 6.06987V6.11007C16.9263 6.55224 16.9263 6.99442 16.9263 7.4768C16.886 7.59739 16.8457 7.71798 16.7248 7.79838V7.87878L16.6845 8.20036C16.2412 8.24056 15.7978 8.32095 15.3142 8.40135C13.4199 8.80333 11.6868 9.80828 10.3568 11.2152L10.1149 11.0544H10.0746C10.0343 11.0544 9.99402 11.0946 9.91341 11.0946C9.8328 11.0946 9.7522 11.0544 9.67159 11.0142C9.30885 10.7328 8.94611 10.4112 8.66398 10.0897C8.62368 10.0093 8.54307 9.96907 8.50277 9.92887C8.38185 9.80828 8.30125 9.68768 8.18033 9.56709C8.14003 9.52689 8.09972 9.52689 8.05942 9.48669C8.01912 9.44649 8.01912 9.44649 8.01912 9.44649C7.8579 9.3259 7.65638 9.2455 7.45486 9.2455C7.21303 9.2455 7.01151 9.3259 6.8906 9.52689C6.64877 9.88867 6.72938 10.371 7.05182 10.6524C7.09212 10.6524 7.09212 10.6926 7.09212 10.6926C7.09212 10.6926 7.17273 10.773 7.21303 10.773C7.33394 10.8534 7.49516 10.9338 7.65638 11.0142C7.73699 11.0544 7.8176 11.0946 7.8982 11.1348C8.30125 11.376 8.70429 11.6172 9.02672 11.9388C9.10733 12.0192 9.18794 12.18 9.14763 12.3005V12.2603L9.38946 12.5015C9.34915 12.5819 9.30885 12.6221 9.26855 12.7025C8.01912 14.6722 7.49516 17.0037 7.8579 19.295L7.53547 19.3754C7.53547 19.4156 7.49516 19.4156 7.49516 19.4156C7.45486 19.5362 7.33394 19.6166 7.21303 19.697C6.76969 19.8176 6.32634 19.898 5.84269 19.9382C5.76208 19.9382 5.68147 19.9382 5.60086 19.9784C5.43965 19.9784 5.27843 20.0186 5.11721 20.0186C5.07691 20.0186 5.03661 20.0587 4.956 20.0587C4.91569 20.0587 4.91569 20.0587 4.87539 20.0989C4.43204 20.1793 4.14991 20.5813 4.23052 21.0235C4.31113 21.3853 4.67387 21.6265 5.03661 21.5863C5.11721 21.5863 5.15752 21.5863 5.23813 21.5461C5.27843 21.5461 5.27843 21.5461 5.27843 21.5059C5.27843 21.4657 5.39934 21.5059 5.43965 21.5059C5.60086 21.4657 5.76208 21.3853 5.88299 21.3451C5.9636 21.3049 6.04421 21.2647 6.12482 21.2647H6.16512C6.60847 21.1039 7.01151 20.9833 7.49516 20.9029H7.53547C7.65638 20.9029 7.77729 20.9431 7.8579 21.0235C7.8982 21.0235 7.8982 21.0637 7.8982 21.0637L8.26094 21.0235C8.8655 22.8726 9.99402 24.5207 11.5659 25.7267C11.9286 26.008 12.2511 26.2492 12.6541 26.4502L12.4526 26.7316C12.4526 26.7718 12.4929 26.7718 12.4929 26.7718C12.5735 26.8924 12.5735 27.0532 12.5332 27.1738C12.372 27.5758 12.1301 27.9777 11.8883 28.3395V28.3797C11.848 28.4601 11.8077 28.5003 11.7271 28.5807C11.6465 28.6611 11.5659 28.8219 11.445 28.9827C11.4047 29.0229 11.4047 29.0631 11.3644 29.1033C11.3644 29.1033 11.3644 29.1435 11.3241 29.1435C11.1225 29.5455 11.2838 30.0278 11.6465 30.2288C11.7271 30.269 11.848 30.3092 11.9286 30.3092C12.2511 30.3092 12.5332 30.1082 12.6944 29.8268C12.6944 29.8268 12.6944 29.7866 12.7347 29.7866C12.7347 29.7464 12.775 29.7063 12.8153 29.6661C12.8556 29.5053 12.9362 29.3847 12.9765 29.2239L13.0571 28.9827C13.1781 28.5405 13.3796 28.1385 13.5811 27.7366C13.6617 27.616 13.7826 27.5356 13.9035 27.4954C13.9438 27.4954 13.9438 27.4954 13.9438 27.4552L14.105 27.1336C15.2336 27.5758 16.4024 27.7768 17.6115 27.7768C18.337 27.7768 19.0625 27.6964 19.7879 27.4954C20.2313 27.415 20.6746 27.2542 21.0777 27.1336L21.2389 27.415C21.2792 27.415 21.2792 27.415 21.2792 27.4552C21.4001 27.4954 21.521 27.5758 21.6016 27.6964C21.8031 28.0983 22.0047 28.5003 22.1256 28.9425V28.9827L22.2062 29.2239C22.2465 29.3847 22.2868 29.5455 22.3674 29.6661C22.4077 29.7063 22.4077 29.7464 22.448 29.7866C22.448 29.7866 22.448 29.8268 22.4883 29.8268C22.6495 30.1082 22.9317 30.3092 23.2541 30.3092C23.375 30.3092 23.4556 30.269 23.5765 30.2288C23.7378 30.1484 23.899 29.9876 23.9393 29.7866C23.9796 29.5857 23.9796 29.3847 23.899 29.1837C23.899 29.1435 23.8587 29.1435 23.8587 29.1435C23.8587 29.1033 23.8184 29.0631 23.7781 29.0229C23.6974 28.8621 23.6168 28.7415 23.4959 28.6209C23.4556 28.5405 23.4153 28.5003 23.3347 28.4199V28.3395C23.0526 27.9777 22.8511 27.5758 22.6898 27.1738C22.6495 27.0532 22.6495 26.8924 22.7301 26.7718C22.7301 26.7316 22.7705 26.7316 22.7705 26.7316L22.6495 26.41C24.7051 25.1639 26.2769 23.2344 27.0024 20.9431L27.3248 20.9833C27.3651 20.9833 27.3651 20.9431 27.3651 20.9431C27.4457 20.8627 27.5666 20.8225 27.6876 20.8225H27.7279C28.1712 20.9029 28.6146 21.0235 29.0176 21.1843H29.0579C29.1385 21.2245 29.2191 21.2647 29.2997 21.2647C29.4609 21.3451 29.5819 21.4255 29.7431 21.4657C29.7834 21.4657 29.8237 21.5059 29.9043 21.5059C29.9446 21.5059 29.9446 21.5059 29.9849 21.5461C30.0655 21.5863 30.1058 21.5863 30.1864 21.5863C30.5492 21.5863 30.8716 21.3451 30.9925 21.0235C30.9522 20.5813 30.6298 20.2597 30.267 20.1793ZM18.6191 18.9332L17.5309 19.4558L16.4427 18.9332L16.1606 17.7675L16.9263 16.8027H18.1355L18.9012 17.7675L18.6191 18.9332ZM25.1887 16.3203C25.3902 17.1645 25.4305 18.0087 25.3499 18.8528L21.521 17.7675C21.1583 17.6871 20.9568 17.3253 21.0374 16.9635C21.0777 16.8429 21.118 16.7625 21.1986 16.6821L24.2214 13.9487C24.6647 14.6722 24.9872 15.4762 25.1887 16.3203ZM23.0123 12.4613L19.7073 14.7928C19.4252 14.9536 19.0222 14.9134 18.8206 14.632C18.74 14.5516 18.6997 14.4712 18.6997 14.3506L18.4579 10.2907C20.2313 10.4916 21.8031 11.2554 23.0123 12.4613ZM15.7172 10.4112L16.5233 10.2505L16.3218 14.2702C16.3218 14.632 15.9993 14.9134 15.6366 14.9134C15.5157 14.9134 15.4351 14.8732 15.3142 14.833L11.9689 12.4613C13.0168 11.4564 14.3066 10.7328 15.7172 10.4112ZM10.8001 13.9487L13.7826 16.6017C14.0647 16.8429 14.105 17.2449 13.8632 17.5263C13.7826 17.6469 13.702 17.6871 13.5408 17.7273L9.63128 18.8528C9.51037 17.1645 9.91341 15.436 10.8001 13.9487ZM10.1149 20.7421L14.105 20.0587C14.4275 20.0587 14.7499 20.2597 14.7902 20.5813C14.8305 20.7019 14.8305 20.8627 14.7499 20.9833L13.2184 24.6815C11.8077 23.757 10.6792 22.35 10.1149 20.7421ZM19.264 25.7267C18.6997 25.8473 18.1355 25.9276 17.5309 25.9276C16.6845 25.9276 15.7978 25.7669 14.9917 25.5257L16.9666 21.9481C17.1682 21.7069 17.4906 21.6265 17.7727 21.7873C17.8936 21.8677 17.9743 21.9481 18.0952 22.0686L20.0298 25.5659C19.7879 25.6061 19.5461 25.6463 19.264 25.7267ZM24.1811 22.2294C23.5765 23.1942 22.7301 24.0383 21.7628 24.6413L20.191 20.8627C20.1104 20.5411 20.2716 20.2195 20.5537 20.0989C20.6746 20.0587 20.7955 20.0186 20.9165 20.0186L24.9469 20.7019C24.7454 21.2647 24.5035 21.7873 24.1811 22.2294Z" fill="white"/>
</svg>
