<svg width="41" height="41" viewBox="0 0 41 41" fill="none" xmlns="http://www.w3.org/2000/svg">
<g clip-path="url(#clip0_43_4034)">
<path fill-rule="evenodd" clip-rule="evenodd" d="M29.1768 15.1571V15.1748C29.0257 16.0776 28.7857 16.892 28.4568 17.6266C28.1278 18.3613 27.7011 19.0163 27.1766 19.6005C26.2787 20.6096 25.2386 21.238 24.3319 21.7868C24.2519 21.8311 24.1807 21.8842 24.1007 21.9285C23.2562 22.4418 22.4561 22.9818 21.9316 23.8935C21.336 24.9203 21.1315 26.3188 21.2915 28.2927C21.2915 28.3015 21.2915 28.3015 21.2915 28.3104C21.3093 28.5139 21.2382 28.7087 21.1048 28.8592C20.9715 29.0096 20.7848 29.107 20.5803 29.1159C20.5626 29.1159 20.5448 29.1159 20.527 29.1159C20.127 29.1159 19.7891 28.8061 19.7714 28.4077C19.5936 26.1506 19.8692 24.4334 20.6159 23.1411C21.3182 21.9196 22.3761 21.2026 23.3095 20.6361C23.5051 20.5211 23.6918 20.406 23.8785 20.2909C25.6031 19.273 27.0966 18.3879 27.6744 14.9093V14.8915C27.7189 14.6348 27.7367 14.3782 27.7367 14.1303C27.7367 12.7052 27.0788 11.3332 25.8431 10.2091C24.4208 8.9168 22.4205 8.14673 20.4648 8.14673C16.491 8.14673 13.264 11.2359 13.264 15.0332V15.0509C13.2551 15.4669 12.9173 15.8032 12.4995 15.8032H12.4906C12.2861 15.8032 12.0994 15.7147 11.9572 15.5731C11.815 15.4315 11.7349 15.2367 11.7438 15.0332C11.7438 10.395 15.6554 6.62427 20.4648 6.62427C22.8206 6.62427 25.1497 7.51827 26.8655 9.08498C28.6968 10.7579 29.5413 12.9708 29.1768 15.1571Z" fill="#A46CFF"/>
<path fill-rule="evenodd" clip-rule="evenodd" d="M22.1977 32.8335C22.1977 33.7629 21.4332 34.5241 20.4997 34.5241C19.5752 34.5241 18.8018 33.7452 18.8018 32.8335C18.8018 31.913 19.5752 31.134 20.4997 31.134C21.4243 31.134 22.1977 31.913 22.1977 32.8335Z" fill="#A46CFF"/>
<path fill-rule="evenodd" clip-rule="evenodd" d="M20.5 0.00341797C9.201 0.00341797 0 9.20009 0 20.5034C0 31.8067 9.201 41.0034 20.5 41.0034C31.799 41.0034 41 31.8067 41 20.5034C41 9.20009 31.8079 0.00341797 20.5 0.00341797ZM20.5 39.481C10.0366 39.481 1.52016 30.9658 1.52016 20.5034C1.52016 10.0321 10.0366 1.51702 20.5 1.51702C30.9634 1.51702 39.4798 10.0321 39.4798 20.5034C39.4798 30.9658 30.9634 39.481 20.5 39.481Z" fill="#A46CFF"/>
</g>
<defs>
<clipPath id="clip0_43_4034">
<rect width="41" height="41" fill="white"/>
</clipPath>
</defs>
</svg>
