<svg width="389" height="668" viewBox="0 0 389 668" fill="none" xmlns="http://www.w3.org/2000/svg">
<g clip-path="url(#clip0_49_3033)">
<path d="M263.111 481.834L247.957 414.004L190.45 435.316L263.111 481.834Z" stroke="#A46CFF" stroke-width="0.25" stroke-miterlimit="10"/>
<path d="M337.566 443.161L310.8 388.909L247.957 414.004L337.566 443.161Z" stroke="#A46CFF" stroke-width="0.25" stroke-miterlimit="10"/>
<path d="M310.8 388.91L354.955 357.791L238.494 331.95L310.8 388.91Z" stroke="#A46CFF" stroke-width="0.25" stroke-miterlimit="10"/>
<path d="M354.955 357.791L452.33 315.421L447.63 372.891L354.955 357.791Z" stroke="#A46CFF" stroke-width="0.25" stroke-miterlimit="10"/>
<path d="M310.8 388.91L252.905 261.415L305.232 238.446L310.8 388.91Z" stroke="#A46CFF" stroke-width="0.25" stroke-miterlimit="10"/>
<path d="M388.877 252.967L354.955 357.791L305.231 238.446L388.877 252.967Z" stroke="#A46CFF" stroke-width="0.25" stroke-miterlimit="10"/>
<path d="M354.955 357.791L305.232 238.446L452.33 315.421L354.955 357.791Z" stroke="#A46CFF" stroke-width="0.25" stroke-miterlimit="10"/>
<path d="M247.957 414.004L238.494 331.95L190.451 435.316L247.957 414.004Z" stroke="#A46CFF" stroke-width="0.25" stroke-miterlimit="10"/>
<path d="M186.794 341.809L144.249 367.795L190.45 435.316L186.794 341.809Z" stroke="#A46CFF" stroke-width="0.25" stroke-miterlimit="10"/>
<path d="M310.8 388.909L354.955 357.791L447.63 372.891L310.8 388.909Z" stroke="#A46CFF" stroke-width="0.25" stroke-miterlimit="10"/>
<path d="M137.729 260.558L71.0709 315.15L186.794 341.809L137.729 260.558Z" stroke="#A46CFF" stroke-width="0.25" stroke-miterlimit="10"/>
<path d="M71.0715 315.15L92.8418 152.34L144.25 367.795L71.0715 315.15Z" stroke="#A46CFF" stroke-width="0.25" stroke-miterlimit="10"/>
<path d="M163.677 192.475L137.729 260.558L190.194 251.776L163.677 192.475Z" stroke="#A46CFF" stroke-width="0.25" stroke-miterlimit="10"/>
<path d="M190.195 251.776L186.795 341.809L252.906 261.415L190.195 251.776Z" stroke="#A46CFF" stroke-width="0.25" stroke-miterlimit="10"/>
<path d="M305.231 238.446L263.548 179.959L252.905 261.415L305.231 238.446Z" stroke="#A46CFF" stroke-width="0.25" stroke-miterlimit="10"/>
<path d="M186.795 341.809L252.905 261.415L238.494 331.95L186.795 341.809Z" stroke="#A46CFF" stroke-width="0.25" stroke-miterlimit="10"/>
<path d="M351.88 187.873L255.394 102.68L305.232 238.446L351.88 187.873Z" stroke="#A46CFF" stroke-width="0.25" stroke-miterlimit="10"/>
<path d="M213.802 175.41L190.195 251.776L263.548 179.959L213.802 175.41Z" stroke="#A46CFF" stroke-width="0.25" stroke-miterlimit="10"/>
<path d="M337.565 443.161L447.63 372.891L531.058 348.982" stroke="#A46CFF" stroke-width="0.25" stroke-miterlimit="10"/>
<g opacity="0.8">
<path d="M386.791 252.702C386.752 251.779 387.489 250.961 388.413 250.922C389.336 250.883 390.154 251.62 390.193 252.543C390.232 253.467 389.494 254.285 388.571 254.324C387.647 254.363 386.829 253.626 386.791 252.702Z" fill="#A46CFF"/>
</g>
<g opacity="0.8">
<path d="M303.484 238.234C303.592 237.263 304.425 236.64 305.347 236.699C306.318 236.806 306.94 237.638 306.882 238.561C306.774 239.531 305.941 240.154 305.019 240.096C304.048 240.086 303.377 239.204 303.484 238.234Z" fill="#A46CFF"/>
</g>
<g opacity="0.8">
<path d="M353.208 357.579C353.316 356.608 354.148 355.985 355.071 356.044C356.041 356.151 356.664 356.983 356.605 357.906C356.498 358.876 355.665 359.499 354.743 359.441C353.82 359.383 353.15 358.501 353.208 357.579Z" fill="#A46CFF"/>
</g>
<g opacity="0.8">
<path d="M261.604 180.036C261.711 179.066 262.544 178.443 263.466 178.501C264.437 178.608 265.059 179.44 265.001 180.363C264.893 181.333 264.061 181.956 263.138 181.898C262.216 181.84 261.545 180.958 261.604 180.036Z" fill="#A46CFF"/>
</g>
<g opacity="0.8">
<path d="M335.867 442.997C335.975 442.027 336.808 441.404 337.73 441.462C338.7 441.569 339.323 442.402 339.264 443.324C339.157 444.295 338.324 444.918 337.402 444.859C336.431 444.752 335.809 443.92 335.867 442.997Z" fill="#A46CFF"/>
</g>
<g opacity="0.8">
<path d="M246.259 413.841C246.367 412.87 247.199 412.247 248.122 412.305C249.092 412.413 249.715 413.245 249.656 414.167C249.548 415.138 248.716 415.761 247.793 415.703C246.823 415.595 246.151 414.811 246.259 413.841Z" fill="#A46CFF"/>
</g>
<g opacity="0.8">
<path d="M236.795 331.787C236.903 330.816 237.735 330.194 238.658 330.252C239.628 330.359 240.251 331.191 240.192 332.114C240.085 333.084 239.252 333.707 238.33 333.649C237.359 333.542 236.688 332.66 236.795 331.787Z" fill="#A46CFF"/>
</g>
<g opacity="0.8">
<path d="M188.495 251.613C188.603 250.642 189.435 250.019 190.358 250.077C191.328 250.185 191.951 251.017 191.892 251.939C191.785 252.91 190.952 253.533 190.03 253.475C189.058 253.465 188.388 252.583 188.495 251.613Z" fill="#A46CFF"/>
</g>
<g opacity="0.8">
<path d="M142.747 367.439C142.855 366.469 143.687 365.846 144.61 365.904C145.58 366.011 146.203 366.843 146.144 367.766C146.037 368.736 145.204 369.359 144.282 369.301C143.359 369.243 142.64 368.41 142.747 367.439Z" fill="#A46CFF"/>
</g>
<g opacity="0.8">
<path d="M135.983 260.346C136.09 259.375 136.923 258.752 137.845 258.811C138.816 258.918 139.438 259.75 139.38 260.673C139.272 261.643 138.439 262.266 137.517 262.208C136.595 262.15 135.875 261.316 135.983 260.346Z" fill="#A46CFF"/>
</g>
<path d="M388.877 252.967L304.703 237.906L354.955 357.791L388.877 252.967Z" fill="url(#paint0_linear_49_3033)"/>
<path d="M252.513 261.8L190.195 251.776L186.795 341.809L252.513 261.8Z" fill="url(#paint1_linear_49_3033)"/>
<path d="M137.73 260.558L186.795 341.809L71.0719 315.15L137.73 260.558Z" fill="url(#paint2_linear_49_3033)"/>
<path d="M305.318 239.419L354.955 357.791L310.8 388.91L305.318 239.419Z" fill="url(#paint3_linear_49_3033)"/>
<path d="M238.739 331.71L310.8 388.91L251.464 259.943L238.739 331.71Z" fill="url(#paint4_linear_49_3033)"/>
<path d="M247.957 414.004L337.566 443.161L310.8 388.909L247.957 414.004Z" fill="url(#paint5_linear_49_3033)"/>
<path d="M190.45 435.316L247.957 414.004L238.739 331.71L190.45 435.316Z" fill="url(#paint6_linear_49_3033)"/>
<path d="M213.802 175.41L190.195 251.776L263.303 180.199L213.802 175.41Z" fill="url(#paint7_linear_49_3033)"/>
<path d="M337.566 443.161L448.832 374.118L310.8 388.91L337.566 443.161Z" fill="url(#paint8_linear_49_3033)"/>
</g>
<defs>
<linearGradient id="paint0_linear_49_3033" x1="305.308" y1="237.336" x2="389.812" y2="323.648" gradientUnits="userSpaceOnUse">
<stop stop-color="#6630FF" stop-opacity="0.5"/>
<stop offset="1" stop-color="#551AFF" stop-opacity="0"/>
</linearGradient>
<linearGradient id="paint1_linear_49_3033" x1="180.237" y1="261.557" x2="223.576" y2="305.823" gradientUnits="userSpaceOnUse">
<stop stop-color="#CC8CFF" stop-opacity="0.5"/>
<stop offset="1" stop-color="#AB3FFF" stop-opacity="0"/>
</linearGradient>
<linearGradient id="paint2_linear_49_3033" x1="101.73" y1="285.131" x2="171.707" y2="356.605" gradientUnits="userSpaceOnUse">
<stop stop-color="#7C1DC9" stop-opacity="0"/>
<stop offset="1" stop-color="#BAA9FF"/>
</linearGradient>
<linearGradient id="paint3_linear_49_3033" x1="269.333" y1="274.629" x2="352.802" y2="359.884" gradientUnits="userSpaceOnUse">
<stop stop-color="#7958FF" stop-opacity="0"/>
<stop offset="0.9751" stop-color="#5126FF" stop-opacity="0.4782"/>
<stop offset="1" stop-color="#B66EFF" stop-opacity="0.5"/>
</linearGradient>
<linearGradient id="paint4_linear_49_3033" x1="230.277" y1="280.677" x2="323.798" y2="376.199" gradientUnits="userSpaceOnUse">
<stop stop-color="#7432FF" stop-opacity="0"/>
<stop offset="0.107292" stop-color="#702CFF" stop-opacity="0.052617"/>
<stop offset="0.9751" stop-color="#844BFF" stop-opacity="0.4782"/>
<stop offset="1" stop-color="#7738FF" stop-opacity="0.5"/>
</linearGradient>
<linearGradient id="paint5_linear_49_3033" x1="270.271" y1="392.172" x2="328.702" y2="451.853" gradientUnits="userSpaceOnUse">
<stop stop-color="#996AFF" stop-opacity="0.5"/>
<stop offset="1" stop-color="#854CFF" stop-opacity="0"/>
</linearGradient>
<linearGradient id="paint6_linear_49_3033" x1="200.514" y1="369.123" x2="246.176" y2="415.763" gradientUnits="userSpaceOnUse">
<stop stop-color="#CD7CFF" stop-opacity="0.5"/>
<stop offset="1" stop-color="#9E00FF" stop-opacity="0"/>
</linearGradient>
<linearGradient id="paint7_linear_49_3033" x1="200.126" y1="188.796" x2="226.765" y2="216.004" gradientUnits="userSpaceOnUse">
<stop stop-color="#BB4DFF" stop-opacity="0"/>
<stop offset="0.9751" stop-color="#3F47FF" stop-opacity="0.4782"/>
<stop offset="1" stop-color="#210DFF" stop-opacity="0.5"/>
</linearGradient>
<linearGradient id="paint8_linear_49_3033" x1="343.029" y1="357.372" x2="403.191" y2="418.822" gradientUnits="userSpaceOnUse">
<stop stop-color="#B66EFF" stop-opacity="0.5"/>
<stop offset="1" stop-color="#3B0AFF" stop-opacity="0"/>
</linearGradient>
<clipPath id="clip0_49_3033">
<rect width="594" height="347" fill="white" transform="translate(247.95) rotate(45.6065)"/>
</clipPath>
</defs>
</svg>
