<svg width="637" height="398" viewBox="0 0 637 398" fill="none" xmlns="http://www.w3.org/2000/svg">
<g clip-path="url(#clip0_39_17)">
<path d="M594.903 326.249L535.833 289.625L510.831 345.626L594.903 326.249Z" stroke="#A46CFF" stroke-width="0.25" stroke-miterlimit="10"/>
<path d="M619.356 245.992L561.865 227.165L535.833 289.625L619.356 245.992Z" stroke="#A46CFF" stroke-width="0.25" stroke-miterlimit="10"/>
<path d="M561.864 227.165L570.519 173.844L470.58 238.983L561.864 227.165Z" stroke="#A46CFF" stroke-width="0.25" stroke-miterlimit="10"/>
<path d="M757.415 98.7404L646.143 118.186L608.365 74.6222L757.415 98.7404Z" stroke="#A46CFF" stroke-width="0.25" stroke-miterlimit="10"/>
<path d="M570.52 173.844L608.366 74.6222L646.143 118.186L570.52 173.844Z" stroke="#A46CFF" stroke-width="0.25" stroke-miterlimit="10"/>
<path d="M561.865 227.165L430.262 179.341L450.456 125.882L561.865 227.165Z" stroke="#A46CFF" stroke-width="0.25" stroke-miterlimit="10"/>
<path d="M519.348 76.2713L570.519 173.844L450.455 125.882L519.348 76.2713Z" stroke="#A46CFF" stroke-width="0.25" stroke-miterlimit="10"/>
<path d="M570.519 173.844L450.455 125.882L608.365 74.6222L570.519 173.844Z" stroke="#A46CFF" stroke-width="0.25" stroke-miterlimit="10"/>
<path d="M535.832 289.625L470.58 238.983L510.83 345.626L535.832 289.625Z" stroke="#A46CFF" stroke-width="0.25" stroke-miterlimit="10"/>
<path d="M441.458 282.822L430.262 331.402L510.831 345.626L441.458 282.822Z" stroke="#A46CFF" stroke-width="0.25" stroke-miterlimit="10"/>
<path d="M561.865 227.165L570.52 173.844L646.143 118.186L561.865 227.165Z" stroke="#A46CFF" stroke-width="0.25" stroke-miterlimit="10"/>
<path d="M349.074 261.04L341.45 346.863L441.458 282.822L349.074 261.04Z" stroke="#A46CFF" stroke-width="0.25" stroke-miterlimit="10"/>
<path d="M341.45 346.863L240.344 217.408L430.262 331.402L341.45 346.863Z" stroke="#A46CFF" stroke-width="0.25" stroke-miterlimit="10"/>
<path d="M318.577 194.87L349.074 261.04L379.502 217.408L318.577 194.87Z" stroke="#A46CFF" stroke-width="0.25" stroke-miterlimit="10"/>
<path d="M379.502 217.408L441.457 282.822L430.261 179.341L379.502 217.408Z" stroke="#A46CFF" stroke-width="0.25" stroke-miterlimit="10"/>
<path d="M450.455 125.882L379.502 114.751L430.261 179.341L450.455 125.882Z" stroke="#A46CFF" stroke-width="0.25" stroke-miterlimit="10"/>
<path d="M441.458 282.822L430.262 179.341L470.581 238.983L441.458 282.822Z" stroke="#A46CFF" stroke-width="0.25" stroke-miterlimit="10"/>
<path d="M446.952 57.1691L318.577 66.5141L450.455 125.882L446.952 57.1691Z" stroke="#A46CFF" stroke-width="0.25" stroke-miterlimit="10"/>
<path d="M341.45 147.114L379.502 217.408V114.751L341.45 147.114Z" stroke="#A46CFF" stroke-width="0.25" stroke-miterlimit="10"/>
<path d="M619.355 245.992L646.143 118.186L687.424 41.8461" stroke="#A46CFF" stroke-width="0.25" stroke-miterlimit="10"/>
<g opacity="0.8">
<path d="M517.699 77.5768C517.012 76.9584 516.943 75.859 517.561 75.1719C518.18 74.4847 519.279 74.416 519.965 75.0344C520.652 75.6529 520.721 76.7523 520.103 77.4394C519.485 78.1265 518.386 78.1952 517.699 77.5768Z" fill="#A46CFF"/>
</g>
<g opacity="0.8">
<path d="M449.081 126.981C448.463 126.226 448.601 125.195 449.287 124.576C450.043 123.958 451.073 124.095 451.691 124.783C452.31 125.538 452.172 126.569 451.485 127.188C450.798 127.875 449.699 127.737 449.081 126.981Z" fill="#A46CFF"/>
</g>
<g opacity="0.8">
<path d="M569.146 174.943C568.528 174.187 568.665 173.156 569.352 172.538C570.107 171.92 571.138 172.057 571.756 172.744C572.374 173.5 572.237 174.531 571.55 175.149C570.863 175.768 569.764 175.63 569.146 174.943Z" fill="#A46CFF"/>
</g>
<g opacity="0.8">
<path d="M378.198 116.193C377.579 115.438 377.717 114.407 378.404 113.789C379.159 113.17 380.189 113.308 380.808 113.995C381.426 114.75 381.288 115.781 380.602 116.4C379.915 117.018 378.816 116.881 378.198 116.193Z" fill="#A46CFF"/>
</g>
<g opacity="0.8">
<path d="M618.05 247.091C617.432 246.336 617.569 245.305 618.256 244.687C619.012 244.068 620.042 244.206 620.66 244.893C621.278 245.648 621.141 246.679 620.454 247.298C619.699 247.916 618.668 247.779 618.05 247.091Z" fill="#A46CFF"/>
</g>
<g opacity="0.8">
<path d="M534.528 290.724C533.909 289.968 534.047 288.938 534.734 288.319C535.489 287.701 536.52 287.838 537.138 288.525C537.756 289.281 537.618 290.312 536.932 290.93C536.176 291.549 535.146 291.48 534.528 290.724Z" fill="#A46CFF"/>
</g>
<g opacity="0.8">
<path d="M469.276 240.083C468.657 239.327 468.795 238.296 469.482 237.678C470.237 237.059 471.268 237.197 471.886 237.884C472.504 238.64 472.367 239.671 471.68 240.289C470.924 240.907 469.825 240.77 469.276 240.083Z" fill="#A46CFF"/>
</g>
<g opacity="0.8">
<path d="M378.198 218.507C377.579 217.751 377.717 216.72 378.404 216.102C379.159 215.484 380.189 215.621 380.808 216.308C381.426 217.064 381.288 218.095 380.602 218.713C379.915 219.4 378.816 219.263 378.198 218.507Z" fill="#A46CFF"/>
</g>
<g opacity="0.8">
<path d="M428.956 332.227C428.338 331.471 428.475 330.44 429.162 329.822C429.918 329.203 430.948 329.341 431.566 330.028C432.185 330.784 432.047 331.814 431.36 332.433C430.673 333.051 429.574 332.983 428.956 332.227Z" fill="#A46CFF"/>
</g>
<g opacity="0.8">
<path d="M347.7 262.14C347.082 261.384 347.22 260.353 347.907 259.735C348.662 259.116 349.692 259.254 350.311 259.941C350.929 260.697 350.791 261.727 350.104 262.346C349.418 262.964 348.319 262.895 347.7 262.14Z" fill="#A46CFF"/>
</g>
<path d="M519.348 76.2713L449.7 125.882L570.52 173.844L519.348 76.2713Z" fill="url(#paint0_linear_39_17)"/>
<path d="M430.262 179.89L379.503 217.408L441.458 282.822L430.262 179.89Z" fill="url(#paint1_linear_39_17)"/>
<path d="M349.074 261.04L441.458 282.822L341.45 346.863L349.074 261.04Z" fill="url(#paint2_linear_39_17)"/>
<path d="M451.211 126.5L570.519 173.844L561.865 227.165L451.211 126.5Z" fill="url(#paint3_linear_39_17)"/>
<path d="M470.581 238.64L561.865 227.165L428.201 179.341L470.581 238.64Z" fill="url(#paint4_linear_39_17)"/>
<path d="M535.833 289.625L619.356 245.992L561.865 227.165L535.833 289.625Z" fill="url(#paint5_linear_39_17)"/>
<path d="M510.831 345.626L535.833 289.625L470.581 238.64L510.831 345.626Z" fill="url(#paint6_linear_39_17)"/>
<path d="M341.45 147.114L379.502 217.408V115.094L341.45 147.114Z" fill="url(#paint7_linear_39_17)"/>
<path d="M608.365 74.6222L757.415 98.0533L647.86 118.186L608.365 74.6222Z" fill="url(#paint8_linear_39_17)"/>
<path d="M619.356 245.992L647.861 118.186L561.865 227.165L619.356 245.992Z" fill="url(#paint9_linear_39_17)"/>
</g>
<g opacity="0.2" filter="url(#filter0_f_39_17)">
<circle cx="40" cy="358" r="20" fill="#A46CFF"/>
</g>
<defs>
<filter id="filter0_f_39_17" x="0" y="318" width="80" height="80" filterUnits="userSpaceOnUse" color-interpolation-filters="sRGB">
<feFlood flood-opacity="0" result="BackgroundImageFix"/>
<feBlend mode="normal" in="SourceGraphic" in2="BackgroundImageFix" result="shape"/>
<feGaussianBlur stdDeviation="10" result="effect1_foregroundBlur_39_17"/>
</filter>
<linearGradient id="paint0_linear_39_17" x1="449.716" y1="125.051" x2="570.509" y2="125.051" gradientUnits="userSpaceOnUse">
<stop stop-color="#6630FF" stop-opacity="0.5"/>
<stop offset="1" stop-color="#551AFF" stop-opacity="0"/>
</linearGradient>
<linearGradient id="paint1_linear_39_17" x1="379.526" y1="231.366" x2="441.475" y2="231.366" gradientUnits="userSpaceOnUse">
<stop stop-color="#CC8CFF" stop-opacity="0.5"/>
<stop offset="1" stop-color="#AB3FFF" stop-opacity="0"/>
</linearGradient>
<linearGradient id="paint2_linear_39_17" x1="341.448" y1="303.955" x2="441.474" y2="303.955" gradientUnits="userSpaceOnUse">
<stop stop-color="#7C1DC9" stop-opacity="0"/>
<stop offset="1" stop-color="#BAA9FF"/>
</linearGradient>
<linearGradient id="paint3_linear_39_17" x1="451.196" y1="176.847" x2="570.508" y2="176.847" gradientUnits="userSpaceOnUse">
<stop stop-color="#7958FF" stop-opacity="0"/>
<stop offset="0.9751" stop-color="#5126FF" stop-opacity="0.4782"/>
<stop offset="1" stop-color="#B66EFF" stop-opacity="0.5"/>
</linearGradient>
<linearGradient id="paint4_linear_39_17" x1="428.195" y1="208.985" x2="561.876" y2="208.985" gradientUnits="userSpaceOnUse">
<stop stop-color="#7432FF" stop-opacity="0"/>
<stop offset="0.107292" stop-color="#702CFF" stop-opacity="0.052617"/>
<stop offset="0.9751" stop-color="#844BFF" stop-opacity="0.4782"/>
<stop offset="1" stop-color="#7738FF" stop-opacity="0.5"/>
</linearGradient>
<linearGradient id="paint5_linear_39_17" x1="535.844" y1="258.407" x2="619.366" y2="258.407" gradientUnits="userSpaceOnUse">
<stop stop-color="#996AFF" stop-opacity="0.5"/>
<stop offset="1" stop-color="#854CFF" stop-opacity="0"/>
</linearGradient>
<linearGradient id="paint6_linear_39_17" x1="470.573" y1="292.127" x2="535.844" y2="292.127" gradientUnits="userSpaceOnUse">
<stop stop-color="#CD7CFF" stop-opacity="0.5"/>
<stop offset="1" stop-color="#9E00FF" stop-opacity="0"/>
</linearGradient>
<linearGradient id="paint7_linear_39_17" x1="341.448" y1="166.251" x2="379.525" y2="166.251" gradientUnits="userSpaceOnUse">
<stop stop-color="#BB4DFF" stop-opacity="0"/>
<stop offset="0.9751" stop-color="#3F47FF" stop-opacity="0.4782"/>
<stop offset="1" stop-color="#210DFF" stop-opacity="0.5"/>
</linearGradient>
<linearGradient id="paint8_linear_39_17" x1="608.334" y1="96.4129" x2="757.432" y2="96.4129" gradientUnits="userSpaceOnUse">
<stop stop-color="#AE48FF" stop-opacity="0"/>
<stop offset="0.9751" stop-color="#865CFF" stop-opacity="0.4782"/>
<stop offset="1" stop-color="#CB36FF" stop-opacity="0.5"/>
</linearGradient>
<linearGradient id="paint9_linear_39_17" x1="561.876" y1="182.072" x2="647.875" y2="182.072" gradientUnits="userSpaceOnUse">
<stop stop-color="#B66EFF" stop-opacity="0.5"/>
<stop offset="1" stop-color="#3B0AFF" stop-opacity="0"/>
</linearGradient>
<clipPath id="clip0_39_17">
<rect width="594" height="347" fill="white" transform="translate(240)"/>
</clipPath>
</defs>
</svg>
