<svg width="908" height="560" viewBox="0 0 908 560" fill="none" xmlns="http://www.w3.org/2000/svg">
<g clip-path="url(#clip0_103_7)">
<path d="M729.717 116.83L768.614 174.429L814.353 133.574L729.717 116.83Z" stroke="#A46CFF" stroke-width="0.25" stroke-miterlimit="10"/>
<path d="M674.548 180.039L719.29 220.755L768.614 174.429L674.548 180.039Z" stroke="#A46CFF" stroke-width="0.25" stroke-miterlimit="10"/>
<path d="M719.29 220.755L689.562 265.858L807.41 247.348L719.29 220.755Z" stroke="#A46CFF" stroke-width="0.25" stroke-miterlimit="10"/>
<path d="M488.3 257.853L597.78 285.672L614.408 340.885L488.3 257.853Z" stroke="#A46CFF" stroke-width="0.25" stroke-miterlimit="10"/>
<path d="M378.425 316.47L467.646 275.02L513.814 313.062L378.425 316.47Z" stroke="#A46CFF" stroke-width="0.25" stroke-miterlimit="10"/>
<path d="M689.562 265.858L614.408 340.885L597.779 285.672L689.562 265.858Z" stroke="#A46CFF" stroke-width="0.25" stroke-miterlimit="10"/>
<path d="M719.289 220.755L819.774 318.271L779.462 358.774L719.289 220.755Z" stroke="#A46CFF" stroke-width="0.25" stroke-miterlimit="10"/>
<path d="M696.296 375.828L689.562 265.858L779.462 358.774L696.296 375.828Z" stroke="#A46CFF" stroke-width="0.25" stroke-miterlimit="10"/>
<path d="M689.562 265.858L779.463 358.774L614.408 340.885L689.562 265.858Z" stroke="#A46CFF" stroke-width="0.25" stroke-miterlimit="10"/>
<path d="M768.614 174.429L807.411 247.348L814.354 133.574L768.614 174.429Z" stroke="#A46CFF" stroke-width="0.25" stroke-miterlimit="10"/>
<path d="M851.93 219.277L882.035 179.54L814.353 133.574L851.93 219.277Z" stroke="#A46CFF" stroke-width="0.25" stroke-miterlimit="10"/>
<path d="M719.29 220.755L689.562 265.858L597.779 285.672L719.29 220.755Z" stroke="#A46CFF" stroke-width="0.25" stroke-miterlimit="10"/>
<path d="M927.296 276.975L969.392 201.798L851.93 219.277L927.296 276.975Z" stroke="#A46CFF" stroke-width="0.25" stroke-miterlimit="10"/>
<path d="M969.392 201.798L1008.63 361.302L882.036 179.54L969.392 201.798Z" stroke="#A46CFF" stroke-width="0.25" stroke-miterlimit="10"/>
<path d="M928.026 349.831L927.296 276.975L881.671 304.324L928.026 349.831Z" stroke="#A46CFF" stroke-width="0.25" stroke-miterlimit="10"/>
<path d="M881.67 304.324L851.93 219.277L819.775 318.271L881.67 304.324Z" stroke="#A46CFF" stroke-width="0.25" stroke-miterlimit="10"/>
<path d="M779.463 358.775L839.638 397.982L819.774 318.271L779.463 358.775Z" stroke="#A46CFF" stroke-width="0.25" stroke-miterlimit="10"/>
<path d="M851.93 219.277L819.774 318.271L807.411 247.348L851.93 219.277Z" stroke="#A46CFF" stroke-width="0.25" stroke-miterlimit="10"/>
<path d="M754.525 422.898L875.472 466.935L779.463 358.774L754.525 422.898Z" stroke="#A46CFF" stroke-width="0.25" stroke-miterlimit="10"/>
<path d="M887.606 384.035L881.671 304.324L839.638 397.982L887.606 384.035Z" stroke="#A46CFF" stroke-width="0.25" stroke-miterlimit="10"/>
<path d="M674.548 180.039L597.779 285.672L528.86 338.418" stroke="#A46CFF" stroke-width="0.25" stroke-miterlimit="10"/>
<g opacity="0.8">
<path d="M698.334 375.312C698.708 376.158 698.32 377.189 697.475 377.563C696.63 377.936 695.599 377.549 695.226 376.704C694.852 375.858 695.24 374.827 696.085 374.453C696.93 374.079 697.961 374.467 698.334 375.312Z" fill="#A46CFF"/>
</g>
<g opacity="0.8">
<path d="M781.166 358.334C781.421 359.277 780.873 360.161 779.993 360.444C779.051 360.699 778.167 360.151 777.885 359.271C777.63 358.329 778.177 357.445 779.057 357.162C779.965 356.816 780.912 357.391 781.166 358.334Z" fill="#A46CFF"/>
</g>
<g opacity="0.8">
<path d="M691.265 265.417C691.519 266.36 690.972 267.244 690.092 267.527C689.15 267.782 688.266 267.235 687.983 266.355C687.729 265.412 688.276 264.528 689.156 264.245C690.036 263.962 690.982 264.537 691.265 265.417Z" fill="#A46CFF"/>
</g>
<g opacity="0.8">
<path d="M489.659 258.012C489.914 258.954 489.366 259.839 488.487 260.121C487.544 260.376 486.66 259.829 486.378 258.949C486.123 258.006 486.671 257.122 487.55 256.839C488.43 256.556 489.405 257.069 489.659 258.012Z" fill="#A46CFF"/>
</g>
<g opacity="0.8">
<path d="M530.501 337.949C530.756 338.892 530.208 339.776 529.328 340.059C528.386 340.314 527.502 339.766 527.22 338.886C526.965 337.944 527.512 337.06 528.392 336.777C529.335 336.522 530.309 337.035 530.501 337.949Z" fill="#A46CFF"/>
</g>
<g opacity="0.8">
<path d="M599.419 285.204C599.674 286.146 599.126 287.03 598.246 287.313C597.304 287.568 596.42 287.021 596.137 286.141C595.883 285.198 596.43 284.314 597.31 284.031C598.253 283.776 599.136 284.324 599.419 285.204Z" fill="#A46CFF"/>
</g>
<g opacity="0.8">
<path d="M469.6 274.692C469.854 275.635 469.307 276.519 468.427 276.802C467.484 277.057 466.601 276.509 466.318 275.629C466.064 274.687 466.611 273.803 467.491 273.52C468.399 273.174 469.345 273.749 469.6 274.692Z" fill="#A46CFF"/>
</g>
<g opacity="0.8">
<path d="M841.419 397.199C841.674 398.142 841.126 399.026 840.246 399.309C839.304 399.564 838.42 399.017 838.137 398.137C837.883 397.194 838.43 396.31 839.31 396.027C840.19 395.744 841.136 396.319 841.419 397.199Z" fill="#A46CFF"/>
</g>
<g opacity="0.8">
<path d="M676.189 179.57C676.443 180.513 675.896 181.397 675.016 181.68C674.073 181.935 673.19 181.387 672.907 180.507C672.653 179.565 673.2 178.681 674.08 178.398C675.022 178.143 675.906 178.69 676.189 179.57Z" fill="#A46CFF"/>
</g>
<g opacity="0.8">
<path d="M770.254 173.96C770.509 174.903 769.961 175.787 769.081 176.07C768.139 176.325 767.255 175.778 766.972 174.898C766.718 173.955 767.265 173.071 768.145 172.788C769.088 172.533 770 173.018 770.254 173.96Z" fill="#A46CFF"/>
</g>
<g opacity="0.8">
<path d="M809.051 246.879C809.305 247.822 808.758 248.706 807.878 248.989C806.936 249.244 806.052 248.697 805.769 247.817C805.515 246.874 806.062 245.99 806.942 245.707C807.885 245.452 808.831 246.028 809.051 246.879Z" fill="#A46CFF"/>
</g>
<g opacity="0.8">
<path d="M883.311 303.855C883.565 304.798 883.018 305.682 882.138 305.965C881.195 306.22 880.312 305.673 880.029 304.793C879.775 303.85 880.322 302.966 881.202 302.683C882.11 302.337 883.056 302.913 883.311 303.855Z" fill="#A46CFF"/>
</g>
<g opacity="0.8">
<path d="M883.564 179.322C883.818 180.264 883.271 181.148 882.391 181.431C881.448 181.686 880.565 181.139 880.282 180.259C880.028 179.316 880.575 178.432 881.455 178.149C882.335 177.866 883.309 178.379 883.564 179.322Z" fill="#A46CFF"/>
</g>
<path d="M696.297 375.828L780.152 359.084L689.562 265.858L696.297 375.828Z" fill="url(#paint0_linear_103_7)"/>
<path d="M819.999 317.769L881.67 304.324L851.93 219.277L819.999 317.769Z" fill="url(#paint1_linear_103_7)"/>
<path d="M927.296 276.975L851.93 219.277L969.392 201.798L927.296 276.975Z" fill="url(#paint2_linear_103_7)"/>
<path d="M779.026 357.901L689.562 265.858L719.29 220.755L779.026 357.901Z" fill="url(#paint3_linear_103_7)"/>
<path d="M807.27 247.661L719.29 220.755L821.654 319.114L807.27 247.661Z" fill="url(#paint4_linear_103_7)"/>
<path d="M768.614 174.429L674.548 180.039L719.29 220.755L768.614 174.429Z" fill="url(#paint5_linear_103_7)"/>
<path d="M814.353 133.574L768.613 174.429L807.27 247.661L814.353 133.574Z" fill="url(#paint6_linear_103_7)"/>
<path d="M887.606 384.035L881.671 304.324L839.779 397.668L887.606 384.035Z" fill="url(#paint7_linear_103_7)"/>
<path d="M614.407 340.885L488.018 258.48L596.212 284.969L614.407 340.885Z" fill="url(#paint8_linear_103_7)"/>
<path d="M674.548 180.039L596.212 284.969L719.29 220.755L674.548 180.039Z" fill="url(#paint9_linear_103_7)"/>
<path d="M513.814 313.062L378.425 316.47L467.646 275.02L513.814 313.062Z" fill="url(#paint10_linear_103_7)"/>
</g>
<g opacity="0.2" filter="url(#filter0_f_103_7)">
<circle cx="40" cy="128" r="20" fill="#A46CFF"/>
</g>
<defs>
<filter id="filter0_f_103_7" x="0" y="88" width="80" height="80" filterUnits="userSpaceOnUse" color-interpolation-filters="sRGB">
<feFlood flood-opacity="0" result="BackgroundImageFix"/>
<feBlend mode="normal" in="SourceGraphic" in2="BackgroundImageFix" result="shape"/>
<feGaussianBlur stdDeviation="10" result="effect1_foregroundBlur_103_7"/>
</filter>
<linearGradient id="paint0_linear_103_7" x1="779.797" y1="359.836" x2="669.594" y2="310.378" gradientUnits="userSpaceOnUse">
<stop stop-color="#6630FF" stop-opacity="0.5"/>
<stop offset="1" stop-color="#551AFF" stop-opacity="0"/>
</linearGradient>
<linearGradient id="paint1_linear_103_7" x1="887.364" y1="291.58" x2="830.846" y2="266.215" gradientUnits="userSpaceOnUse">
<stop stop-color="#CC8CFF" stop-opacity="0.5"/>
<stop offset="1" stop-color="#AB3FFF" stop-opacity="0"/>
</linearGradient>
<linearGradient id="paint2_linear_103_7" x1="951.826" y1="240.945" x2="860.568" y2="199.989" gradientUnits="userSpaceOnUse">
<stop stop-color="#7C1DC9" stop-opacity="0"/>
<stop offset="1" stop-color="#BAA9FF"/>
</linearGradient>
<linearGradient id="paint3_linear_103_7" x1="799.654" y1="311.974" x2="690.801" y2="263.123" gradientUnits="userSpaceOnUse">
<stop stop-color="#7958FF" stop-opacity="0"/>
<stop offset="0.9751" stop-color="#5126FF" stop-opacity="0.4782"/>
<stop offset="1" stop-color="#B66EFF" stop-opacity="0.5"/>
</linearGradient>
<linearGradient id="paint4_linear_103_7" x1="833.797" y1="292.071" x2="711.836" y2="237.336" gradientUnits="userSpaceOnUse">
<stop stop-color="#7432FF" stop-opacity="0"/>
<stop offset="0.107292" stop-color="#702CFF" stop-opacity="0.052617"/>
<stop offset="0.9751" stop-color="#844BFF" stop-opacity="0.4782"/>
<stop offset="1" stop-color="#7738FF" stop-opacity="0.5"/>
</linearGradient>
<linearGradient id="paint5_linear_103_7" x1="755.822" y1="202.905" x2="679.622" y2="168.708" gradientUnits="userSpaceOnUse">
<stop stop-color="#996AFF" stop-opacity="0.5"/>
<stop offset="1" stop-color="#854CFF" stop-opacity="0"/>
</linearGradient>
<linearGradient id="paint6_linear_103_7" x1="829.177" y1="198.866" x2="769.628" y2="172.141" gradientUnits="userSpaceOnUse">
<stop stop-color="#CD7CFF" stop-opacity="0.5"/>
<stop offset="1" stop-color="#9E00FF" stop-opacity="0"/>
</linearGradient>
<linearGradient id="paint7_linear_103_7" x1="895.444" y1="366.577" x2="860.704" y2="350.986" gradientUnits="userSpaceOnUse">
<stop stop-color="#BB4DFF" stop-opacity="0"/>
<stop offset="0.9751" stop-color="#3F47FF" stop-opacity="0.4782"/>
<stop offset="1" stop-color="#210DFF" stop-opacity="0.5"/>
</linearGradient>
<linearGradient id="paint8_linear_103_7" x1="623.358" y1="321.017" x2="487.331" y2="259.97" gradientUnits="userSpaceOnUse">
<stop stop-color="#AE48FF" stop-opacity="0"/>
<stop offset="0.9751" stop-color="#865CFF" stop-opacity="0.4782"/>
<stop offset="1" stop-color="#CB36FF" stop-opacity="0.5"/>
</linearGradient>
<linearGradient id="paint9_linear_103_7" x1="700.817" y1="261.889" x2="622.358" y2="226.678" gradientUnits="userSpaceOnUse">
<stop stop-color="#B66EFF" stop-opacity="0.5"/>
<stop offset="1" stop-color="#3B0AFF" stop-opacity="0"/>
</linearGradient>
<linearGradient id="paint10_linear_103_7" x1="486.271" y1="347.026" x2="406.24" y2="282.142" gradientUnits="userSpaceOnUse">
<stop stop-color="white" stop-opacity="0.5"/>
<stop offset="0.0001" stop-color="white" stop-opacity="0.5"/>
<stop offset="0.0248924" stop-color="#6865FF" stop-opacity="0.4782"/>
<stop offset="1" stop-color="#6D3AFF" stop-opacity="0"/>
</linearGradient>
<clipPath id="clip0_103_7">
<rect width="594" height="347" fill="white" transform="translate(919.927 559.791) rotate(-155.83)"/>
</clipPath>
</defs>
</svg>
