<svg width="329" height="58" viewBox="0 0 329 58" fill="none" xmlns="http://www.w3.org/2000/svg">
<path d="M53.8368 13.8108C53.5123 12.7751 52.7335 11.9336 51.7599 11.4158L31.9649 1.96513C31.4457 1.70621 30.8616 1.64148 30.3424 1.64148C29.8231 1.64148 29.239 1.64148 28.7198 1.77094L8.92479 11.2863C7.95127 11.7395 7.23735 12.581 6.97774 13.6814L2.11011 34.9777C1.91541 36.0782 2.17501 37.1786 2.82403 38.0848L16.5183 54.9795C17.2971 55.7563 18.4004 56.2741 19.5038 56.3388H41.3108C42.479 56.4683 43.5823 55.9505 44.2962 54.9795L57.9905 38.0848C58.6395 37.1786 58.8991 36.0782 58.7693 34.9777L53.8368 13.8108Z" fill="#326DE6"/>
<path d="M50.7865 34.1363C50.7216 34.1363 50.6567 34.1363 50.6567 34.0716C50.6567 34.0068 50.5269 34.0068 50.3971 34.0068C50.1375 33.9421 49.8779 33.9421 49.6183 33.9421C49.4885 33.9421 49.3587 33.9421 49.2289 33.8774H49.164C48.45 33.8126 47.6712 33.6832 46.9573 33.489C46.7626 33.4243 46.5679 33.2301 46.503 33.0359L45.9838 32.9064C46.2434 31.0292 46.1136 29.0873 45.7242 27.2101C45.2699 25.3329 44.491 23.5205 43.4526 21.9022L43.842 21.5138V21.4491C43.842 21.2549 43.9069 20.996 44.0367 20.8665C44.6208 20.3487 45.205 19.9603 45.854 19.5719C45.9838 19.5072 46.1136 19.4424 46.2434 19.3777C46.503 19.2483 46.6977 19.1188 46.9573 18.9893C47.0222 18.9246 47.0871 18.9246 47.152 18.8599C47.2169 18.7951 47.152 18.7951 47.152 18.7304C47.7361 18.2773 47.8659 17.5005 47.4116 16.9179C47.2169 16.659 46.8275 16.4648 46.503 16.4648C46.1785 16.4648 45.854 16.5943 45.5944 16.7885L45.5295 16.8532C45.4646 16.9179 45.3997 16.9827 45.3348 16.9827C45.1401 17.1769 44.9454 17.3711 44.8155 17.5653C44.7506 17.6947 44.6208 17.7594 44.5559 17.8242C44.1016 18.342 43.5175 18.8599 42.9334 19.2483C42.8036 19.313 42.6738 19.3777 42.544 19.3777C42.4791 19.3777 42.3493 19.3777 42.2844 19.313H42.2195L41.7003 19.6366C41.181 19.1188 40.5969 18.6009 40.0777 18.0831C37.6764 16.2059 34.6909 15.0408 31.6405 14.7171L31.5756 14.1993V14.264C31.3809 14.1345 31.316 13.9403 31.2511 13.7462C31.2511 13.0341 31.2511 12.3221 31.3809 11.5453V11.4806C31.3809 11.3511 31.4458 11.2217 31.4458 11.0922C31.5107 10.8333 31.5107 10.5743 31.5756 10.3154V9.92704C31.6405 9.27974 31.1213 8.63243 30.4723 8.5677C30.0829 8.50297 29.6934 8.69716 29.3689 9.02081C29.1093 9.27974 28.9795 9.60339 28.9795 9.92704V10.2507C28.9795 10.5096 29.0444 10.7685 29.1093 11.0275C29.1742 11.1569 29.1742 11.2864 29.1742 11.4158V11.4806C29.304 12.1926 29.304 12.9047 29.304 13.6814C29.2391 13.8756 29.1742 14.0698 28.9795 14.1993V14.3287L28.9146 14.8466C28.2007 14.9113 27.4868 15.0408 26.708 15.1702C23.6576 15.8175 20.8668 17.4358 18.7251 19.7014L18.3356 19.4424H18.2707C18.2058 19.4424 18.1409 19.5072 18.0111 19.5072C17.8813 19.5072 17.7515 19.4424 17.6217 19.3777C17.0376 18.9246 16.4535 18.4068 15.9992 17.8889C15.9343 17.7594 15.8045 17.6947 15.7396 17.63C15.5449 17.4358 15.4151 17.2416 15.2204 17.0474C15.1555 16.9827 15.0906 16.9827 15.0257 16.9179C14.9608 16.8532 14.9608 16.8532 14.9608 16.8532C14.7011 16.659 14.3766 16.5296 14.0521 16.5296C13.6627 16.5296 13.3382 16.659 13.1435 16.9827C12.7541 17.5653 12.8839 18.342 13.4031 18.7951C13.468 18.7951 13.468 18.8599 13.468 18.8599C13.468 18.8599 13.5978 18.9893 13.6627 18.9893C13.8574 19.1188 14.117 19.2483 14.3766 19.3777C14.5064 19.4424 14.6362 19.5072 14.766 19.5719C15.4151 19.9603 16.0641 20.3487 16.5833 20.8665C16.7131 20.996 16.8429 21.2549 16.778 21.4491V21.3844L17.1674 21.7727C17.1025 21.9022 17.0376 21.9669 16.9727 22.0964C14.9608 25.2682 14.117 29.0226 14.7011 32.7122L14.1819 32.8417C14.1819 32.9064 14.117 32.9064 14.117 32.9064C14.0521 33.1006 13.8574 33.2301 13.6627 33.3595C12.9488 33.5537 12.2349 33.6832 11.4561 33.7479C11.3263 33.7479 11.1965 33.7479 11.0667 33.8126C10.807 33.8126 10.5474 33.8774 10.2878 33.8774C10.2229 33.8774 10.158 33.9421 10.0282 33.9421C9.96332 33.9421 9.96332 33.9421 9.89842 34.0068C9.1845 34.1363 8.73019 34.7836 8.85999 35.4956C8.9898 36.0782 9.57391 36.4666 10.158 36.4019C10.2878 36.4019 10.3527 36.4019 10.4825 36.3371C10.5474 36.3371 10.5474 36.3371 10.5474 36.2724C10.5474 36.2077 10.7421 36.2724 10.807 36.2724C11.0667 36.2077 11.3263 36.0782 11.521 36.0135C11.6508 35.9487 11.7806 35.884 11.9104 35.884H11.9753C12.6892 35.6251 13.3382 35.4309 14.117 35.3014H14.1819C14.3766 35.3014 14.5713 35.3662 14.7011 35.4956C14.766 35.4956 14.766 35.5604 14.766 35.5604L15.3502 35.4956C16.3237 38.4732 18.1409 41.1272 20.6721 43.0691C21.2562 43.5222 21.7754 43.9106 22.4245 44.2343L22.0999 44.6874C22.0999 44.7521 22.1648 44.7521 22.1648 44.7521C22.2946 44.9463 22.2946 45.2052 22.2297 45.3994C21.9701 46.0467 21.5807 46.694 21.1913 47.2766V47.3413C21.1264 47.4708 21.0615 47.5355 20.9317 47.665C20.8019 47.7945 20.6721 48.0534 20.4774 48.3123C20.4125 48.377 20.4125 48.4418 20.3476 48.5065C20.3476 48.5065 20.3476 48.5712 20.2827 48.5712C19.9582 49.2185 20.2178 49.9953 20.8019 50.3189C20.9317 50.3837 21.1264 50.4484 21.2562 50.4484C21.7754 50.4484 22.2297 50.1248 22.4894 49.6716C22.4894 49.6716 22.4894 49.6069 22.5543 49.6069C22.5543 49.5422 22.6192 49.4775 22.6841 49.4127C22.749 49.1538 22.8788 48.9596 22.9437 48.7007L23.0735 48.3123C23.2682 47.6003 23.5927 46.953 23.9172 46.3056C24.047 46.1115 24.2417 45.982 24.4364 45.9173C24.5013 45.9173 24.5013 45.9173 24.5013 45.8525L24.7609 45.3347C26.5782 46.0467 28.4603 46.3704 30.4074 46.3704C31.5756 46.3704 32.7438 46.2409 33.9121 45.9173C34.626 45.7878 35.3399 45.5289 35.9889 45.3347L36.2485 45.7878C36.3134 45.7878 36.3134 45.7878 36.3134 45.8525C36.5081 45.9173 36.7028 46.0467 36.8326 46.2409C37.1571 46.8882 37.4816 47.5355 37.6764 48.2476V48.3123L37.8062 48.7007C37.8711 48.9596 37.936 49.2185 38.0658 49.4127C38.1307 49.4775 38.1307 49.5422 38.1956 49.6069C38.1956 49.6069 38.1956 49.6716 38.2605 49.6716C38.5201 50.1248 38.9744 50.4484 39.4936 50.4484C39.6883 50.4484 39.8181 50.3837 40.0128 50.3189C40.2724 50.1895 40.532 49.9306 40.5969 49.6069C40.6618 49.2833 40.6618 48.9596 40.532 48.6359C40.532 48.5712 40.4671 48.5712 40.4671 48.5712C40.4671 48.5065 40.4022 48.4418 40.3373 48.377C40.2075 48.1181 40.0777 47.9239 39.883 47.7297C39.8181 47.6003 39.7532 47.5355 39.6234 47.4061V47.2766C39.1691 46.694 38.8446 46.0467 38.585 45.3994C38.5201 45.2052 38.5201 44.9463 38.6499 44.7521C38.6499 44.6874 38.7148 44.6874 38.7148 44.6874L38.5201 44.1695C41.8301 42.1629 44.3612 39.0558 45.5295 35.3662L46.0487 35.4309C46.1136 35.4309 46.1136 35.3662 46.1136 35.3662C46.2434 35.2367 46.4381 35.172 46.6328 35.172H46.6977C47.4116 35.3014 48.1255 35.4956 48.7746 35.7546H48.8395C48.9693 35.8193 49.0991 35.884 49.2289 35.884C49.4885 36.0135 49.6832 36.1429 49.9428 36.2077C50.0077 36.2077 50.0726 36.2724 50.2024 36.2724C50.2673 36.2724 50.2673 36.2724 50.3322 36.3371C50.462 36.4019 50.5269 36.4019 50.6567 36.4019C51.2408 36.4019 51.76 36.0135 51.9547 35.4956C51.8898 34.7836 51.3706 34.2658 50.7865 34.1363ZM32.0299 32.1296L30.2776 32.9711L28.5252 32.1296L28.0709 30.2525L29.304 28.6989H31.2511L32.4842 30.2525L32.0299 32.1296ZM42.6089 27.9222C42.9334 29.2815 42.9983 30.6408 42.8685 32.0002L36.7028 30.2525C36.1187 30.123 35.7942 29.5404 35.924 28.9578C35.9889 28.7637 36.0538 28.6342 36.1836 28.5047L41.0512 24.103C41.7652 25.2682 42.2844 26.5628 42.6089 27.9222ZM39.1042 21.708L33.7823 25.4624C33.3279 25.7213 32.6789 25.6566 32.3544 25.2035C32.2246 25.074 32.1597 24.9445 32.1597 24.7504L31.7703 18.2126C34.626 18.5362 37.1571 19.7661 39.1042 21.708ZM27.357 18.4068L28.655 18.1478L28.3305 24.6209C28.3305 25.2035 27.8113 25.6566 27.2272 25.6566C27.0325 25.6566 26.9027 25.5919 26.708 25.5271L21.3211 21.708C23.0086 20.0898 25.0854 18.9246 27.357 18.4068ZM19.439 24.103L24.2417 28.3753C24.696 28.7637 24.7609 29.411 24.3715 29.8641C24.2417 30.0583 24.1119 30.123 23.8523 30.1877L17.5568 32.0002C17.3621 29.2815 18.0111 26.4981 19.439 24.103ZM18.3356 35.0425L24.7609 33.9421C25.2801 33.9421 25.7993 34.2658 25.8642 34.7836C25.9291 34.9778 25.9291 35.2367 25.7993 35.4309L23.3331 41.3861C21.0615 39.8973 19.2443 37.6317 18.3356 35.0425ZM33.0683 43.0691C32.1597 43.2633 31.2511 43.3928 30.2776 43.3928C28.9146 43.3928 27.4868 43.1339 26.1888 42.7455L29.3689 36.9844C29.6934 36.5961 30.2127 36.4666 30.667 36.7255C30.8617 36.855 30.9915 36.9844 31.1862 37.1786L34.3015 42.8102C33.9121 42.8749 33.5226 42.9397 33.0683 43.0691ZM40.9863 37.4376C40.0128 38.9911 38.6499 40.3504 37.0922 41.3214L34.5611 35.2367C34.4313 34.7189 34.6909 34.201 35.1452 34.0068C35.3399 33.9421 35.5346 33.8774 35.7293 33.8774L42.2195 34.9778C41.895 35.884 41.5056 36.7255 40.9863 37.4376Z" fill="white"/>
<path d="M316.493 42.0981C317.402 42.1628 318.376 42.0334 319.219 41.7097C319.739 41.4508 320.063 40.8682 319.998 40.2856C319.933 39.6383 319.544 39.0557 318.96 38.8616C317.986 38.279 316.883 37.7611 315.78 37.4375C314.676 37.0491 313.703 36.596 312.794 36.1429C311.95 35.7545 311.236 35.2366 310.522 34.5893C309.873 33.942 309.419 33.23 309.095 32.3885C308.705 31.4175 308.575 30.3818 308.575 29.3462C308.511 27.21 309.484 25.1387 311.172 23.844C312.924 22.4847 315.26 21.8374 318.246 21.8374C319.674 21.8374 321.166 21.9669 322.594 22.2905C323.698 22.4847 324.801 22.7436 325.904 23.132L324.671 28.6341C323.762 28.3105 322.919 28.1163 322.01 27.8573C320.972 27.5984 319.868 27.5337 318.83 27.5337C316.623 27.5337 315.52 28.1163 315.52 29.3462C315.52 29.6051 315.585 29.864 315.65 30.1229C315.78 30.3818 315.974 30.576 316.234 30.7702C316.493 30.9644 316.883 31.1586 317.337 31.4175C317.791 31.6765 318.441 31.9354 319.219 32.1943C320.517 32.6474 321.815 33.23 322.984 33.8773C323.892 34.3304 324.671 34.913 325.32 35.6897C325.904 36.2723 326.294 36.9844 326.553 37.8259C326.813 38.7321 326.943 39.6383 326.943 40.5445C327.072 42.7454 326.034 44.8815 324.152 46.1114C322.335 47.3413 319.739 47.9886 316.364 47.9886C314.481 48.0533 312.664 47.8591 310.847 47.406C309.809 47.1471 308.835 46.8234 307.862 46.4998L309.03 40.8035C310.198 41.2566 311.431 41.645 312.664 41.9039C313.962 41.9686 315.195 42.0981 316.493 42.0981ZM280.733 34.9777C280.668 33.0358 281.057 31.0939 281.706 29.2814C282.29 27.7279 283.199 26.3685 284.367 25.1387C285.47 24.0382 286.704 23.1967 288.131 22.6789C289.559 22.0963 291.052 21.8374 292.545 21.8374C296.049 21.8374 298.84 22.9378 300.852 25.0739C302.864 27.21 303.903 30.3818 303.903 34.5246C303.903 34.913 303.903 35.3661 303.838 35.8839C303.838 36.4018 303.773 36.7902 303.773 37.1786H287.937C288.066 38.5379 288.78 39.8325 289.949 40.6093C291.376 41.5155 293.064 41.9686 294.751 41.9039C295.985 41.9039 297.283 41.7744 298.516 41.5802C299.554 41.386 300.593 41.0624 301.566 40.6093L302.54 46.3056C302.085 46.5645 301.566 46.694 301.047 46.8881C300.333 47.0823 299.619 47.2765 298.905 47.3413C298.126 47.4707 297.347 47.6002 296.439 47.7296C295.595 47.7944 294.686 47.8591 293.778 47.8591C291.766 47.9238 289.819 47.6002 287.937 46.8881C286.379 46.3056 285.016 45.3993 283.848 44.2342C282.745 43.069 281.966 41.645 281.447 40.1562C280.992 38.4084 280.733 36.6607 280.733 34.9777ZM297.153 32.3238C297.153 31.7412 297.023 31.1586 296.828 30.576C296.698 29.9935 296.374 29.5403 296.049 29.0872C295.66 28.6341 295.206 28.2457 294.686 27.9868C294.037 27.6632 293.388 27.5337 292.675 27.5337C291.961 27.5337 291.312 27.6632 290.663 27.9868C290.143 28.2457 289.624 28.5694 289.235 29.0225C288.845 29.4756 288.521 29.9935 288.326 30.576C288.131 31.1586 288.002 31.7412 287.937 32.3238H297.153ZM261.716 16.2706L268.726 15.1701V22.42H277.163V28.2457H268.726V36.9196C268.661 38.1495 268.92 39.3794 269.505 40.4151C270.024 41.2566 271.062 41.7097 272.685 41.7097C273.464 41.7097 274.242 41.645 274.956 41.5155C275.735 41.386 276.449 41.1919 277.163 40.9329L278.137 46.3703C277.228 46.7587 276.254 47.0176 275.281 47.2765C274.048 47.5355 272.75 47.6649 271.452 47.6649C269.829 47.7296 268.207 47.4707 266.714 46.8881C265.546 46.435 264.507 45.6583 263.728 44.752C262.95 43.7811 262.43 42.6159 262.106 41.386C261.781 39.962 261.651 38.4732 261.716 37.0491V16.2706ZM233.354 34.9777C233.289 33.0358 233.679 31.0939 234.328 29.2814C234.912 27.7279 235.821 26.3685 236.989 25.1387C238.092 24.0382 239.325 23.1967 240.753 22.6789C242.181 22.0963 243.674 21.8374 245.166 21.8374C248.671 21.8374 251.462 22.9378 253.474 25.0739C255.486 27.21 256.524 30.3818 256.524 34.5246C256.524 34.913 256.524 35.3661 256.459 35.8839C256.394 36.4018 256.394 36.7902 256.394 37.1786H240.494C240.623 38.5379 241.337 39.8325 242.505 40.6093C243.933 41.5155 245.621 41.9686 247.308 41.9039C248.541 41.9039 249.839 41.7744 251.073 41.5802C252.111 41.386 253.149 41.0624 254.188 40.6093L255.161 46.3056C254.707 46.5645 254.188 46.694 253.669 46.8881C252.955 47.0823 252.241 47.2765 251.527 47.3413C250.748 47.4707 249.969 47.6002 249.061 47.7296C248.217 47.7944 247.308 47.8591 246.4 47.8591C244.388 47.9238 242.441 47.6002 240.558 46.8881C239.001 46.3056 237.638 45.3993 236.47 44.2342C235.366 43.069 234.587 41.645 234.068 40.1562C233.549 38.4084 233.289 36.6607 233.354 34.9777ZM249.774 32.3238C249.774 31.7412 249.645 31.1586 249.45 30.576C249.32 29.9935 248.996 29.5403 248.671 29.0872C248.282 28.6341 247.827 28.2457 247.308 27.9868C246.659 27.6632 246.01 27.5337 245.296 27.5337C244.582 27.5337 243.933 27.6632 243.284 27.9868C242.765 28.2457 242.311 28.5694 241.921 29.0225C241.532 29.4756 241.207 29.9935 241.013 30.576C240.818 31.1586 240.688 31.7412 240.623 32.3238H249.774ZM206.745 23.2615C208.237 22.8731 209.795 22.5494 211.353 22.2905C213.3 21.9669 215.312 21.8374 217.259 21.8374C219.011 21.7727 220.763 22.0963 222.451 22.6789C223.749 23.132 224.917 23.9088 225.761 24.9445C226.605 25.9802 227.189 27.21 227.513 28.5047C227.903 29.9935 228.032 31.547 228.032 33.1005V47.0176H221.088V34.0068C221.088 31.7412 220.763 30.1876 220.179 29.2167C219.595 28.3105 218.492 27.7926 216.869 27.7926C216.35 27.7926 215.831 27.7926 215.247 27.8573C214.663 27.8573 214.208 27.9221 213.754 27.9868V47.0176H206.745V23.2615ZM201.812 28.6341C201.163 28.5047 200.449 28.3105 199.605 28.181C198.697 27.9868 197.788 27.9221 196.88 27.9221C196.36 27.9221 195.841 27.9868 195.257 28.0515C194.803 28.1163 194.348 28.181 193.894 28.3105V47.1471H186.885V23.7146C188.313 23.1967 189.805 22.8084 191.298 22.4847C193.18 22.0316 195.127 21.8374 197.009 21.9021C197.464 21.9021 197.918 21.9669 198.372 21.9669C198.892 21.9669 199.411 22.0316 199.995 22.1611C200.514 22.2258 201.033 22.2905 201.617 22.42C202.072 22.4847 202.526 22.6142 202.98 22.8084L201.812 28.6341ZM158.263 34.9777C158.198 33.0358 158.588 31.0939 159.237 29.2814C159.821 27.7279 160.729 26.3685 161.898 25.1387C163.001 24.0382 164.234 23.1967 165.662 22.6789C167.09 22.0963 168.582 21.8374 170.075 21.8374C173.58 21.8374 176.371 22.9378 178.383 25.0739C180.395 27.21 181.433 30.3818 181.433 34.4599C181.433 34.8483 181.433 35.3014 181.368 35.8192C181.303 36.3371 181.303 36.7254 181.303 37.1138H165.402C165.532 38.4732 166.246 39.7678 167.414 40.5445C168.842 41.4508 170.529 41.9039 172.217 41.8392C173.45 41.8392 174.748 41.7097 175.981 41.5155C177.02 41.3213 178.058 40.9977 179.032 40.6093L180.005 46.3056C179.551 46.5645 179.032 46.694 178.512 46.8881C177.798 47.0823 177.085 47.2765 176.371 47.3413C175.592 47.4707 174.813 47.6002 173.904 47.7296C173.061 47.7944 172.152 47.8591 171.243 47.8591C169.231 47.9238 167.284 47.6002 165.402 46.8881C163.845 46.3056 162.482 45.3993 161.313 44.2342C160.21 43.069 159.431 41.645 158.912 40.1562C158.523 38.4084 158.263 36.7254 158.263 34.9777ZM174.748 32.3238C174.748 31.7412 174.618 31.1586 174.424 30.576C174.294 29.9935 173.969 29.5403 173.645 29.0872C173.255 28.6341 172.801 28.2457 172.282 27.9868C171.633 27.6632 170.984 27.5337 170.27 27.5337C169.556 27.5337 168.907 27.6632 168.258 27.9868C167.739 28.2457 167.219 28.5694 166.83 29.0225C166.441 29.4756 166.116 29.9935 165.921 30.576C165.727 31.1586 165.597 31.7412 165.532 32.3238H174.748ZM146.905 34.5893C146.905 30.0582 145.218 27.8573 141.908 27.8573C141.194 27.8573 140.48 27.9221 139.766 28.1163C139.182 28.2457 138.598 28.5047 138.079 28.8283V41.5155C138.403 41.5802 138.857 41.645 139.377 41.7097C139.896 41.7744 140.48 41.7744 141.129 41.7744C142.816 41.9039 144.439 41.1919 145.477 39.8325C146.451 38.279 146.97 36.4665 146.905 34.5893ZM154.044 34.8483C154.044 36.6607 153.785 38.4732 153.136 40.2209C152.617 41.7744 151.773 43.1338 150.67 44.2989C149.501 45.4641 148.138 46.3703 146.646 46.9529C144.893 47.6002 143.076 47.8591 141.194 47.8591C140.35 47.8591 139.442 47.7944 138.533 47.7296C137.624 47.6649 136.716 47.5355 135.807 47.4707C134.963 47.3413 134.12 47.2118 133.276 47.0176C132.432 46.8881 131.718 46.694 131.134 46.435V11.8042L138.143 10.7037V23.0026C138.922 22.6789 139.766 22.42 140.61 22.2258C141.518 22.0316 142.427 21.9669 143.336 21.9669C144.958 21.9669 146.516 22.2258 148.009 22.9378C149.307 23.5204 150.475 24.4266 151.383 25.527C152.357 26.7569 153.071 28.1163 153.46 29.6051C153.85 31.2233 154.044 33.0358 154.044 34.8483ZM124.449 46.2408C122.956 46.6292 121.399 46.9529 119.841 47.1471C117.894 47.4707 115.882 47.6002 113.935 47.6002C112.118 47.6649 110.366 47.3413 108.678 46.7587C107.38 46.2408 106.277 45.4641 105.368 44.4284C104.524 43.328 103.94 42.0981 103.616 40.7387C103.226 39.2499 103.097 37.6317 103.097 36.0781V22.42H110.106V35.3014C110.106 37.5669 110.43 39.1852 111.015 40.1562C111.599 41.1271 112.702 41.645 114.325 41.645C114.844 41.645 115.363 41.645 115.947 41.5802C116.531 41.5155 116.986 41.5155 117.44 41.386V22.42H124.449V46.2408ZM83.5611 31.3528C84.2751 30.576 84.9241 29.7993 85.7029 29.0225C86.4168 28.181 87.1307 27.4042 87.8447 26.6275C88.5586 25.786 89.2076 25.0739 89.7917 24.3619C90.3758 23.6499 90.9599 23.0026 91.4142 22.4847H99.7217C98.0342 24.3619 96.4117 26.2391 94.854 27.9868C93.2315 29.7345 91.5441 31.547 89.6619 33.3594C90.7003 34.3304 91.6739 35.3014 92.5825 36.4018C93.556 37.5669 94.5295 38.7321 95.5031 40.0267C96.4117 41.2566 97.3203 42.5512 98.0991 43.7811C98.878 45.011 99.527 46.1761 100.046 47.2118H91.9984C91.4792 46.3703 90.895 45.5288 90.246 44.5578C89.597 43.5869 88.8831 42.6159 88.2341 41.5802C87.5201 40.6093 86.7413 39.6383 85.8976 38.7321C85.1837 37.8906 84.4049 37.1138 83.5611 36.4665V47.2765H76.5518V11.8042L83.5611 10.7037V31.3528Z" fill="white"/>
</svg>
