<svg width="221" height="36" viewBox="0 0 221 36" fill="none" xmlns="http://www.w3.org/2000/svg">
<g clip-path="url(#clip0_43_3560)">
<path d="M0.807617 28V2.80005H11.0676C12.8196 2.80005 14.4636 3.13605 15.9996 3.80805C17.5596 4.45605 18.9036 5.34405 20.0316 6.47205C21.1836 7.60005 22.0836 8.94405 22.7316 10.504C23.4036 12.04 23.7396 13.696 23.7396 15.472C23.7396 17.2 23.4036 18.832 22.7316 20.368C22.0836 21.904 21.1836 23.236 20.0316 24.364C18.9036 25.492 17.5596 26.38 15.9996 27.028C14.4636 27.676 12.8196 28 11.0676 28H0.807617ZM11.0676 8.09205H6.99962V22.708H11.0676C11.9316 22.708 12.7476 22.528 13.5156 22.168C14.2836 21.784 14.9436 21.2681 15.4956 20.6201C16.0716 19.9721 16.5156 19.204 16.8276 18.316C17.1636 17.428 17.3316 16.48 17.3316 15.472C17.3316 14.44 17.1636 13.48 16.8276 12.592C16.5156 11.68 16.0716 10.9 15.4956 10.252C14.9436 9.58005 14.2836 9.05205 13.5156 8.66805C12.7476 8.28405 11.9316 8.09205 11.0676 8.09205ZM44.3952 25.372C43.1952 26.428 41.9832 27.1961 40.7592 27.6761C39.5352 28.1321 38.1432 28.3601 36.5832 28.3601C35.2152 28.3601 33.9312 28.12 32.7312 27.64C31.5552 27.136 30.5232 26.452 29.6352 25.588C28.7472 24.724 28.0512 23.704 27.5472 22.528C27.0432 21.352 26.7912 20.092 26.7912 18.748C26.7912 17.38 27.0312 16.108 27.5112 14.932C27.9912 13.756 28.6392 12.736 29.4552 11.872C30.2952 11.008 31.2912 10.336 32.4432 9.85605C33.5952 9.35205 34.8312 9.10005 36.1512 9.10005C37.4952 9.10005 38.7192 9.35205 39.8232 9.85605C40.9512 10.336 41.9112 11.008 42.7032 11.872C43.5192 12.736 44.1552 13.78 44.6112 15.004C45.0672 16.204 45.2952 17.5241 45.2952 18.9641V20.2241H32.5152C32.7792 21.2561 33.3072 22.096 34.0992 22.744C34.8912 23.392 35.8152 23.716 36.8712 23.716C37.6392 23.716 38.3352 23.584 38.9592 23.32C39.6072 23.056 40.1352 22.672 40.5432 22.168L44.3952 25.372ZM36.1152 13.636C35.2032 13.636 34.4352 13.924 33.8112 14.5C33.1872 15.076 32.7552 15.88 32.5152 16.912H39.8952C39.6552 15.904 39.1992 15.112 38.5272 14.536C37.8552 13.936 37.0512 13.636 36.1152 13.636ZM53.9045 28L46.3805 9.42405H52.7165L56.9285 21.088L61.1765 9.42405H67.1885L59.5925 28H53.9045ZM68.3459 18.748C68.3459 17.38 68.5859 16.108 69.0659 14.932C69.5699 13.756 70.2539 12.748 71.1179 11.908C71.9819 11.044 73.0019 10.372 74.1779 9.89205C75.3779 9.38805 76.6619 9.13605 78.0299 9.13605C79.3979 9.13605 80.6819 9.38805 81.8819 9.89205C83.0819 10.372 84.1139 11.044 84.9779 11.908C85.8419 12.748 86.5139 13.756 86.9939 14.932C87.4979 16.108 87.7499 17.38 87.7499 18.748C87.7499 20.116 87.4979 21.388 86.9939 22.564C86.4899 23.74 85.8059 24.7601 84.9419 25.6241C84.0779 26.4641 83.0459 27.136 81.8459 27.64C80.6699 28.12 79.3979 28.3601 78.0299 28.3601C76.6619 28.3601 75.3779 28.12 74.1779 27.64C73.0019 27.136 71.9819 26.452 71.1179 25.588C70.2539 24.724 69.5699 23.704 69.0659 22.528C68.5859 21.352 68.3459 20.092 68.3459 18.748ZM78.0299 23.428C79.2059 23.428 80.1659 22.996 80.9099 22.132C81.6779 21.244 82.0619 20.116 82.0619 18.748C82.0619 17.38 81.6779 16.252 80.9099 15.364C80.1659 14.452 79.2059 13.996 78.0299 13.996C76.8539 13.996 75.8939 14.452 75.1499 15.364C74.4059 16.252 74.0339 17.38 74.0339 18.748C74.0339 20.116 74.4059 21.244 75.1499 22.132C75.8939 22.996 76.8539 23.428 78.0299 23.428ZM91.4629 35.7401V9.42405H97.2229V12.016C97.8229 11.2 98.6149 10.552 99.5989 10.072C100.583 9.56805 101.627 9.31605 102.731 9.31605C103.859 9.31605 104.927 9.56805 105.935 10.072C106.943 10.552 107.807 11.224 108.527 12.088C109.271 12.928 109.859 13.924 110.291 15.076C110.723 16.228 110.939 17.452 110.939 18.748C110.939 20.044 110.711 21.268 110.255 22.42C109.823 23.548 109.211 24.532 108.419 25.372C107.651 26.212 106.739 26.8841 105.683 27.3881C104.627 27.8681 103.499 28.108 102.299 28.108C101.291 28.108 100.355 27.9281 99.4909 27.5681C98.6269 27.1841 97.8949 26.644 97.2949 25.948V35.7401H91.4629ZM100.787 14.14C100.067 14.14 99.4189 14.272 98.8429 14.536C98.2669 14.776 97.7509 15.148 97.2949 15.652V21.844C97.7509 22.3 98.2789 22.66 98.8789 22.924C99.4789 23.188 100.115 23.32 100.787 23.32C102.059 23.32 103.115 22.888 103.955 22.024C104.795 21.136 105.215 20.032 105.215 18.712C105.215 17.416 104.783 16.336 103.919 15.472C103.079 14.584 102.035 14.14 100.787 14.14ZM113.119 26.092L115.675 22.2041C116.995 22.9001 118.099 23.392 118.987 23.68C119.875 23.944 120.763 24.076 121.651 24.076C122.467 24.076 123.115 23.944 123.595 23.68C124.075 23.392 124.315 23.02 124.315 22.564C124.315 22.204 124.171 21.9161 123.883 21.7001C123.619 21.4841 123.187 21.328 122.587 21.232L119.023 20.584C117.223 20.248 115.855 19.624 114.919 18.712C114.007 17.8 113.551 16.624 113.551 15.184C113.551 13.288 114.235 11.8 115.603 10.72C116.995 9.64005 118.903 9.10005 121.327 9.10005C122.623 9.10005 123.907 9.28005 125.179 9.64005C126.451 10 127.687 10.528 128.887 11.224L126.223 14.932C125.287 14.404 124.375 14.008 123.487 13.744C122.623 13.48 121.759 13.348 120.895 13.348C120.199 13.348 119.647 13.468 119.239 13.708C118.855 13.924 118.663 14.236 118.663 14.644C118.663 15.028 118.795 15.316 119.059 15.508C119.347 15.7 119.851 15.856 120.571 15.976L124.063 16.624C125.887 16.96 127.279 17.596 128.239 18.532C129.199 19.444 129.667 20.5961 129.643 21.9881C129.643 22.9001 129.439 23.7521 129.031 24.5441C128.647 25.3121 128.095 25.984 127.375 26.56C126.655 27.112 125.803 27.556 124.819 27.892C123.835 28.204 122.779 28.3601 121.651 28.3601C119.971 28.3601 118.399 28.168 116.935 27.784C115.471 27.4 114.199 26.836 113.119 26.092Z" fill="white"/>
<path d="M131.506 8.09208V2.80008H153.934V8.09208H145.834V28.0001H139.642V8.09208H131.506ZM155.694 28.0001V9.42408H161.526V13.6361C162.126 12.1001 162.834 10.9601 163.65 10.2161C164.49 9.44808 165.462 9.06408 166.566 9.06408C166.974 9.08808 167.31 9.13608 167.574 9.20808C167.838 9.25608 168.15 9.36408 168.51 9.53208V14.5361C168.15 14.3681 167.73 14.2361 167.25 14.1401C166.77 14.0201 166.278 13.9601 165.774 13.9601C164.91 13.9601 164.094 14.1761 163.326 14.6081C162.582 15.0161 161.982 15.5681 161.526 16.2641V28.0001H155.694ZM176.812 28.2881C174.94 28.2881 173.404 27.7721 172.204 26.7401C171.004 25.6841 170.404 24.3281 170.404 22.6721C170.404 20.9681 171.04 19.6481 172.312 18.7121C173.584 17.7521 175.36 17.2721 177.64 17.2721C178.312 17.2721 178.996 17.3441 179.692 17.4881C180.388 17.6081 181.144 17.8241 181.96 18.1361V16.6241C181.96 15.7361 181.648 15.0641 181.024 14.6081C180.424 14.1521 179.512 13.9241 178.288 13.9241C177.592 13.9241 176.812 14.0321 175.948 14.2481C175.108 14.4401 174.148 14.7641 173.068 15.2201L171.052 11.1521C172.564 10.4801 174.016 9.97608 175.408 9.64008C176.824 9.30408 178.216 9.13608 179.584 9.13608C182.152 9.13608 184.144 9.74808 185.56 10.9721C187 12.1961 187.72 13.9121 187.72 16.1201V28.0001H181.96V26.3801C181.144 27.0521 180.328 27.5441 179.512 27.8561C178.696 28.1441 177.796 28.2881 176.812 28.2881ZM175.768 22.5641C175.768 23.1641 176.02 23.6321 176.524 23.9681C177.028 24.2801 177.724 24.4361 178.612 24.4361C179.212 24.4361 179.788 24.3641 180.34 24.2201C180.916 24.0521 181.456 23.8121 181.96 23.5001V21.1241C181.432 21.0041 180.892 20.9081 180.34 20.8361C179.812 20.7641 179.284 20.7281 178.756 20.7281C177.796 20.7281 177.052 20.8841 176.524 21.1961C176.02 21.5081 175.768 21.9641 175.768 22.5641ZM195.032 6.54408C194.12 6.54408 193.34 6.23208 192.692 5.60808C192.068 4.96008 191.756 4.19208 191.756 3.30408C191.756 2.41608 192.08 1.64808 192.728 1.00007C193.376 0.352076 194.144 0.0280762 195.032 0.0280762C195.92 0.0280762 196.688 0.352076 197.336 1.00007C198.008 1.64808 198.344 2.41608 198.344 3.30408C198.344 4.19208 198.02 4.96008 197.372 5.60808C196.748 6.23208 195.968 6.54408 195.032 6.54408ZM197.948 9.42408V28.0001H192.116V9.42408H197.948ZM202.487 28.0001V9.42408H208.319V12.4481C209.039 11.3681 209.891 10.5521 210.875 10.0001C211.883 9.42408 212.987 9.13608 214.187 9.13608C215.987 9.13608 217.463 9.73608 218.615 10.9361C219.767 12.1121 220.343 13.6241 220.343 15.4721V28.0001H214.511V17.1641C214.511 16.1321 214.223 15.3041 213.647 14.6801C213.095 14.0321 212.351 13.7081 211.415 13.7081C210.791 13.7081 210.215 13.8401 209.687 14.1041C209.183 14.3441 208.727 14.7281 208.319 15.2561V28.0001H202.487Z" fill="#A46CFF"/>
</g>
<defs>
<clipPath id="clip0_43_3560">
<rect width="221" height="36" fill="white"/>
</clipPath>
</defs>
</svg>
