<svg width="281" height="415" viewBox="0 0 281 415" fill="none" xmlns="http://www.w3.org/2000/svg">
<g opacity="0.8">
<path d="M160.108 4.06829C160.108 2.18166 157.164 2.18166 157.164 4.06829C157.164 5.95493 160.108 5.95493 160.108 4.06829Z" fill="url(#paint0_radial_58_957)"/>
<path d="M198.737 36.8486C198.737 34.9619 195.793 34.9619 195.793 36.8486C195.793 38.7352 198.737 38.7352 198.737 36.8486Z" fill="url(#paint1_radial_58_957)"/>
<path d="M142.443 40.091C142.443 38.2044 139.499 38.2044 139.499 40.091C139.499 41.9776 142.443 41.9776 142.443 40.091Z" fill="url(#paint2_radial_58_957)"/>
<path d="M247.848 87.3154C247.848 85.4287 244.903 85.4287 244.903 87.3154C244.903 89.202 247.848 89.202 247.848 87.3154Z" fill="url(#paint3_radial_58_957)"/>
<path d="M112.294 81.4199C112.294 79.5332 109.35 79.5332 109.35 81.4199C109.35 83.3065 112.294 83.3065 112.294 81.4199Z" fill="url(#paint4_radial_58_957)"/>
<path d="M31.7393 94.5087C31.7393 92.6221 28.795 92.6221 28.795 94.5087C28.795 96.3954 31.7393 96.3954 31.7393 94.5087Z" fill="url(#paint5_radial_58_957)"/>
<path d="M130.607 356.75C130.607 354.863 127.663 354.863 127.663 356.75C127.663 358.637 130.607 358.637 130.607 356.75Z" fill="url(#paint6_radial_58_957)"/>
<path d="M173.829 328.568C173.829 326.682 170.885 326.682 170.885 328.568C170.885 330.455 173.829 330.455 173.829 328.568Z" fill="url(#paint7_radial_58_957)"/>
<path d="M230.182 336.41C230.182 334.523 227.237 334.523 227.237 336.41C227.237 338.296 230.182 338.355 230.182 336.41Z" fill="url(#paint8_radial_58_957)"/>
<path d="M167.293 409.871C167.293 407.984 164.349 407.984 164.349 409.871C164.349 411.758 167.293 411.758 167.293 409.871Z" fill="url(#paint9_radial_58_957)"/>
<path d="M101.812 380.981C101.813 379.095 98.8682 379.095 98.8682 380.981C98.8682 382.927 101.812 382.927 101.812 380.981Z" fill="url(#paint10_radial_58_957)"/>
<path d="M14.7217 316.129C14.7217 314.242 11.7774 314.242 11.7774 316.129C11.7774 318.015 14.7217 318.015 14.7217 316.129Z" fill="url(#paint11_radial_58_957)"/>
<path d="M275.995 375.086C275.995 373.199 273.051 373.199 273.051 375.086C273.051 377.031 275.995 377.031 275.995 375.086Z" fill="url(#paint12_radial_58_957)"/>
<path d="M267.456 313.476C267.456 311.589 264.512 311.589 264.512 313.476C264.512 315.362 267.456 315.362 267.456 313.476Z" fill="url(#paint13_radial_58_957)"/>
<path d="M268.104 140.436C268.104 138.55 265.16 138.55 265.16 140.436C265.16 142.323 268.104 142.323 268.104 140.436Z" fill="url(#paint14_radial_58_957)"/>
<path d="M272.697 66.3268C272.697 64.4402 269.753 64.4402 269.753 66.3268C269.753 68.2135 272.697 68.2135 272.697 66.3268Z" fill="url(#paint15_radial_58_957)"/>
<path d="M199.385 1.41497C199.385 -0.471658 196.441 -0.471658 196.441 1.41497C196.441 3.30161 199.385 3.30161 199.385 1.41497Z" fill="url(#paint16_radial_58_957)"/>
<path d="M47.4619 86.6672C47.4619 84.7805 44.5177 84.7805 44.5177 86.6672C44.5177 88.5538 47.4619 88.5538 47.4619 86.6672Z" fill="url(#paint17_radial_58_957)"/>
<path d="M81.4971 99.7555C81.4971 97.8689 78.5528 97.8689 78.5528 99.7555C78.5528 101.642 81.4971 101.642 81.4971 99.7555Z" fill="url(#paint18_radial_58_957)"/>
<path d="M48.1094 106.3C48.1094 104.413 45.1651 104.413 45.1651 106.3C45.1651 108.187 48.1094 108.246 48.1094 106.3Z" fill="url(#paint19_radial_58_957)"/>
<path d="M2.94434 293.136C2.94434 291.249 7.77451e-05 291.249 7.76626e-05 293.136C7.75776e-05 295.081 2.94434 295.081 2.94434 293.136Z" fill="url(#paint20_radial_58_957)"/>
<path d="M74.3125 343.662C74.3125 341.775 71.3682 341.775 71.3682 343.662C71.3682 345.549 74.3125 345.549 74.3125 343.662Z" fill="url(#paint21_radial_58_957)"/>
<path d="M176.891 12.5582C176.891 11.7918 175.713 11.7918 175.713 12.5582C175.713 13.3247 176.891 13.3247 176.891 12.5582Z" fill="url(#paint22_radial_58_957)"/>
<path d="M195.852 21.7555C195.852 20.9891 194.674 20.9891 194.674 21.7555C194.674 22.5219 195.852 22.5219 195.852 21.7555Z" fill="url(#paint23_radial_58_957)"/>
<path d="M152.689 49.9371C152.689 49.1707 151.512 49.1707 151.512 49.9371C151.512 50.7036 152.689 50.7036 152.689 49.9371Z" fill="url(#paint24_radial_58_957)"/>
<path d="M112.706 31.601C112.706 30.8345 111.528 30.8345 111.528 31.601C111.528 32.3674 112.706 32.3674 112.706 31.601Z" fill="url(#paint25_radial_58_957)"/>
<path d="M111.41 68.9205C111.41 68.1541 110.232 68.1541 110.232 68.9205C110.232 69.687 111.41 69.687 111.41 68.9205Z" fill="url(#paint26_radial_58_957)"/>
<path d="M162.464 84.014C162.464 83.2476 161.286 83.2476 161.286 84.014C161.286 84.7805 162.464 84.7805 162.464 84.014Z" fill="url(#paint27_radial_58_957)"/>
<path d="M224.058 74.1686C224.058 73.4021 222.88 73.4021 222.88 74.1686C222.88 74.935 224.058 74.935 224.058 74.1686Z" fill="url(#paint28_radial_58_957)"/>
<path d="M252.853 66.3268C252.853 65.5603 251.675 65.5603 251.675 66.3268C251.675 67.0932 252.853 67.0932 252.853 66.3268Z" fill="url(#paint29_radial_58_957)"/>
<path d="M260.685 93.86C260.685 93.0935 259.507 93.0935 259.507 93.86C259.507 94.6264 260.685 94.6264 260.685 93.86Z" fill="url(#paint30_radial_58_957)"/>
<path d="M248.26 109.601C248.26 108.835 247.082 108.835 247.082 109.601C247.082 110.368 248.26 110.368 248.26 109.601Z" fill="url(#paint31_radial_58_957)"/>
<path d="M261.332 112.844C261.332 112.078 260.154 112.078 260.154 112.844C260.154 113.611 261.332 113.611 261.332 112.844Z" fill="url(#paint32_radial_58_957)"/>
<path d="M229.946 105.003C229.946 104.236 228.769 104.236 228.769 105.003C228.769 105.769 229.946 105.769 229.946 105.003Z" fill="url(#paint33_radial_58_957)"/>
<path d="M30.8555 24.9979C30.8555 24.2315 29.6778 24.2315 29.6778 24.9979C29.6778 25.7644 30.8555 25.7644 30.8555 24.9979Z" fill="url(#paint34_radial_58_957)"/>
<path d="M45.2822 26.3541C45.2822 25.5877 44.1045 25.5877 44.1045 26.3541C44.1045 27.1206 45.2822 27.1206 45.2822 26.3541Z" fill="url(#paint35_radial_58_957)"/>
<path d="M45.2822 18.4535C45.2822 17.6871 44.1045 17.6871 44.1045 18.4535C44.1045 19.2199 45.2822 19.2199 45.2822 18.4535Z" fill="url(#paint36_radial_58_957)"/>
<path d="M51.1709 379.036C51.1709 378.269 49.9932 378.269 49.9932 379.036C49.9932 379.802 51.1709 379.802 51.1709 379.036Z" fill="url(#paint37_radial_58_957)"/>
<path d="M70.1318 392.832C70.1318 392.065 68.9541 392.065 68.9541 392.832C68.9541 393.539 70.1318 393.539 70.1318 392.832Z" fill="url(#paint38_radial_58_957)"/>
<path d="M72.7822 376.442C72.7822 375.676 71.6045 375.676 71.6045 376.442C71.6045 377.15 72.7822 377.208 72.7822 376.442Z" fill="url(#paint39_radial_58_957)"/>
<path d="M84.5586 392.832C84.5586 392.065 83.3809 392.065 83.3809 392.832C83.3809 393.539 84.5586 393.539 84.5586 392.832Z" fill="url(#paint40_radial_58_957)"/>
<path d="M76.0801 414.469C76.0801 413.703 74.9024 413.703 74.9024 414.469C74.9024 415.177 76.0801 415.177 76.0801 414.469Z" fill="url(#paint41_radial_58_957)"/>
<path d="M208.336 365.948C208.336 365.181 207.158 365.181 207.158 365.948C207.158 366.714 208.336 366.714 208.336 365.948Z" fill="url(#paint42_radial_58_957)"/>
<path d="M223.352 393.481C223.352 392.715 222.174 392.715 222.174 393.481C222.174 394.248 223.352 394.248 223.352 393.481Z" fill="url(#paint43_radial_58_957)"/>
<path d="M189.315 381.689C189.315 380.923 188.138 380.923 188.138 381.689C188.138 382.397 189.315 382.397 189.315 381.689Z" fill="url(#paint44_radial_58_957)"/>
<path d="M147.448 375.734C147.448 374.968 146.271 374.968 146.271 375.734C146.271 376.5 147.448 376.5 147.448 375.734Z" fill="url(#paint45_radial_58_957)"/>
<path d="M158.577 341.657C158.577 340.89 157.399 340.89 157.399 341.657C157.399 342.423 158.577 342.423 158.577 341.657Z" fill="url(#paint46_radial_58_957)"/>
<path d="M188.668 344.31C188.668 343.544 187.49 343.544 187.49 344.31C187.49 345.077 188.668 345.077 188.668 344.31Z" fill="url(#paint47_radial_58_957)"/>
<path d="M180.836 325.267C180.836 324.501 179.658 324.501 179.658 325.267C179.658 326.033 180.836 326.033 180.836 325.267Z" fill="url(#paint48_radial_58_957)"/>
<path d="M195.204 331.163C195.204 330.396 194.026 330.396 194.026 331.163C194.026 331.929 195.204 331.929 195.204 331.163Z" fill="url(#paint49_radial_58_957)"/>
<path d="M203.095 344.31C203.095 343.544 201.917 343.544 201.917 344.31C201.917 345.077 203.095 345.077 203.095 344.31Z" fill="url(#paint50_radial_58_957)"/>
<path d="M210.927 335.113C210.927 334.346 209.749 334.346 209.749 335.113C209.749 335.879 210.927 335.879 210.927 335.113Z" fill="url(#paint51_radial_58_957)"/>
<path d="M254.796 328.569C254.796 327.803 253.618 327.803 253.618 328.569C253.618 329.335 254.796 329.335 254.796 328.569Z" fill="url(#paint52_radial_58_957)"/>
<path d="M281 363.295C281 362.528 279.822 362.528 279.822 363.295C279.822 364.061 281 364.061 281 363.295Z" fill="url(#paint53_radial_58_957)"/>
<path d="M263.334 392.832C263.334 392.065 262.156 392.065 262.156 392.832C262.156 393.539 263.334 393.539 263.334 392.832Z" fill="url(#paint54_radial_58_957)"/>
<path d="M267.221 401.97C267.221 401.204 266.043 401.204 266.043 401.97C266.043 402.737 267.221 402.737 267.221 401.97Z" fill="url(#paint55_radial_58_957)"/>
<path d="M266.573 253.163C266.573 252.396 265.396 252.396 265.396 253.163C265.396 253.929 266.573 253.929 266.573 253.163Z" fill="url(#paint56_radial_58_957)"/>
<path d="M254.148 244.672C254.148 243.906 252.971 243.906 252.971 244.672C252.971 245.38 254.148 245.38 254.148 244.672Z" fill="url(#paint57_radial_58_957)"/>
<path d="M267.221 237.421C267.221 236.654 266.043 236.654 266.043 237.421C266.043 238.187 267.221 238.187 267.221 237.421Z" fill="url(#paint58_radial_58_957)"/>
<path d="M256.798 222.328C256.798 221.561 255.62 221.561 255.62 222.328C255.62 223.094 256.798 223.094 256.798 222.328Z" fill="url(#paint59_radial_58_957)"/>
<path d="M139.558 291.19C139.558 290.424 138.38 290.424 138.38 291.19C138.38 291.957 139.558 291.957 139.558 291.19Z" fill="url(#paint60_radial_58_957)"/>
<path d="M116.004 271.498C116.004 270.731 114.826 270.731 114.826 271.498C114.826 272.264 116.004 272.264 116.004 271.498Z" fill="url(#paint61_radial_58_957)"/>
<path d="M125.189 301.036C125.189 300.269 124.012 300.269 124.012 301.036C124.012 301.802 125.189 301.802 125.189 301.036Z" fill="url(#paint62_radial_58_957)"/>
</g>
<defs>
<radialGradient id="paint0_radial_58_957" cx="0" cy="0" r="1" gradientUnits="userSpaceOnUse" gradientTransform="translate(158.621 4.04642) rotate(90) scale(1.44905 1.44728)">
<stop offset="0.148" stop-color="#6CBEFC"/>
<stop offset="0.3226" stop-color="#66B3E6" stop-opacity="0.7951"/>
<stop offset="0.5865" stop-color="#5EA6CB" stop-opacity="0.4854"/>
<stop offset="0.8209" stop-color="#5A9EBB" stop-opacity="0.2103"/>
<stop offset="1" stop-color="#589BB5" stop-opacity="0"/>
</radialGradient>
<radialGradient id="paint1_radial_58_957" cx="0" cy="0" r="1" gradientUnits="userSpaceOnUse" gradientTransform="translate(197.253 36.8258) rotate(90) scale(1.44905 1.44728)">
<stop offset="0.148" stop-color="#6CBEFC"/>
<stop offset="0.3226" stop-color="#66B3E6" stop-opacity="0.7951"/>
<stop offset="0.5865" stop-color="#5EA6CB" stop-opacity="0.4854"/>
<stop offset="0.8209" stop-color="#5A9EBB" stop-opacity="0.2103"/>
<stop offset="1" stop-color="#589BB5" stop-opacity="0"/>
</radialGradient>
<radialGradient id="paint2_radial_58_957" cx="0" cy="0" r="1" gradientUnits="userSpaceOnUse" gradientTransform="translate(140.942 40.1034) rotate(90) scale(1.44905 1.44728)">
<stop offset="0.148" stop-color="#6CBEFC"/>
<stop offset="0.3226" stop-color="#66B3E6" stop-opacity="0.7951"/>
<stop offset="0.5865" stop-color="#5EA6CB" stop-opacity="0.4854"/>
<stop offset="0.8209" stop-color="#5A9EBB" stop-opacity="0.2103"/>
<stop offset="1" stop-color="#589BB5" stop-opacity="0"/>
</radialGradient>
<radialGradient id="paint3_radial_58_957" cx="0" cy="0" r="1" gradientUnits="userSpaceOnUse" gradientTransform="translate(246.362 87.3053) rotate(90) scale(1.44905 1.44728)">
<stop offset="0.148" stop-color="#6CBEFC"/>
<stop offset="0.3226" stop-color="#66B3E6" stop-opacity="0.7951"/>
<stop offset="0.5865" stop-color="#5EA6CB" stop-opacity="0.4854"/>
<stop offset="0.8209" stop-color="#5A9EBB" stop-opacity="0.2103"/>
<stop offset="1" stop-color="#589BB5" stop-opacity="0"/>
</radialGradient>
<radialGradient id="paint4_radial_58_957" cx="0" cy="0" r="1" gradientUnits="userSpaceOnUse" gradientTransform="translate(110.822 81.4052) rotate(90) scale(1.44905 1.44728)">
<stop offset="0.148" stop-color="#6CBEFC"/>
<stop offset="0.3226" stop-color="#66B3E6" stop-opacity="0.7951"/>
<stop offset="0.5865" stop-color="#5EA6CB" stop-opacity="0.4854"/>
<stop offset="0.8209" stop-color="#5A9EBB" stop-opacity="0.2103"/>
<stop offset="1" stop-color="#589BB5" stop-opacity="0"/>
</radialGradient>
<radialGradient id="paint5_radial_58_957" cx="0" cy="0" r="1" gradientUnits="userSpaceOnUse" gradientTransform="translate(30.2835 94.5173) rotate(90) scale(1.44905 1.44728)">
<stop offset="0.148" stop-color="#6CBEFC"/>
<stop offset="0.3226" stop-color="#66B3E6" stop-opacity="0.7951"/>
<stop offset="0.5865" stop-color="#5EA6CB" stop-opacity="0.4854"/>
<stop offset="0.8209" stop-color="#5A9EBB" stop-opacity="0.2103"/>
<stop offset="1" stop-color="#589BB5" stop-opacity="0"/>
</radialGradient>
<radialGradient id="paint6_radial_58_957" cx="0" cy="0" r="1" gradientUnits="userSpaceOnUse" gradientTransform="translate(129.156 356.751) rotate(90) scale(1.44905 1.44728)">
<stop offset="0.148" stop-color="#6CBEFC"/>
<stop offset="0.3226" stop-color="#66B3E6" stop-opacity="0.7951"/>
<stop offset="0.5865" stop-color="#5EA6CB" stop-opacity="0.4854"/>
<stop offset="0.8209" stop-color="#5A9EBB" stop-opacity="0.2103"/>
<stop offset="1" stop-color="#589BB5" stop-opacity="0"/>
</radialGradient>
<radialGradient id="paint7_radial_58_957" cx="0" cy="0" r="1" gradientUnits="userSpaceOnUse" gradientTransform="translate(172.372 328.561) rotate(90) scale(1.44905 1.44728)">
<stop offset="0.148" stop-color="#6CBEFC"/>
<stop offset="0.3226" stop-color="#66B3E6" stop-opacity="0.7951"/>
<stop offset="0.5865" stop-color="#5EA6CB" stop-opacity="0.4854"/>
<stop offset="0.8209" stop-color="#5A9EBB" stop-opacity="0.2103"/>
<stop offset="1" stop-color="#589BB5" stop-opacity="0"/>
</radialGradient>
<radialGradient id="paint8_radial_58_957" cx="0" cy="0" r="1" gradientUnits="userSpaceOnUse" gradientTransform="translate(228.683 336.428) rotate(90) scale(1.44905 1.44728)">
<stop offset="0.148" stop-color="#6CBEFC"/>
<stop offset="0.3226" stop-color="#66B3E6" stop-opacity="0.7951"/>
<stop offset="0.5865" stop-color="#5EA6CB" stop-opacity="0.4854"/>
<stop offset="0.8209" stop-color="#5A9EBB" stop-opacity="0.2103"/>
<stop offset="1" stop-color="#589BB5" stop-opacity="0"/>
</radialGradient>
<radialGradient id="paint9_radial_58_957" cx="0" cy="0" r="1" gradientUnits="userSpaceOnUse" gradientTransform="translate(165.824 409.854) rotate(90) scale(1.44905 1.44728)">
<stop offset="0.148" stop-color="#6CBEFC"/>
<stop offset="0.3226" stop-color="#66B3E6" stop-opacity="0.7951"/>
<stop offset="0.5865" stop-color="#5EA6CB" stop-opacity="0.4854"/>
<stop offset="0.8209" stop-color="#5A9EBB" stop-opacity="0.2103"/>
<stop offset="1" stop-color="#589BB5" stop-opacity="0"/>
</radialGradient>
<radialGradient id="paint10_radial_58_957" cx="0" cy="0" r="1" gradientUnits="userSpaceOnUse" gradientTransform="translate(100.345 381.008) rotate(90) scale(1.44905 1.44728)">
<stop offset="0.148" stop-color="#6CBEFC"/>
<stop offset="0.3226" stop-color="#66B3E6" stop-opacity="0.7951"/>
<stop offset="0.5865" stop-color="#5EA6CB" stop-opacity="0.4854"/>
<stop offset="0.8209" stop-color="#5A9EBB" stop-opacity="0.2103"/>
<stop offset="1" stop-color="#589BB5" stop-opacity="0"/>
</radialGradient>
<radialGradient id="paint11_radial_58_957" cx="0" cy="0" r="1" gradientUnits="userSpaceOnUse" gradientTransform="translate(13.2594 316.105) rotate(90) scale(1.44905 1.44728)">
<stop offset="0.148" stop-color="#6CBEFC"/>
<stop offset="0.3226" stop-color="#66B3E6" stop-opacity="0.7951"/>
<stop offset="0.5865" stop-color="#5EA6CB" stop-opacity="0.4854"/>
<stop offset="0.8209" stop-color="#5A9EBB" stop-opacity="0.2103"/>
<stop offset="1" stop-color="#589BB5" stop-opacity="0"/>
</radialGradient>
<radialGradient id="paint12_radial_58_957" cx="0" cy="0" r="1" gradientUnits="userSpaceOnUse" gradientTransform="translate(274.518 375.108) rotate(90) scale(1.44905 1.44728)">
<stop offset="0.148" stop-color="#6CBEFC"/>
<stop offset="0.3226" stop-color="#66B3E6" stop-opacity="0.7951"/>
<stop offset="0.5865" stop-color="#5EA6CB" stop-opacity="0.4854"/>
<stop offset="0.8209" stop-color="#5A9EBB" stop-opacity="0.2103"/>
<stop offset="1" stop-color="#589BB5" stop-opacity="0"/>
</radialGradient>
<radialGradient id="paint13_radial_58_957" cx="0" cy="0" r="1" gradientUnits="userSpaceOnUse" gradientTransform="translate(266.006 313.483) rotate(90) scale(1.44905 1.44728)">
<stop offset="0.148" stop-color="#6CBEFC"/>
<stop offset="0.3226" stop-color="#66B3E6" stop-opacity="0.7951"/>
<stop offset="0.5865" stop-color="#5EA6CB" stop-opacity="0.4854"/>
<stop offset="0.8209" stop-color="#5A9EBB" stop-opacity="0.2103"/>
<stop offset="1" stop-color="#589BB5" stop-opacity="0"/>
</radialGradient>
<radialGradient id="paint14_radial_58_957" cx="0" cy="0" r="1" gradientUnits="userSpaceOnUse" gradientTransform="translate(266.661 140.408) rotate(90) scale(1.44905 1.44728)">
<stop offset="0.148" stop-color="#6CBEFC"/>
<stop offset="0.3226" stop-color="#66B3E6" stop-opacity="0.7951"/>
<stop offset="0.5865" stop-color="#5EA6CB" stop-opacity="0.4854"/>
<stop offset="0.8209" stop-color="#5A9EBB" stop-opacity="0.2103"/>
<stop offset="1" stop-color="#589BB5" stop-opacity="0"/>
</radialGradient>
<radialGradient id="paint15_radial_58_957" cx="0" cy="0" r="1" gradientUnits="userSpaceOnUse" gradientTransform="translate(271.244 66.3268) rotate(90) scale(1.44905 1.44728)">
<stop offset="0.148" stop-color="#6CBEFC"/>
<stop offset="0.3226" stop-color="#66B3E6" stop-opacity="0.7951"/>
<stop offset="0.5865" stop-color="#5EA6CB" stop-opacity="0.4854"/>
<stop offset="0.8209" stop-color="#5A9EBB" stop-opacity="0.2103"/>
<stop offset="1" stop-color="#589BB5" stop-opacity="0"/>
</radialGradient>
<radialGradient id="paint16_radial_58_957" cx="0" cy="0" r="1" gradientUnits="userSpaceOnUse" gradientTransform="translate(197.908 1.42382) rotate(90) scale(1.44905 1.44728)">
<stop offset="0.148" stop-color="#6CBEFC"/>
<stop offset="0.3226" stop-color="#66B3E6" stop-opacity="0.7951"/>
<stop offset="0.5865" stop-color="#5EA6CB" stop-opacity="0.4854"/>
<stop offset="0.8209" stop-color="#5A9EBB" stop-opacity="0.2103"/>
<stop offset="1" stop-color="#589BB5" stop-opacity="0"/>
</radialGradient>
<radialGradient id="paint17_radial_58_957" cx="0" cy="0" r="1" gradientUnits="userSpaceOnUse" gradientTransform="translate(45.9987 86.6501) rotate(90) scale(1.44905 1.44728)">
<stop offset="0.148" stop-color="#6CBEFC"/>
<stop offset="0.3226" stop-color="#66B3E6" stop-opacity="0.7951"/>
<stop offset="0.5865" stop-color="#5EA6CB" stop-opacity="0.4854"/>
<stop offset="0.8209" stop-color="#5A9EBB" stop-opacity="0.2103"/>
<stop offset="1" stop-color="#589BB5" stop-opacity="0"/>
</radialGradient>
<radialGradient id="paint18_radial_58_957" cx="0" cy="0" r="1" gradientUnits="userSpaceOnUse" gradientTransform="translate(80.047 99.7617) rotate(90) scale(1.44905 1.44728)">
<stop offset="0.148" stop-color="#6CBEFC"/>
<stop offset="0.3226" stop-color="#66B3E6" stop-opacity="0.7951"/>
<stop offset="0.5865" stop-color="#5EA6CB" stop-opacity="0.4854"/>
<stop offset="0.8209" stop-color="#5A9EBB" stop-opacity="0.2103"/>
<stop offset="1" stop-color="#589BB5" stop-opacity="0"/>
</radialGradient>
<radialGradient id="paint19_radial_58_957" cx="0" cy="0" r="1" gradientUnits="userSpaceOnUse" gradientTransform="translate(46.6531 106.318) rotate(90) scale(1.44905 1.44728)">
<stop offset="0.148" stop-color="#6CBEFC"/>
<stop offset="0.3226" stop-color="#66B3E6" stop-opacity="0.7951"/>
<stop offset="0.5865" stop-color="#5EA6CB" stop-opacity="0.4854"/>
<stop offset="0.8209" stop-color="#5A9EBB" stop-opacity="0.2103"/>
<stop offset="1" stop-color="#589BB5" stop-opacity="0"/>
</radialGradient>
<radialGradient id="paint20_radial_58_957" cx="0" cy="0" r="1" gradientUnits="userSpaceOnUse" gradientTransform="translate(1.47291 293.16) rotate(90) scale(1.44905 1.44728)">
<stop offset="0.148" stop-color="#6CBEFC"/>
<stop offset="0.3226" stop-color="#66B3E6" stop-opacity="0.7951"/>
<stop offset="0.5865" stop-color="#5EA6CB" stop-opacity="0.4854"/>
<stop offset="0.8209" stop-color="#5A9EBB" stop-opacity="0.2103"/>
<stop offset="1" stop-color="#589BB5" stop-opacity="0"/>
</radialGradient>
<radialGradient id="paint21_radial_58_957" cx="0" cy="0" r="1" gradientUnits="userSpaceOnUse" gradientTransform="translate(72.8438 343.64) rotate(90) scale(1.44905 1.44728)">
<stop offset="0.148" stop-color="#6CBEFC"/>
<stop offset="0.3226" stop-color="#66B3E6" stop-opacity="0.7951"/>
<stop offset="0.5865" stop-color="#5EA6CB" stop-opacity="0.4854"/>
<stop offset="0.8209" stop-color="#5A9EBB" stop-opacity="0.2103"/>
<stop offset="1" stop-color="#589BB5" stop-opacity="0"/>
</radialGradient>
<radialGradient id="paint22_radial_58_957" cx="0" cy="0" r="1" gradientUnits="userSpaceOnUse" gradientTransform="translate(176.3 12.5691) rotate(90) scale(0.579609 0.5789)">
<stop offset="0.148" stop-color="#6CBEFC"/>
<stop offset="0.3226" stop-color="#66B3E6" stop-opacity="0.7951"/>
<stop offset="0.5865" stop-color="#5EA6CB" stop-opacity="0.4854"/>
<stop offset="0.8209" stop-color="#5A9EBB" stop-opacity="0.2103"/>
<stop offset="1" stop-color="#589BB5" stop-opacity="0"/>
</radialGradient>
<radialGradient id="paint23_radial_58_957" cx="0" cy="0" r="1" gradientUnits="userSpaceOnUse" gradientTransform="translate(195.289 21.7472) rotate(90) scale(0.579609 0.5789)">
<stop offset="0.148" stop-color="#6CBEFC"/>
<stop offset="0.3226" stop-color="#66B3E6" stop-opacity="0.7951"/>
<stop offset="0.5865" stop-color="#5EA6CB" stop-opacity="0.4854"/>
<stop offset="0.8209" stop-color="#5A9EBB" stop-opacity="0.2103"/>
<stop offset="1" stop-color="#589BB5" stop-opacity="0"/>
</radialGradient>
<radialGradient id="paint24_radial_58_957" cx="0" cy="0" r="1" gradientUnits="userSpaceOnUse" gradientTransform="translate(152.074 49.9376) rotate(90) scale(0.579609 0.5789)">
<stop offset="0.148" stop-color="#6CBEFC"/>
<stop offset="0.3226" stop-color="#66B3E6" stop-opacity="0.7951"/>
<stop offset="0.5865" stop-color="#5EA6CB" stop-opacity="0.4854"/>
<stop offset="0.8209" stop-color="#5A9EBB" stop-opacity="0.2103"/>
<stop offset="1" stop-color="#589BB5" stop-opacity="0"/>
</radialGradient>
<radialGradient id="paint25_radial_58_957" cx="0" cy="0" r="1" gradientUnits="userSpaceOnUse" gradientTransform="translate(112.131 31.5807) rotate(90) scale(0.579609 0.5789)">
<stop offset="0.148" stop-color="#6CBEFC"/>
<stop offset="0.3226" stop-color="#66B3E6" stop-opacity="0.7951"/>
<stop offset="0.5865" stop-color="#5EA6CB" stop-opacity="0.4854"/>
<stop offset="0.8209" stop-color="#5A9EBB" stop-opacity="0.2103"/>
<stop offset="1" stop-color="#589BB5" stop-opacity="0"/>
</radialGradient>
<radialGradient id="paint26_radial_58_957" cx="0" cy="0" r="1" gradientUnits="userSpaceOnUse" gradientTransform="translate(110.821 68.9487) rotate(90) scale(0.579609 0.5789)">
<stop offset="0.148" stop-color="#6CBEFC"/>
<stop offset="0.3226" stop-color="#66B3E6" stop-opacity="0.7951"/>
<stop offset="0.5865" stop-color="#5EA6CB" stop-opacity="0.4854"/>
<stop offset="0.8209" stop-color="#5A9EBB" stop-opacity="0.2103"/>
<stop offset="1" stop-color="#589BB5" stop-opacity="0"/>
</radialGradient>
<radialGradient id="paint27_radial_58_957" cx="0" cy="0" r="1" gradientUnits="userSpaceOnUse" gradientTransform="translate(161.895 84.0277) rotate(90) scale(0.579609 0.5789)">
<stop offset="0.148" stop-color="#6CBEFC"/>
<stop offset="0.3226" stop-color="#66B3E6" stop-opacity="0.7951"/>
<stop offset="0.5865" stop-color="#5EA6CB" stop-opacity="0.4854"/>
<stop offset="0.8209" stop-color="#5A9EBB" stop-opacity="0.2103"/>
<stop offset="1" stop-color="#589BB5" stop-opacity="0"/>
</radialGradient>
<radialGradient id="paint28_radial_58_957" cx="0" cy="0" r="1" gradientUnits="userSpaceOnUse" gradientTransform="translate(223.444 74.1942) rotate(90) scale(0.579609 0.5789)">
<stop offset="0.148" stop-color="#6CBEFC"/>
<stop offset="0.3226" stop-color="#66B3E6" stop-opacity="0.7951"/>
<stop offset="0.5865" stop-color="#5EA6CB" stop-opacity="0.4854"/>
<stop offset="0.8209" stop-color="#5A9EBB" stop-opacity="0.2103"/>
<stop offset="1" stop-color="#589BB5" stop-opacity="0"/>
</radialGradient>
<radialGradient id="paint29_radial_58_957" cx="0" cy="0" r="1" gradientUnits="userSpaceOnUse" gradientTransform="translate(252.255 66.3267) rotate(90) scale(0.579609 0.5789)">
<stop offset="0.148" stop-color="#6CBEFC"/>
<stop offset="0.3226" stop-color="#66B3E6" stop-opacity="0.7951"/>
<stop offset="0.5865" stop-color="#5EA6CB" stop-opacity="0.4854"/>
<stop offset="0.8209" stop-color="#5A9EBB" stop-opacity="0.2103"/>
<stop offset="1" stop-color="#589BB5" stop-opacity="0"/>
</radialGradient>
<radialGradient id="paint30_radial_58_957" cx="0" cy="0" r="1" gradientUnits="userSpaceOnUse" gradientTransform="translate(260.113 93.8615) rotate(90) scale(0.579609 0.5789)">
<stop offset="0.148" stop-color="#6CBEFC"/>
<stop offset="0.3226" stop-color="#66B3E6" stop-opacity="0.7951"/>
<stop offset="0.5865" stop-color="#5EA6CB" stop-opacity="0.4854"/>
<stop offset="0.8209" stop-color="#5A9EBB" stop-opacity="0.2103"/>
<stop offset="1" stop-color="#589BB5" stop-opacity="0"/>
</radialGradient>
<radialGradient id="paint31_radial_58_957" cx="0" cy="0" r="1" gradientUnits="userSpaceOnUse" gradientTransform="translate(247.672 109.595) rotate(90) scale(0.579609 0.5789)">
<stop offset="0.148" stop-color="#6CBEFC"/>
<stop offset="0.3226" stop-color="#66B3E6" stop-opacity="0.7951"/>
<stop offset="0.5865" stop-color="#5EA6CB" stop-opacity="0.4854"/>
<stop offset="0.8209" stop-color="#5A9EBB" stop-opacity="0.2103"/>
<stop offset="1" stop-color="#589BB5" stop-opacity="0"/>
</radialGradient>
<radialGradient id="paint32_radial_58_957" cx="0" cy="0" r="1" gradientUnits="userSpaceOnUse" gradientTransform="translate(260.767 112.873) rotate(90) scale(0.579609 0.5789)">
<stop offset="0.148" stop-color="#6CBEFC"/>
<stop offset="0.3226" stop-color="#66B3E6" stop-opacity="0.7951"/>
<stop offset="0.5865" stop-color="#5EA6CB" stop-opacity="0.4854"/>
<stop offset="0.8209" stop-color="#5A9EBB" stop-opacity="0.2103"/>
<stop offset="1" stop-color="#589BB5" stop-opacity="0"/>
</radialGradient>
<radialGradient id="paint33_radial_58_957" cx="0" cy="0" r="1" gradientUnits="userSpaceOnUse" gradientTransform="translate(229.338 105.006) rotate(90) scale(0.579609 0.5789)">
<stop offset="0.148" stop-color="#6CBEFC"/>
<stop offset="0.3226" stop-color="#66B3E6" stop-opacity="0.7951"/>
<stop offset="0.5865" stop-color="#5EA6CB" stop-opacity="0.4854"/>
<stop offset="0.8209" stop-color="#5A9EBB" stop-opacity="0.2103"/>
<stop offset="1" stop-color="#589BB5" stop-opacity="0"/>
</radialGradient>
<radialGradient id="paint34_radial_58_957" cx="0" cy="0" r="1" gradientUnits="userSpaceOnUse" gradientTransform="translate(30.283 25.025) rotate(90) scale(0.579609 0.5789)">
<stop offset="0.148" stop-color="#6CBEFC"/>
<stop offset="0.3226" stop-color="#66B3E6" stop-opacity="0.7951"/>
<stop offset="0.5865" stop-color="#5EA6CB" stop-opacity="0.4854"/>
<stop offset="0.8209" stop-color="#5A9EBB" stop-opacity="0.2103"/>
<stop offset="1" stop-color="#589BB5" stop-opacity="0"/>
</radialGradient>
<radialGradient id="paint35_radial_58_957" cx="0" cy="0" r="1" gradientUnits="userSpaceOnUse" gradientTransform="translate(44.6882 26.3363) rotate(90) scale(0.579609 0.5789)">
<stop offset="0.148" stop-color="#6CBEFC"/>
<stop offset="0.3226" stop-color="#66B3E6" stop-opacity="0.7951"/>
<stop offset="0.5865" stop-color="#5EA6CB" stop-opacity="0.4854"/>
<stop offset="0.8209" stop-color="#5A9EBB" stop-opacity="0.2103"/>
<stop offset="1" stop-color="#589BB5" stop-opacity="0"/>
</radialGradient>
<radialGradient id="paint36_radial_58_957" cx="0" cy="0" r="1" gradientUnits="userSpaceOnUse" gradientTransform="translate(44.6882 18.4689) rotate(90) scale(0.579609 0.5789)">
<stop offset="0.148" stop-color="#6CBEFC"/>
<stop offset="0.3226" stop-color="#66B3E6" stop-opacity="0.7951"/>
<stop offset="0.5865" stop-color="#5EA6CB" stop-opacity="0.4854"/>
<stop offset="0.8209" stop-color="#5A9EBB" stop-opacity="0.2103"/>
<stop offset="1" stop-color="#589BB5" stop-opacity="0"/>
</radialGradient>
<radialGradient id="paint37_radial_58_957" cx="0" cy="0" r="1" gradientUnits="userSpaceOnUse" gradientTransform="translate(50.5813 379.041) rotate(90) scale(0.579609 0.5789)">
<stop offset="0.148" stop-color="#6CBEFC"/>
<stop offset="0.3226" stop-color="#66B3E6" stop-opacity="0.7951"/>
<stop offset="0.5865" stop-color="#5EA6CB" stop-opacity="0.4854"/>
<stop offset="0.8209" stop-color="#5A9EBB" stop-opacity="0.2103"/>
<stop offset="1" stop-color="#589BB5" stop-opacity="0"/>
</radialGradient>
<radialGradient id="paint38_radial_58_957" cx="0" cy="0" r="1" gradientUnits="userSpaceOnUse" gradientTransform="translate(69.5701 392.808) rotate(90) scale(0.579609 0.5789)">
<stop offset="0.148" stop-color="#6CBEFC"/>
<stop offset="0.3226" stop-color="#66B3E6" stop-opacity="0.7951"/>
<stop offset="0.5865" stop-color="#5EA6CB" stop-opacity="0.4854"/>
<stop offset="0.8209" stop-color="#5A9EBB" stop-opacity="0.2103"/>
<stop offset="1" stop-color="#589BB5" stop-opacity="0"/>
</radialGradient>
<radialGradient id="paint39_radial_58_957" cx="0" cy="0" r="1" gradientUnits="userSpaceOnUse" gradientTransform="translate(72.1898 376.419) rotate(90) scale(0.579609 0.5789)">
<stop offset="0.148" stop-color="#6CBEFC"/>
<stop offset="0.3226" stop-color="#66B3E6" stop-opacity="0.7951"/>
<stop offset="0.5865" stop-color="#5EA6CB" stop-opacity="0.4854"/>
<stop offset="0.8209" stop-color="#5A9EBB" stop-opacity="0.2103"/>
<stop offset="1" stop-color="#589BB5" stop-opacity="0"/>
</radialGradient>
<radialGradient id="paint40_radial_58_957" cx="0" cy="0" r="1" gradientUnits="userSpaceOnUse" gradientTransform="translate(83.9752 392.808) rotate(90) scale(0.579609 0.5789)">
<stop offset="0.148" stop-color="#6CBEFC"/>
<stop offset="0.3226" stop-color="#66B3E6" stop-opacity="0.7951"/>
<stop offset="0.5865" stop-color="#5EA6CB" stop-opacity="0.4854"/>
<stop offset="0.8209" stop-color="#5A9EBB" stop-opacity="0.2103"/>
<stop offset="1" stop-color="#589BB5" stop-opacity="0"/>
</radialGradient>
<radialGradient id="paint41_radial_58_957" cx="0" cy="0" r="1" gradientUnits="userSpaceOnUse" gradientTransform="translate(75.464 414.443) rotate(90) scale(0.579609 0.5789)">
<stop offset="0.148" stop-color="#6CBEFC"/>
<stop offset="0.3226" stop-color="#66B3E6" stop-opacity="0.7951"/>
<stop offset="0.5865" stop-color="#5EA6CB" stop-opacity="0.4854"/>
<stop offset="0.8209" stop-color="#5A9EBB" stop-opacity="0.2103"/>
<stop offset="1" stop-color="#589BB5" stop-opacity="0"/>
</radialGradient>
<radialGradient id="paint42_radial_58_957" cx="0" cy="0" r="1" gradientUnits="userSpaceOnUse" gradientTransform="translate(207.73 365.93) rotate(90) scale(0.579609 0.5789)">
<stop offset="0.148" stop-color="#6CBEFC"/>
<stop offset="0.3226" stop-color="#66B3E6" stop-opacity="0.7951"/>
<stop offset="0.5865" stop-color="#5EA6CB" stop-opacity="0.4854"/>
<stop offset="0.8209" stop-color="#5A9EBB" stop-opacity="0.2103"/>
<stop offset="1" stop-color="#589BB5" stop-opacity="0"/>
</radialGradient>
<radialGradient id="paint43_radial_58_957" cx="0" cy="0" r="1" gradientUnits="userSpaceOnUse" gradientTransform="translate(222.79 393.465) rotate(90) scale(0.579609 0.5789)">
<stop offset="0.148" stop-color="#6CBEFC"/>
<stop offset="0.3226" stop-color="#66B3E6" stop-opacity="0.7951"/>
<stop offset="0.5865" stop-color="#5EA6CB" stop-opacity="0.4854"/>
<stop offset="0.8209" stop-color="#5A9EBB" stop-opacity="0.2103"/>
<stop offset="1" stop-color="#589BB5" stop-opacity="0"/>
</radialGradient>
<radialGradient id="paint44_radial_58_957" cx="0" cy="0" r="1" gradientUnits="userSpaceOnUse" gradientTransform="translate(188.741 381.664) rotate(90) scale(0.579609 0.5789)">
<stop offset="0.148" stop-color="#6CBEFC"/>
<stop offset="0.3226" stop-color="#66B3E6" stop-opacity="0.7951"/>
<stop offset="0.5865" stop-color="#5EA6CB" stop-opacity="0.4854"/>
<stop offset="0.8209" stop-color="#5A9EBB" stop-opacity="0.2103"/>
<stop offset="1" stop-color="#589BB5" stop-opacity="0"/>
</radialGradient>
<radialGradient id="paint45_radial_58_957" cx="0" cy="0" r="1" gradientUnits="userSpaceOnUse" gradientTransform="translate(146.835 375.763) rotate(90) scale(0.579609 0.5789)">
<stop offset="0.148" stop-color="#6CBEFC"/>
<stop offset="0.3226" stop-color="#66B3E6" stop-opacity="0.7951"/>
<stop offset="0.5865" stop-color="#5EA6CB" stop-opacity="0.4854"/>
<stop offset="0.8209" stop-color="#5A9EBB" stop-opacity="0.2103"/>
<stop offset="1" stop-color="#589BB5" stop-opacity="0"/>
</radialGradient>
<radialGradient id="paint46_radial_58_957" cx="0" cy="0" r="1" gradientUnits="userSpaceOnUse" gradientTransform="translate(157.966 341.673) rotate(90) scale(0.579609 0.5789)">
<stop offset="0.148" stop-color="#6CBEFC"/>
<stop offset="0.3226" stop-color="#66B3E6" stop-opacity="0.7951"/>
<stop offset="0.5865" stop-color="#5EA6CB" stop-opacity="0.4854"/>
<stop offset="0.8209" stop-color="#5A9EBB" stop-opacity="0.2103"/>
<stop offset="1" stop-color="#589BB5" stop-opacity="0"/>
</radialGradient>
<radialGradient id="paint47_radial_58_957" cx="0" cy="0" r="1" gradientUnits="userSpaceOnUse" gradientTransform="translate(188.086 344.295) rotate(90) scale(0.579609 0.5789)">
<stop offset="0.148" stop-color="#6CBEFC"/>
<stop offset="0.3226" stop-color="#66B3E6" stop-opacity="0.7951"/>
<stop offset="0.5865" stop-color="#5EA6CB" stop-opacity="0.4854"/>
<stop offset="0.8209" stop-color="#5A9EBB" stop-opacity="0.2103"/>
<stop offset="1" stop-color="#589BB5" stop-opacity="0"/>
</radialGradient>
<radialGradient id="paint48_radial_58_957" cx="0" cy="0" r="1" gradientUnits="userSpaceOnUse" gradientTransform="translate(180.229 325.283) rotate(90) scale(0.579609 0.5789)">
<stop offset="0.148" stop-color="#6CBEFC"/>
<stop offset="0.3226" stop-color="#66B3E6" stop-opacity="0.7951"/>
<stop offset="0.5865" stop-color="#5EA6CB" stop-opacity="0.4854"/>
<stop offset="0.8209" stop-color="#5A9EBB" stop-opacity="0.2103"/>
<stop offset="1" stop-color="#589BB5" stop-opacity="0"/>
</radialGradient>
<radialGradient id="paint49_radial_58_957" cx="0" cy="0" r="1" gradientUnits="userSpaceOnUse" gradientTransform="translate(194.634 331.184) rotate(90) scale(0.579609 0.5789)">
<stop offset="0.148" stop-color="#6CBEFC"/>
<stop offset="0.3226" stop-color="#66B3E6" stop-opacity="0.7951"/>
<stop offset="0.5865" stop-color="#5EA6CB" stop-opacity="0.4854"/>
<stop offset="0.8209" stop-color="#5A9EBB" stop-opacity="0.2103"/>
<stop offset="1" stop-color="#589BB5" stop-opacity="0"/>
</radialGradient>
<radialGradient id="paint50_radial_58_957" cx="0" cy="0" r="1" gradientUnits="userSpaceOnUse" gradientTransform="translate(202.492 344.295) rotate(90) scale(0.579609 0.5789)">
<stop offset="0.148" stop-color="#6CBEFC"/>
<stop offset="0.3226" stop-color="#66B3E6" stop-opacity="0.7951"/>
<stop offset="0.5865" stop-color="#5EA6CB" stop-opacity="0.4854"/>
<stop offset="0.8209" stop-color="#5A9EBB" stop-opacity="0.2103"/>
<stop offset="1" stop-color="#589BB5" stop-opacity="0"/>
</radialGradient>
<radialGradient id="paint51_radial_58_957" cx="0" cy="0" r="1" gradientUnits="userSpaceOnUse" gradientTransform="translate(210.349 335.117) rotate(90) scale(0.579609 0.5789)">
<stop offset="0.148" stop-color="#6CBEFC"/>
<stop offset="0.3226" stop-color="#66B3E6" stop-opacity="0.7951"/>
<stop offset="0.5865" stop-color="#5EA6CB" stop-opacity="0.4854"/>
<stop offset="0.8209" stop-color="#5A9EBB" stop-opacity="0.2103"/>
<stop offset="1" stop-color="#589BB5" stop-opacity="0"/>
</radialGradient>
<radialGradient id="paint52_radial_58_957" cx="0" cy="0" r="1" gradientUnits="userSpaceOnUse" gradientTransform="translate(254.22 328.562) rotate(90) scale(0.579609 0.5789)">
<stop offset="0.148" stop-color="#6CBEFC"/>
<stop offset="0.3226" stop-color="#66B3E6" stop-opacity="0.7951"/>
<stop offset="0.5865" stop-color="#5EA6CB" stop-opacity="0.4854"/>
<stop offset="0.8209" stop-color="#5A9EBB" stop-opacity="0.2103"/>
<stop offset="1" stop-color="#589BB5" stop-opacity="0"/>
</radialGradient>
<radialGradient id="paint53_radial_58_957" cx="0" cy="0" r="1" gradientUnits="userSpaceOnUse" gradientTransform="translate(280.411 363.307) rotate(90) scale(0.579609 0.5789)">
<stop offset="0.148" stop-color="#6CBEFC"/>
<stop offset="0.3226" stop-color="#66B3E6" stop-opacity="0.7951"/>
<stop offset="0.5865" stop-color="#5EA6CB" stop-opacity="0.4854"/>
<stop offset="0.8209" stop-color="#5A9EBB" stop-opacity="0.2103"/>
<stop offset="1" stop-color="#589BB5" stop-opacity="0"/>
</radialGradient>
<radialGradient id="paint54_radial_58_957" cx="0" cy="0" r="1" gradientUnits="userSpaceOnUse" gradientTransform="translate(262.732 392.808) rotate(90) scale(0.579609 0.5789)">
<stop offset="0.148" stop-color="#6CBEFC"/>
<stop offset="0.3226" stop-color="#66B3E6" stop-opacity="0.7951"/>
<stop offset="0.5865" stop-color="#5EA6CB" stop-opacity="0.4854"/>
<stop offset="0.8209" stop-color="#5A9EBB" stop-opacity="0.2103"/>
<stop offset="1" stop-color="#589BB5" stop-opacity="0"/>
</radialGradient>
<radialGradient id="paint55_radial_58_957" cx="0" cy="0" r="1" gradientUnits="userSpaceOnUse" gradientTransform="translate(266.661 401.987) rotate(90) scale(0.579609 0.5789)">
<stop offset="0.148" stop-color="#6CBEFC"/>
<stop offset="0.3226" stop-color="#66B3E6" stop-opacity="0.7951"/>
<stop offset="0.5865" stop-color="#5EA6CB" stop-opacity="0.4854"/>
<stop offset="0.8209" stop-color="#5A9EBB" stop-opacity="0.2103"/>
<stop offset="1" stop-color="#589BB5" stop-opacity="0"/>
</radialGradient>
<radialGradient id="paint56_radial_58_957" cx="0" cy="0" r="1" gradientUnits="userSpaceOnUse" gradientTransform="translate(266.006 253.169) rotate(90) scale(0.579609 0.5789)">
<stop offset="0.148" stop-color="#6CBEFC"/>
<stop offset="0.3226" stop-color="#66B3E6" stop-opacity="0.7951"/>
<stop offset="0.5865" stop-color="#5EA6CB" stop-opacity="0.4854"/>
<stop offset="0.8209" stop-color="#5A9EBB" stop-opacity="0.2103"/>
<stop offset="1" stop-color="#589BB5" stop-opacity="0"/>
</radialGradient>
<radialGradient id="paint57_radial_58_957" cx="0" cy="0" r="1" gradientUnits="userSpaceOnUse" gradientTransform="translate(253.565 244.646) rotate(90) scale(0.579609 0.5789)">
<stop offset="0.148" stop-color="#6CBEFC"/>
<stop offset="0.3226" stop-color="#66B3E6" stop-opacity="0.7951"/>
<stop offset="0.5865" stop-color="#5EA6CB" stop-opacity="0.4854"/>
<stop offset="0.8209" stop-color="#5A9EBB" stop-opacity="0.2103"/>
<stop offset="1" stop-color="#589BB5" stop-opacity="0"/>
</radialGradient>
<radialGradient id="paint58_radial_58_957" cx="0" cy="0" r="1" gradientUnits="userSpaceOnUse" gradientTransform="translate(266.661 237.435) rotate(90) scale(0.579609 0.5789)">
<stop offset="0.148" stop-color="#6CBEFC"/>
<stop offset="0.3226" stop-color="#66B3E6" stop-opacity="0.7951"/>
<stop offset="0.5865" stop-color="#5EA6CB" stop-opacity="0.4854"/>
<stop offset="0.8209" stop-color="#5A9EBB" stop-opacity="0.2103"/>
<stop offset="1" stop-color="#589BB5" stop-opacity="0"/>
</radialGradient>
<radialGradient id="paint59_radial_58_957" cx="0" cy="0" r="1" gradientUnits="userSpaceOnUse" gradientTransform="translate(256.184 222.356) rotate(90) scale(0.579609 0.5789)">
<stop offset="0.148" stop-color="#6CBEFC"/>
<stop offset="0.3226" stop-color="#66B3E6" stop-opacity="0.7951"/>
<stop offset="0.5865" stop-color="#5EA6CB" stop-opacity="0.4854"/>
<stop offset="0.8209" stop-color="#5A9EBB" stop-opacity="0.2103"/>
<stop offset="1" stop-color="#589BB5" stop-opacity="0"/>
</radialGradient>
<radialGradient id="paint60_radial_58_957" cx="0" cy="0" r="1" gradientUnits="userSpaceOnUse" gradientTransform="translate(138.977 291.193) rotate(90) scale(0.579609 0.5789)">
<stop offset="0.148" stop-color="#6CBEFC"/>
<stop offset="0.3226" stop-color="#66B3E6" stop-opacity="0.7951"/>
<stop offset="0.5865" stop-color="#5EA6CB" stop-opacity="0.4854"/>
<stop offset="0.8209" stop-color="#5A9EBB" stop-opacity="0.2103"/>
<stop offset="1" stop-color="#589BB5" stop-opacity="0"/>
</radialGradient>
<radialGradient id="paint61_radial_58_957" cx="0" cy="0" r="1" gradientUnits="userSpaceOnUse" gradientTransform="translate(115.406 271.525) rotate(90) scale(0.579609 0.5789)">
<stop offset="0.148" stop-color="#6CBEFC"/>
<stop offset="0.3226" stop-color="#66B3E6" stop-opacity="0.7951"/>
<stop offset="0.5865" stop-color="#5EA6CB" stop-opacity="0.4854"/>
<stop offset="0.8209" stop-color="#5A9EBB" stop-opacity="0.2103"/>
<stop offset="1" stop-color="#589BB5" stop-opacity="0"/>
</radialGradient>
<radialGradient id="paint62_radial_58_957" cx="0" cy="0" r="1" gradientUnits="userSpaceOnUse" gradientTransform="translate(124.572 301.027) rotate(90) scale(0.579609 0.5789)">
<stop offset="0.148" stop-color="#6CBEFC"/>
<stop offset="0.3226" stop-color="#66B3E6" stop-opacity="0.7951"/>
<stop offset="0.5865" stop-color="#5EA6CB" stop-opacity="0.4854"/>
<stop offset="0.8209" stop-color="#5A9EBB" stop-opacity="0.2103"/>
<stop offset="1" stop-color="#589BB5" stop-opacity="0"/>
</radialGradient>
</defs>
</svg>
