<svg width="350" height="387" viewBox="0 0 350 387" fill="none" xmlns="http://www.w3.org/2000/svg">
<g clip-path="url(#clip0_125_2)">
<path d="M98.9032 326.249L39.8329 289.625L14.8311 345.626L98.9032 326.249Z" stroke="#A46CFF" stroke-width="0.25" stroke-miterlimit="10"/>
<path d="M123.356 245.992L65.8652 227.165L39.833 289.625L123.356 245.992Z" stroke="#A46CFF" stroke-width="0.25" stroke-miterlimit="10"/>
<path d="M65.8643 227.165L74.5188 173.844L-25.4199 238.984L65.8643 227.165Z" stroke="#A46CFF" stroke-width="0.25" stroke-miterlimit="10"/>
<path d="M261.415 98.7405L150.143 118.186L112.365 74.6223L261.415 98.7405Z" stroke="#A46CFF" stroke-width="0.25" stroke-miterlimit="10"/>
<path d="M337.657 0.274902L273.229 74.6222L215.532 58.8183L337.657 0.274902Z" stroke="#A46CFF" stroke-width="0.25" stroke-miterlimit="10"/>
<path d="M74.5195 173.844L112.366 74.6223L150.143 118.186L74.5195 173.844Z" stroke="#A46CFF" stroke-width="0.25" stroke-miterlimit="10"/>
<path d="M65.8649 227.165L-65.7383 179.341L-45.5445 125.882L65.8649 227.165Z" stroke="#A46CFF" stroke-width="0.25" stroke-miterlimit="10"/>
<path d="M23.3476 76.2712L74.5189 173.844L-45.5449 125.882L23.3476 76.2712Z" stroke="#A46CFF" stroke-width="0.25" stroke-miterlimit="10"/>
<path d="M74.5189 173.844L-45.5449 125.882L112.365 74.6223L74.5189 173.844Z" stroke="#A46CFF" stroke-width="0.25" stroke-miterlimit="10"/>
<path d="M39.8322 289.625L-25.4199 238.983L14.8303 345.626L39.8322 289.625Z" stroke="#A46CFF" stroke-width="0.25" stroke-miterlimit="10"/>
<path d="M-54.5424 282.822L-65.7383 331.402L14.8309 345.626L-54.5424 282.822Z" stroke="#A46CFF" stroke-width="0.25" stroke-miterlimit="10"/>
<path d="M65.8652 227.165L74.5197 173.844L150.143 118.186L65.8652 227.165Z" stroke="#A46CFF" stroke-width="0.25" stroke-miterlimit="10"/>
<path d="M123.355 245.992L150.143 118.186L191.424 41.8462" stroke="#A46CFF" stroke-width="0.25" stroke-miterlimit="10"/>
<g opacity="0.8">
<path d="M21.6988 77.5769C21.0119 76.9585 20.9433 75.8591 21.5615 75.1719C22.1796 74.4848 23.2786 74.4161 23.9655 75.0345C24.6523 75.6529 24.721 76.7523 24.1028 77.4395C23.4847 78.1266 22.3857 78.1953 21.6988 77.5769Z" fill="#A46CFF"/>
</g>
<g opacity="0.8">
<path d="M73.1458 174.943C72.5276 174.187 72.6649 173.156 73.3518 172.538C74.1074 171.92 75.1377 172.057 75.7558 172.744C76.374 173.5 76.2366 174.531 75.5498 175.149C74.8629 175.767 73.7639 175.63 73.1458 174.943Z" fill="#A46CFF"/>
</g>
<g opacity="0.8">
<path d="M260.11 99.1527C259.491 98.3968 259.629 97.3661 260.316 96.7477C261.071 96.1293 262.102 96.2667 262.72 96.9539C263.338 97.7097 263.201 98.7404 262.514 99.3588C261.827 99.9772 260.728 99.9085 260.11 99.1527Z" fill="#A46CFF"/>
</g>
<g opacity="0.8">
<path d="M190.118 42.9456C189.5 42.1898 189.638 41.1591 190.324 40.5407C191.08 39.9223 192.11 40.0597 192.728 40.7468C193.347 41.5027 193.209 42.5334 192.522 43.1518C191.767 43.7702 190.668 43.7015 190.118 42.9456Z" fill="#A46CFF"/>
</g>
<g opacity="0.8">
<path d="M148.838 119.286C148.22 118.53 148.357 117.499 149.044 116.881C149.8 116.262 150.83 116.4 151.448 117.087C152.066 117.843 151.929 118.873 151.242 119.492C150.487 120.11 149.456 119.973 148.838 119.286Z" fill="#A46CFF"/>
</g>
<g opacity="0.8">
<path d="M271.58 75.7218C270.962 74.9659 271.1 73.9352 271.786 73.3168C272.542 72.6984 273.572 72.8358 274.19 73.5229C274.809 74.2788 274.671 75.3095 273.984 75.9279C273.297 76.615 272.198 76.4776 271.58 75.7218Z" fill="#A46CFF"/>
</g>
<g opacity="0.8">
<path d="M122.05 247.092C121.432 246.336 121.569 245.305 122.256 244.687C123.012 244.068 124.042 244.206 124.66 244.893C125.278 245.649 125.141 246.679 124.454 247.298C123.699 247.916 122.668 247.779 122.05 247.092Z" fill="#A46CFF"/>
</g>
<g opacity="0.8">
<path d="M38.5276 290.724C37.9094 289.968 38.0468 288.938 38.7337 288.319C39.4892 287.701 40.5195 287.838 41.1377 288.525C41.7559 289.281 41.6185 290.312 40.9316 290.93C40.1761 291.549 39.1458 291.48 38.5276 290.724Z" fill="#A46CFF"/>
</g>
<path d="M23.3482 76.2712L-46.2998 125.882L74.5196 173.844L23.3482 76.2712Z" fill="url(#paint0_linear_125_2)"/>
<path d="M-44.7891 126.5L74.5192 173.844L65.8647 227.165L-44.7891 126.5Z" fill="url(#paint1_linear_125_2)"/>
<path d="M-25.4193 238.64L65.8649 227.165L-67.7988 179.341L-25.4193 238.64Z" fill="url(#paint2_linear_125_2)"/>
<path d="M39.833 289.625L123.356 245.992L65.8652 227.165L39.833 289.625Z" fill="url(#paint3_linear_125_2)"/>
<path d="M14.8313 345.626L39.8331 289.625L-25.4189 238.64L14.8313 345.626Z" fill="url(#paint4_linear_125_2)"/>
<path d="M112.365 74.6223L261.415 98.0534L151.86 118.186L112.365 74.6223Z" fill="url(#paint5_linear_125_2)"/>
<path d="M123.356 245.992L151.861 118.186L65.8652 227.165L123.356 245.992Z" fill="url(#paint6_linear_125_2)"/>
<path d="M215.532 58.8183L337.657 0.274902L273.229 74.6222L215.532 58.8183Z" fill="url(#paint7_linear_125_2)"/>
</g>
<g opacity="0.2" filter="url(#filter0_f_125_2)">
<circle cx="310" cy="347" r="20" fill="#A46CFF"/>
</g>
<defs>
<filter id="filter0_f_125_2" x="270" y="307" width="80" height="80" filterUnits="userSpaceOnUse" color-interpolation-filters="sRGB">
<feFlood flood-opacity="0" result="BackgroundImageFix"/>
<feBlend mode="normal" in="SourceGraphic" in2="BackgroundImageFix" result="shape"/>
<feGaussianBlur stdDeviation="10" result="effect1_foregroundBlur_125_2"/>
</filter>
<linearGradient id="paint0_linear_125_2" x1="-46.2844" y1="125.051" x2="74.5085" y2="125.051" gradientUnits="userSpaceOnUse">
<stop stop-color="#6630FF" stop-opacity="0.5"/>
<stop offset="1" stop-color="#551AFF" stop-opacity="0"/>
</linearGradient>
<linearGradient id="paint1_linear_125_2" x1="-44.8039" y1="176.847" x2="74.5082" y2="176.847" gradientUnits="userSpaceOnUse">
<stop stop-color="#7958FF" stop-opacity="0"/>
<stop offset="0.9751" stop-color="#5126FF" stop-opacity="0.4782"/>
<stop offset="1" stop-color="#B66EFF" stop-opacity="0.5"/>
</linearGradient>
<linearGradient id="paint2_linear_125_2" x1="-67.8048" y1="208.985" x2="65.8761" y2="208.985" gradientUnits="userSpaceOnUse">
<stop stop-color="#7432FF" stop-opacity="0"/>
<stop offset="0.107292" stop-color="#702CFF" stop-opacity="0.052617"/>
<stop offset="0.9751" stop-color="#844BFF" stop-opacity="0.4782"/>
<stop offset="1" stop-color="#7738FF" stop-opacity="0.5"/>
</linearGradient>
<linearGradient id="paint3_linear_125_2" x1="39.8438" y1="258.407" x2="123.366" y2="258.407" gradientUnits="userSpaceOnUse">
<stop stop-color="#996AFF" stop-opacity="0.5"/>
<stop offset="1" stop-color="#854CFF" stop-opacity="0"/>
</linearGradient>
<linearGradient id="paint4_linear_125_2" x1="-25.4273" y1="292.127" x2="39.8439" y2="292.127" gradientUnits="userSpaceOnUse">
<stop stop-color="#CD7CFF" stop-opacity="0.5"/>
<stop offset="1" stop-color="#9E00FF" stop-opacity="0"/>
</linearGradient>
<linearGradient id="paint5_linear_125_2" x1="112.334" y1="96.413" x2="261.432" y2="96.413" gradientUnits="userSpaceOnUse">
<stop stop-color="#AE48FF" stop-opacity="0"/>
<stop offset="0.9751" stop-color="#865CFF" stop-opacity="0.4782"/>
<stop offset="1" stop-color="#CB36FF" stop-opacity="0.5"/>
</linearGradient>
<linearGradient id="paint6_linear_125_2" x1="65.8764" y1="182.072" x2="151.875" y2="182.072" gradientUnits="userSpaceOnUse">
<stop stop-color="#B66EFF" stop-opacity="0.5"/>
<stop offset="1" stop-color="#3B0AFF" stop-opacity="0"/>
</linearGradient>
<linearGradient id="paint7_linear_125_2" x1="226.755" y1="16.5543" x2="326.336" y2="42.9825" gradientUnits="userSpaceOnUse">
<stop stop-color="white" stop-opacity="0.5"/>
<stop offset="0.0001" stop-color="white" stop-opacity="0.5"/>
<stop offset="0.0248924" stop-color="#6865FF" stop-opacity="0.4782"/>
<stop offset="1" stop-color="#6D3AFF" stop-opacity="0"/>
</linearGradient>
<clipPath id="clip0_125_2">
<rect width="594" height="347" fill="white" transform="translate(-256)"/>
</clipPath>
</defs>
</svg>
