<svg width="704" height="478" viewBox="0 0 704 478" fill="none" xmlns="http://www.w3.org/2000/svg">
<g clip-path="url(#clip0_49_2677)">
<path d="M6.9 205.3C3.7 205.3 3.7 210.3 6.9 210.3C10.1 210.3 10.1 205.3 6.9 205.3Z" fill="url(#paint0_radial_49_2677)"/>
<path d="M62.4996 139.7C59.2996 139.7 59.2996 144.7 62.4996 144.7C65.6996 144.7 65.6996 139.7 62.4996 139.7Z" fill="url(#paint1_radial_49_2677)"/>
<path d="M67.9996 235.3C64.7996 235.3 64.7996 240.3 67.9996 240.3C71.1996 240.3 71.1996 235.3 67.9996 235.3Z" fill="url(#paint2_radial_49_2677)"/>
<path d="M148.1 56.3C144.9 56.3 144.9 61.3 148.1 61.3C151.3 61.3 151.3 56.3 148.1 56.3Z" fill="url(#paint3_radial_49_2677)"/>
<path d="M138.1 286.5C134.9 286.5 134.9 291.5 138.1 291.5C141.3 291.5 141.3 286.5 138.1 286.5Z" fill="url(#paint4_radial_49_2677)"/>
<path d="M160.3 423.3C157.1 423.3 157.1 428.3 160.3 428.3C163.5 428.3 163.5 423.3 160.3 423.3Z" fill="url(#paint5_radial_49_2677)"/>
<path d="M605.1 255.4C601.9 255.4 601.9 260.4 605.1 260.4C608.3 260.4 608.3 255.4 605.1 255.4Z" fill="url(#paint6_radial_49_2677)"/>
<path d="M557.3 182C554.1 182 554.1 187 557.3 187C560.5 187 560.5 182 557.3 182Z" fill="url(#paint7_radial_49_2677)"/>
<path d="M570.6 86.3C567.4 86.3 567.4 91.3 570.6 91.3C573.8 91.3 573.9 86.3 570.6 86.3Z" fill="url(#paint8_radial_49_2677)"/>
<path d="M695.2 193.1C692 193.1 692 198.1 695.2 198.1C698.4 198.1 698.4 193.1 695.2 193.1Z" fill="url(#paint9_radial_49_2677)"/>
<path d="M646.2 304.3C643 304.3 643 309.3 646.2 309.3C649.5 309.3 649.5 304.3 646.2 304.3Z" fill="url(#paint10_radial_49_2677)"/>
<path d="M536.2 452.2C533 452.2 533 457.2 536.2 457.2C539.4 457.2 539.4 452.2 536.2 452.2Z" fill="url(#paint11_radial_49_2677)"/>
<path d="M636.2 8.5C633 8.5 633 13.5 636.2 13.5C639.5 13.5 639.5 8.5 636.2 8.5Z" fill="url(#paint12_radial_49_2677)"/>
<path d="M531.7 23C528.5 23 528.5 28 531.7 28C534.9 28 534.9 23 531.7 23Z" fill="url(#paint13_radial_49_2677)"/>
<path d="M238.2 21.8999C235 21.8999 235 26.8999 238.2 26.8999C241.4 26.8999 241.4 21.8999 238.2 21.8999Z" fill="url(#paint14_radial_49_2677)"/>
<path d="M112.5 14.1001C109.3 14.1001 109.3 19.1001 112.5 19.1001C115.7 19.1001 115.7 14.1001 112.5 14.1001Z" fill="url(#paint15_radial_49_2677)"/>
<path d="M2.4 138.6C-0.8 138.6 -0.8 143.6 2.4 143.6C5.6 143.6 5.6 138.6 2.4 138.6Z" fill="url(#paint16_radial_49_2677)"/>
<path d="M147 396.6C143.8 396.6 143.8 401.6 147 401.6C150.2 401.6 150.2 396.6 147 396.6Z" fill="url(#paint17_radial_49_2677)"/>
<path d="M169.2 338.8C166 338.8 166 343.8 169.2 343.8C172.4 343.8 172.4 338.8 169.2 338.8Z" fill="url(#paint18_radial_49_2677)"/>
<path d="M180.3 395.5C177.1 395.5 177.1 400.5 180.3 400.5C183.5 400.5 183.6 395.5 180.3 395.5Z" fill="url(#paint19_radial_49_2677)"/>
<path d="M497.2 472.2C494 472.2 494 477.2 497.2 477.2C500.5 477.2 500.5 472.2 497.2 472.2Z" fill="url(#paint20_radial_49_2677)"/>
<path d="M582.9 351C579.7 351 579.7 356 582.9 356C586.1 356 586.1 351 582.9 351Z" fill="url(#paint21_radial_49_2677)"/>
<path d="M21.3002 176.8C20.0002 176.8 20.0002 178.8 21.3002 178.8C22.6002 178.8 22.6002 176.8 21.3002 176.8Z" fill="url(#paint22_radial_49_2677)"/>
<path d="M36.8998 144.6C35.5998 144.6 35.5998 146.6 36.8998 146.6C38.1998 146.6 38.1998 144.6 36.8998 144.6Z" fill="url(#paint23_radial_49_2677)"/>
<path d="M84.6996 217.9C83.3996 217.9 83.3996 219.9 84.6996 219.9C85.9996 219.9 85.9996 217.9 84.6996 217.9Z" fill="url(#paint24_radial_49_2677)"/>
<path d="M53.6 285.8C52.3 285.8 52.3 287.8 53.6 287.8C54.9 287.8 54.9 285.8 53.6 285.8Z" fill="url(#paint25_radial_49_2677)"/>
<path d="M116.9 288C115.6 288 115.6 290 116.9 290C118.2 290 118.2 288 116.9 288Z" fill="url(#paint26_radial_49_2677)"/>
<path d="M142.5 201.3C141.2 201.3 141.2 203.3 142.5 203.3C143.8 203.3 143.8 201.3 142.5 201.3Z" fill="url(#paint27_radial_49_2677)"/>
<path d="M125.8 96.7C124.5 96.7 124.5 98.7 125.8 98.7C127.1 98.7 127.1 96.7 125.8 96.7Z" fill="url(#paint28_radial_49_2677)"/>
<path d="M112.5 47.8C111.2 47.8 111.2 49.8 112.5 49.8C113.8 49.8 113.8 47.8 112.5 47.8Z" fill="url(#paint29_radial_49_2677)"/>
<path d="M159.2 34.5C157.9 34.5 157.9 36.5 159.2 36.5C160.5 36.5 160.5 34.5 159.2 34.5Z" fill="url(#paint30_radial_49_2677)"/>
<path d="M185.9 55.6001C184.6 55.6001 184.6 57.6001 185.9 57.6001C187.2 57.6001 187.2 55.6001 185.9 55.6001Z" fill="url(#paint31_radial_49_2677)"/>
<path d="M191.4 33.3999C190.1 33.3999 190.1 35.3999 191.4 35.3999C192.7 35.3999 192.7 33.3999 191.4 33.3999Z" fill="url(#paint32_radial_49_2677)"/>
<path d="M178.1 86.7C176.8 86.7 176.8 88.7 178.1 88.7C179.4 88.7 179.4 86.7 178.1 86.7Z" fill="url(#paint33_radial_49_2677)"/>
<path d="M42.3998 424.8C41.0998 424.8 41.0998 426.8 42.3998 426.8C43.6998 426.8 43.6998 424.8 42.3998 424.8Z" fill="url(#paint34_radial_49_2677)"/>
<path d="M44.6996 400.3C43.3996 400.3 43.3996 402.3 44.6996 402.3C45.9996 402.3 45.9996 400.3 44.6996 400.3Z" fill="url(#paint35_radial_49_2677)"/>
<path d="M31.3002 400.3C30.0002 400.3 30.0002 402.3 31.3002 402.3C32.6002 402.3 32.6002 400.3 31.3002 400.3Z" fill="url(#paint36_radial_49_2677)"/>
<path d="M642.9 390.3C641.6 390.3 641.6 392.3 642.9 392.3C644.2 392.3 644.2 390.3 642.9 390.3Z" fill="url(#paint37_radial_49_2677)"/>
<path d="M666.3 358.1C665 358.1 665 360.1 666.3 360.1C667.5 360.1 667.5 358.1 666.3 358.1Z" fill="url(#paint38_radial_49_2677)"/>
<path d="M638.5 353.6C637.2 353.6 637.2 355.6 638.5 355.6C639.7 355.6 639.8 353.6 638.5 353.6Z" fill="url(#paint39_radial_49_2677)"/>
<path d="M666.3 333.6C665 333.6 665 335.6 666.3 335.6C667.5 335.6 667.5 333.6 666.3 333.6Z" fill="url(#paint40_radial_49_2677)"/>
<path d="M703 348C701.7 348 701.7 350 703 350C704.2 350 704.2 348 703 348Z" fill="url(#paint41_radial_49_2677)"/>
<path d="M620.7 123.4C619.4 123.4 619.4 125.4 620.7 125.4C622 125.4 622 123.4 620.7 123.4Z" fill="url(#paint42_radial_49_2677)"/>
<path d="M667.4 97.8999C666.1 97.8999 666.1 99.8999 667.4 99.8999C668.7 99.8999 668.7 97.8999 667.4 97.8999Z" fill="url(#paint43_radial_49_2677)"/>
<path d="M647.4 155.7C646.1 155.7 646.1 157.7 647.4 157.7C648.6 157.7 648.6 155.7 647.4 155.7Z" fill="url(#paint44_radial_49_2677)"/>
<path d="M637.3 226.8C636 226.8 636 228.8 637.3 228.8C638.6 228.8 638.6 226.8 637.3 226.8Z" fill="url(#paint45_radial_49_2677)"/>
<path d="M579.5 207.9C578.2 207.9 578.2 209.9 579.5 209.9C580.8 209.9 580.8 207.9 579.5 207.9Z" fill="url(#paint46_radial_49_2677)"/>
<path d="M584 156.8C582.7 156.8 582.7 158.8 584 158.8C585.3 158.8 585.3 156.8 584 156.8Z" fill="url(#paint47_radial_49_2677)"/>
<path d="M551.7 170.1C550.4 170.1 550.4 172.1 551.7 172.1C553 172.1 553 170.1 551.7 170.1Z" fill="url(#paint48_radial_49_2677)"/>
<path d="M561.7 145.7C560.4 145.7 560.4 147.7 561.7 147.7C563 147.7 563 145.7 561.7 145.7Z" fill="url(#paint49_radial_49_2677)"/>
<path d="M584 132.3C582.7 132.3 582.7 134.3 584 134.3C585.3 134.3 585.3 132.3 584 132.3Z" fill="url(#paint50_radial_49_2677)"/>
<path d="M568.4 119C567.1 119 567.1 121 568.4 121C569.7 121 569.7 119 568.4 119Z" fill="url(#paint51_radial_49_2677)"/>
<path d="M557.3 44.5C556 44.5 556 46.5 557.3 46.5C558.6 46.5 558.6 44.5 557.3 44.5Z" fill="url(#paint52_radial_49_2677)"/>
<path d="M616.2 0C614.9 0 614.9 2 616.2 2C617.5 2 617.5 0 616.2 0Z" fill="url(#paint53_radial_49_2677)"/>
<path d="M666.3 30C665 30 665 32 666.3 32C667.5 32 667.5 30 666.3 30Z" fill="url(#paint54_radial_49_2677)"/>
<path d="M681.8 23.3999C680.5 23.3999 680.5 25.3999 681.8 25.3999C683.1 25.3999 683.1 23.3999 681.8 23.3999Z" fill="url(#paint55_radial_49_2677)"/>
<path d="M429.4 24.5C428.1 24.5 428.1 26.5 429.4 26.5C430.7 26.5 430.7 24.5 429.4 24.5Z" fill="url(#paint56_radial_49_2677)"/>
<path d="M415 45.6001C413.7 45.6001 413.7 47.6001 415 47.6001C416.2 47.6001 416.2 45.6001 415 45.6001Z" fill="url(#paint57_radial_49_2677)"/>
<path d="M402.7 23.3999C401.4 23.3999 401.4 25.3999 402.7 25.3999C404 25.3999 404 23.3999 402.7 23.3999Z" fill="url(#paint58_radial_49_2677)"/>
<path d="M377.1 41.1001C375.8 41.1001 375.8 43.1001 377.1 43.1001C378.4 43.1001 378.4 41.1001 377.1 41.1001Z" fill="url(#paint59_radial_49_2677)"/>
<path d="M493.9 240.2C492.6 240.2 492.6 242.2 493.9 242.2C495.2 242.2 495.2 240.2 493.9 240.2Z" fill="url(#paint60_radial_49_2677)"/>
<path d="M460.5 280.2C459.2 280.2 459.2 282.2 460.5 282.2C461.8 282.2 461.8 280.2 460.5 280.2Z" fill="url(#paint61_radial_49_2677)"/>
<path d="M510.6 264.6C509.3 264.6 509.3 266.6 510.6 266.6C511.9 266.6 511.9 264.6 510.6 264.6Z" fill="url(#paint62_radial_49_2677)"/>
</g>
<defs>
<radialGradient id="paint0_radial_49_2677" cx="0" cy="0" r="1" gradientUnits="userSpaceOnUse" gradientTransform="translate(6.8629 207.826) scale(2.4578)">
<stop offset="0.148" stop-color="#6CBEFC"/>
<stop offset="0.3226" stop-color="#66B3E6" stop-opacity="0.7951"/>
<stop offset="0.5865" stop-color="#5EA6CB" stop-opacity="0.4854"/>
<stop offset="0.8209" stop-color="#5A9EBB" stop-opacity="0.2103"/>
<stop offset="1" stop-color="#589BB5" stop-opacity="0"/>
</radialGradient>
<radialGradient id="paint1_radial_49_2677" cx="0" cy="0" r="1" gradientUnits="userSpaceOnUse" gradientTransform="translate(62.4609 142.22) scale(2.4578)">
<stop offset="0.148" stop-color="#6CBEFC"/>
<stop offset="0.3226" stop-color="#66B3E6" stop-opacity="0.7951"/>
<stop offset="0.5865" stop-color="#5EA6CB" stop-opacity="0.4854"/>
<stop offset="0.8209" stop-color="#5A9EBB" stop-opacity="0.2103"/>
<stop offset="1" stop-color="#589BB5" stop-opacity="0"/>
</radialGradient>
<radialGradient id="paint2_radial_49_2677" cx="0" cy="0" r="1" gradientUnits="userSpaceOnUse" gradientTransform="translate(68.0207 237.849) scale(2.4578)">
<stop offset="0.148" stop-color="#6CBEFC"/>
<stop offset="0.3226" stop-color="#66B3E6" stop-opacity="0.7951"/>
<stop offset="0.5865" stop-color="#5EA6CB" stop-opacity="0.4854"/>
<stop offset="0.8209" stop-color="#5A9EBB" stop-opacity="0.2103"/>
<stop offset="1" stop-color="#589BB5" stop-opacity="0"/>
</radialGradient>
<radialGradient id="paint3_radial_49_2677" cx="0" cy="0" r="1" gradientUnits="userSpaceOnUse" gradientTransform="translate(148.083 58.8224) scale(2.4578)">
<stop offset="0.148" stop-color="#6CBEFC"/>
<stop offset="0.3226" stop-color="#66B3E6" stop-opacity="0.7951"/>
<stop offset="0.5865" stop-color="#5EA6CB" stop-opacity="0.4854"/>
<stop offset="0.8209" stop-color="#5A9EBB" stop-opacity="0.2103"/>
<stop offset="1" stop-color="#589BB5" stop-opacity="0"/>
</radialGradient>
<radialGradient id="paint4_radial_49_2677" cx="0" cy="0" r="1" gradientUnits="userSpaceOnUse" gradientTransform="translate(138.075 289) scale(2.4578)">
<stop offset="0.148" stop-color="#6CBEFC"/>
<stop offset="0.3226" stop-color="#66B3E6" stop-opacity="0.7951"/>
<stop offset="0.5865" stop-color="#5EA6CB" stop-opacity="0.4854"/>
<stop offset="0.8209" stop-color="#5A9EBB" stop-opacity="0.2103"/>
<stop offset="1" stop-color="#589BB5" stop-opacity="0"/>
</radialGradient>
<radialGradient id="paint5_radial_49_2677" cx="0" cy="0" r="1" gradientUnits="userSpaceOnUse" gradientTransform="translate(160.315 425.772) scale(2.4578)">
<stop offset="0.148" stop-color="#6CBEFC"/>
<stop offset="0.3226" stop-color="#66B3E6" stop-opacity="0.7951"/>
<stop offset="0.5865" stop-color="#5EA6CB" stop-opacity="0.4854"/>
<stop offset="0.8209" stop-color="#5A9EBB" stop-opacity="0.2103"/>
<stop offset="1" stop-color="#589BB5" stop-opacity="0"/>
</radialGradient>
<radialGradient id="paint6_radial_49_2677" cx="0" cy="0" r="1" gradientUnits="userSpaceOnUse" gradientTransform="translate(605.102 257.865) scale(2.4578)">
<stop offset="0.148" stop-color="#6CBEFC"/>
<stop offset="0.3226" stop-color="#66B3E6" stop-opacity="0.7951"/>
<stop offset="0.5865" stop-color="#5EA6CB" stop-opacity="0.4854"/>
<stop offset="0.8209" stop-color="#5A9EBB" stop-opacity="0.2103"/>
<stop offset="1" stop-color="#589BB5" stop-opacity="0"/>
</radialGradient>
<radialGradient id="paint7_radial_49_2677" cx="0" cy="0" r="1" gradientUnits="userSpaceOnUse" gradientTransform="translate(557.288 184.475) scale(2.4578)">
<stop offset="0.148" stop-color="#6CBEFC"/>
<stop offset="0.3226" stop-color="#66B3E6" stop-opacity="0.7951"/>
<stop offset="0.5865" stop-color="#5EA6CB" stop-opacity="0.4854"/>
<stop offset="0.8209" stop-color="#5A9EBB" stop-opacity="0.2103"/>
<stop offset="1" stop-color="#589BB5" stop-opacity="0"/>
</radialGradient>
<radialGradient id="paint8_radial_49_2677" cx="0" cy="0" r="1" gradientUnits="userSpaceOnUse" gradientTransform="translate(570.631 88.8455) scale(2.4578)">
<stop offset="0.148" stop-color="#6CBEFC"/>
<stop offset="0.3226" stop-color="#66B3E6" stop-opacity="0.7951"/>
<stop offset="0.5865" stop-color="#5EA6CB" stop-opacity="0.4854"/>
<stop offset="0.8209" stop-color="#5A9EBB" stop-opacity="0.2103"/>
<stop offset="1" stop-color="#589BB5" stop-opacity="0"/>
</radialGradient>
<radialGradient id="paint9_radial_49_2677" cx="0" cy="0" r="1" gradientUnits="userSpaceOnUse" gradientTransform="translate(695.172 195.595) scale(2.4578)">
<stop offset="0.148" stop-color="#6CBEFC"/>
<stop offset="0.3226" stop-color="#66B3E6" stop-opacity="0.7951"/>
<stop offset="0.5865" stop-color="#5EA6CB" stop-opacity="0.4854"/>
<stop offset="0.8209" stop-color="#5A9EBB" stop-opacity="0.2103"/>
<stop offset="1" stop-color="#589BB5" stop-opacity="0"/>
</radialGradient>
<radialGradient id="paint10_radial_49_2677" cx="0" cy="0" r="1" gradientUnits="userSpaceOnUse" gradientTransform="translate(646.245 306.791) scale(2.4578)">
<stop offset="0.148" stop-color="#6CBEFC"/>
<stop offset="0.3226" stop-color="#66B3E6" stop-opacity="0.7951"/>
<stop offset="0.5865" stop-color="#5EA6CB" stop-opacity="0.4854"/>
<stop offset="0.8209" stop-color="#5A9EBB" stop-opacity="0.2103"/>
<stop offset="1" stop-color="#589BB5" stop-opacity="0"/>
</radialGradient>
<radialGradient id="paint11_radial_49_2677" cx="0" cy="0" r="1" gradientUnits="userSpaceOnUse" gradientTransform="translate(536.16 454.683) scale(2.4578)">
<stop offset="0.148" stop-color="#6CBEFC"/>
<stop offset="0.3226" stop-color="#66B3E6" stop-opacity="0.7951"/>
<stop offset="0.5865" stop-color="#5EA6CB" stop-opacity="0.4854"/>
<stop offset="0.8209" stop-color="#5A9EBB" stop-opacity="0.2103"/>
<stop offset="1" stop-color="#589BB5" stop-opacity="0"/>
</radialGradient>
<radialGradient id="paint12_radial_49_2677" cx="0" cy="0" r="1" gradientUnits="userSpaceOnUse" gradientTransform="translate(636.237 11.0077) scale(2.4578)">
<stop offset="0.148" stop-color="#6CBEFC"/>
<stop offset="0.3226" stop-color="#66B3E6" stop-opacity="0.7951"/>
<stop offset="0.5865" stop-color="#5EA6CB" stop-opacity="0.4854"/>
<stop offset="0.8209" stop-color="#5A9EBB" stop-opacity="0.2103"/>
<stop offset="1" stop-color="#589BB5" stop-opacity="0"/>
</radialGradient>
<radialGradient id="paint13_radial_49_2677" cx="0" cy="0" r="1" gradientUnits="userSpaceOnUse" gradientTransform="translate(531.712 25.4633) scale(2.4578)">
<stop offset="0.148" stop-color="#6CBEFC"/>
<stop offset="0.3226" stop-color="#66B3E6" stop-opacity="0.7951"/>
<stop offset="0.5865" stop-color="#5EA6CB" stop-opacity="0.4854"/>
<stop offset="0.8209" stop-color="#5A9EBB" stop-opacity="0.2103"/>
<stop offset="1" stop-color="#589BB5" stop-opacity="0"/>
</radialGradient>
<radialGradient id="paint14_radial_49_2677" cx="0" cy="0" r="1" gradientUnits="userSpaceOnUse" gradientTransform="translate(238.152 24.3512) scale(2.4578)">
<stop offset="0.148" stop-color="#6CBEFC"/>
<stop offset="0.3226" stop-color="#66B3E6" stop-opacity="0.7951"/>
<stop offset="0.5865" stop-color="#5EA6CB" stop-opacity="0.4854"/>
<stop offset="0.8209" stop-color="#5A9EBB" stop-opacity="0.2103"/>
<stop offset="1" stop-color="#589BB5" stop-opacity="0"/>
</radialGradient>
<radialGradient id="paint15_radial_49_2677" cx="0" cy="0" r="1" gradientUnits="userSpaceOnUse" gradientTransform="translate(112.5 16.5677) scale(2.4578)">
<stop offset="0.148" stop-color="#6CBEFC"/>
<stop offset="0.3226" stop-color="#66B3E6" stop-opacity="0.7951"/>
<stop offset="0.5865" stop-color="#5EA6CB" stop-opacity="0.4854"/>
<stop offset="0.8209" stop-color="#5A9EBB" stop-opacity="0.2103"/>
<stop offset="1" stop-color="#589BB5" stop-opacity="0"/>
</radialGradient>
<radialGradient id="paint16_radial_49_2677" cx="0" cy="0" r="1" gradientUnits="userSpaceOnUse" gradientTransform="translate(2.415 141.108) scale(2.4578)">
<stop offset="0.148" stop-color="#6CBEFC"/>
<stop offset="0.3226" stop-color="#66B3E6" stop-opacity="0.7951"/>
<stop offset="0.5865" stop-color="#5EA6CB" stop-opacity="0.4854"/>
<stop offset="0.8209" stop-color="#5A9EBB" stop-opacity="0.2103"/>
<stop offset="1" stop-color="#589BB5" stop-opacity="0"/>
</radialGradient>
<radialGradient id="paint17_radial_49_2677" cx="0" cy="0" r="1" gradientUnits="userSpaceOnUse" gradientTransform="translate(146.971 399.085) scale(2.4578)">
<stop offset="0.148" stop-color="#6CBEFC"/>
<stop offset="0.3226" stop-color="#66B3E6" stop-opacity="0.7951"/>
<stop offset="0.5865" stop-color="#5EA6CB" stop-opacity="0.4854"/>
<stop offset="0.8209" stop-color="#5A9EBB" stop-opacity="0.2103"/>
<stop offset="1" stop-color="#589BB5" stop-opacity="0"/>
</radialGradient>
<radialGradient id="paint18_radial_49_2677" cx="0" cy="0" r="1" gradientUnits="userSpaceOnUse" gradientTransform="translate(169.21 341.263) scale(2.4578)">
<stop offset="0.148" stop-color="#6CBEFC"/>
<stop offset="0.3226" stop-color="#66B3E6" stop-opacity="0.7951"/>
<stop offset="0.5865" stop-color="#5EA6CB" stop-opacity="0.4854"/>
<stop offset="0.8209" stop-color="#5A9EBB" stop-opacity="0.2103"/>
<stop offset="1" stop-color="#589BB5" stop-opacity="0"/>
</radialGradient>
<radialGradient id="paint19_radial_49_2677" cx="0" cy="0" r="1" gradientUnits="userSpaceOnUse" gradientTransform="translate(180.33 397.973) scale(2.4578)">
<stop offset="0.148" stop-color="#6CBEFC"/>
<stop offset="0.3226" stop-color="#66B3E6" stop-opacity="0.7951"/>
<stop offset="0.5865" stop-color="#5EA6CB" stop-opacity="0.4854"/>
<stop offset="0.8209" stop-color="#5A9EBB" stop-opacity="0.2103"/>
<stop offset="1" stop-color="#589BB5" stop-opacity="0"/>
</radialGradient>
<radialGradient id="paint20_radial_49_2677" cx="0" cy="0" r="1" gradientUnits="userSpaceOnUse" gradientTransform="translate(497.241 474.699) scale(2.4578)">
<stop offset="0.148" stop-color="#6CBEFC"/>
<stop offset="0.3226" stop-color="#66B3E6" stop-opacity="0.7951"/>
<stop offset="0.5865" stop-color="#5EA6CB" stop-opacity="0.4854"/>
<stop offset="0.8209" stop-color="#5A9EBB" stop-opacity="0.2103"/>
<stop offset="1" stop-color="#589BB5" stop-opacity="0"/>
</radialGradient>
<radialGradient id="paint21_radial_49_2677" cx="0" cy="0" r="1" gradientUnits="userSpaceOnUse" gradientTransform="translate(582.863 353.494) scale(2.4578)">
<stop offset="0.148" stop-color="#6CBEFC"/>
<stop offset="0.3226" stop-color="#66B3E6" stop-opacity="0.7951"/>
<stop offset="0.5865" stop-color="#5EA6CB" stop-opacity="0.4854"/>
<stop offset="0.8209" stop-color="#5A9EBB" stop-opacity="0.2103"/>
<stop offset="1" stop-color="#589BB5" stop-opacity="0"/>
</radialGradient>
<radialGradient id="paint22_radial_49_2677" cx="0" cy="0" r="1" gradientUnits="userSpaceOnUse" gradientTransform="translate(21.3187 177.803) scale(0.9831)">
<stop offset="0.148" stop-color="#6CBEFC"/>
<stop offset="0.3226" stop-color="#66B3E6" stop-opacity="0.7951"/>
<stop offset="0.5865" stop-color="#5EA6CB" stop-opacity="0.4854"/>
<stop offset="0.8209" stop-color="#5A9EBB" stop-opacity="0.2103"/>
<stop offset="1" stop-color="#589BB5" stop-opacity="0"/>
</radialGradient>
<radialGradient id="paint23_radial_49_2677" cx="0" cy="0" r="1" gradientUnits="userSpaceOnUse" gradientTransform="translate(36.8858 145.556) scale(0.9831)">
<stop offset="0.148" stop-color="#6CBEFC"/>
<stop offset="0.3226" stop-color="#66B3E6" stop-opacity="0.7951"/>
<stop offset="0.5865" stop-color="#5EA6CB" stop-opacity="0.4854"/>
<stop offset="0.8209" stop-color="#5A9EBB" stop-opacity="0.2103"/>
<stop offset="1" stop-color="#589BB5" stop-opacity="0"/>
</radialGradient>
<radialGradient id="paint24_radial_49_2677" cx="0" cy="0" r="1" gradientUnits="userSpaceOnUse" gradientTransform="translate(84.7003 218.946) scale(0.9831)">
<stop offset="0.148" stop-color="#6CBEFC"/>
<stop offset="0.3226" stop-color="#66B3E6" stop-opacity="0.7951"/>
<stop offset="0.5865" stop-color="#5EA6CB" stop-opacity="0.4854"/>
<stop offset="0.8209" stop-color="#5A9EBB" stop-opacity="0.2103"/>
<stop offset="1" stop-color="#589BB5" stop-opacity="0"/>
</radialGradient>
<radialGradient id="paint25_radial_49_2677" cx="0" cy="0" r="1" gradientUnits="userSpaceOnUse" gradientTransform="translate(53.5656 286.776) scale(0.9831)">
<stop offset="0.148" stop-color="#6CBEFC"/>
<stop offset="0.3226" stop-color="#66B3E6" stop-opacity="0.7951"/>
<stop offset="0.5865" stop-color="#5EA6CB" stop-opacity="0.4854"/>
<stop offset="0.8209" stop-color="#5A9EBB" stop-opacity="0.2103"/>
<stop offset="1" stop-color="#589BB5" stop-opacity="0"/>
</radialGradient>
<radialGradient id="paint26_radial_49_2677" cx="0" cy="0" r="1" gradientUnits="userSpaceOnUse" gradientTransform="translate(116.948 289) scale(0.9831)">
<stop offset="0.148" stop-color="#6CBEFC"/>
<stop offset="0.3226" stop-color="#66B3E6" stop-opacity="0.7951"/>
<stop offset="0.5865" stop-color="#5EA6CB" stop-opacity="0.4854"/>
<stop offset="0.8209" stop-color="#5A9EBB" stop-opacity="0.2103"/>
<stop offset="1" stop-color="#589BB5" stop-opacity="0"/>
</radialGradient>
<radialGradient id="paint27_radial_49_2677" cx="0" cy="0" r="1" gradientUnits="userSpaceOnUse" gradientTransform="translate(142.523 202.266) scale(0.9831)">
<stop offset="0.148" stop-color="#6CBEFC"/>
<stop offset="0.3226" stop-color="#66B3E6" stop-opacity="0.7951"/>
<stop offset="0.5865" stop-color="#5EA6CB" stop-opacity="0.4854"/>
<stop offset="0.8209" stop-color="#5A9EBB" stop-opacity="0.2103"/>
<stop offset="1" stop-color="#589BB5" stop-opacity="0"/>
</radialGradient>
<radialGradient id="paint28_radial_49_2677" cx="0" cy="0" r="1" gradientUnits="userSpaceOnUse" gradientTransform="translate(125.844 97.7413) scale(0.9831)">
<stop offset="0.148" stop-color="#6CBEFC"/>
<stop offset="0.3226" stop-color="#66B3E6" stop-opacity="0.7951"/>
<stop offset="0.5865" stop-color="#5EA6CB" stop-opacity="0.4854"/>
<stop offset="0.8209" stop-color="#5A9EBB" stop-opacity="0.2103"/>
<stop offset="1" stop-color="#589BB5" stop-opacity="0"/>
</radialGradient>
<radialGradient id="paint29_radial_49_2677" cx="0" cy="0" r="1" gradientUnits="userSpaceOnUse" gradientTransform="translate(112.5 48.8146) scale(0.9831)">
<stop offset="0.148" stop-color="#6CBEFC"/>
<stop offset="0.3226" stop-color="#66B3E6" stop-opacity="0.7951"/>
<stop offset="0.5865" stop-color="#5EA6CB" stop-opacity="0.4854"/>
<stop offset="0.8209" stop-color="#5A9EBB" stop-opacity="0.2103"/>
<stop offset="1" stop-color="#589BB5" stop-opacity="0"/>
</radialGradient>
<radialGradient id="paint30_radial_49_2677" cx="0" cy="0" r="1" gradientUnits="userSpaceOnUse" gradientTransform="translate(159.202 35.471) scale(0.9831)">
<stop offset="0.148" stop-color="#6CBEFC"/>
<stop offset="0.3226" stop-color="#66B3E6" stop-opacity="0.7951"/>
<stop offset="0.5865" stop-color="#5EA6CB" stop-opacity="0.4854"/>
<stop offset="0.8209" stop-color="#5A9EBB" stop-opacity="0.2103"/>
<stop offset="1" stop-color="#589BB5" stop-opacity="0"/>
</radialGradient>
<radialGradient id="paint31_radial_49_2677" cx="0" cy="0" r="1" gradientUnits="userSpaceOnUse" gradientTransform="translate(185.89 56.5985) scale(0.9831)">
<stop offset="0.148" stop-color="#6CBEFC"/>
<stop offset="0.3226" stop-color="#66B3E6" stop-opacity="0.7951"/>
<stop offset="0.5865" stop-color="#5EA6CB" stop-opacity="0.4854"/>
<stop offset="0.8209" stop-color="#5A9EBB" stop-opacity="0.2103"/>
<stop offset="1" stop-color="#589BB5" stop-opacity="0"/>
</radialGradient>
<radialGradient id="paint32_radial_49_2677" cx="0" cy="0" r="1" gradientUnits="userSpaceOnUse" gradientTransform="translate(191.45 34.359) scale(0.9831)">
<stop offset="0.148" stop-color="#6CBEFC"/>
<stop offset="0.3226" stop-color="#66B3E6" stop-opacity="0.7951"/>
<stop offset="0.5865" stop-color="#5EA6CB" stop-opacity="0.4854"/>
<stop offset="0.8209" stop-color="#5A9EBB" stop-opacity="0.2103"/>
<stop offset="1" stop-color="#589BB5" stop-opacity="0"/>
</radialGradient>
<radialGradient id="paint33_radial_49_2677" cx="0" cy="0" r="1" gradientUnits="userSpaceOnUse" gradientTransform="translate(178.106 87.7336) scale(0.9831)">
<stop offset="0.148" stop-color="#6CBEFC"/>
<stop offset="0.3226" stop-color="#66B3E6" stop-opacity="0.7951"/>
<stop offset="0.5865" stop-color="#5EA6CB" stop-opacity="0.4854"/>
<stop offset="0.8209" stop-color="#5A9EBB" stop-opacity="0.2103"/>
<stop offset="1" stop-color="#589BB5" stop-opacity="0"/>
</radialGradient>
<radialGradient id="paint34_radial_49_2677" cx="0" cy="0" r="1" gradientUnits="userSpaceOnUse" gradientTransform="translate(42.4457 425.772) scale(0.9831)">
<stop offset="0.148" stop-color="#6CBEFC"/>
<stop offset="0.3226" stop-color="#66B3E6" stop-opacity="0.7951"/>
<stop offset="0.5865" stop-color="#5EA6CB" stop-opacity="0.4854"/>
<stop offset="0.8209" stop-color="#5A9EBB" stop-opacity="0.2103"/>
<stop offset="1" stop-color="#589BB5" stop-opacity="0"/>
</radialGradient>
<radialGradient id="paint35_radial_49_2677" cx="0" cy="0" r="1" gradientUnits="userSpaceOnUse" gradientTransform="translate(44.6694 401.309) scale(0.9831)">
<stop offset="0.148" stop-color="#6CBEFC"/>
<stop offset="0.3226" stop-color="#66B3E6" stop-opacity="0.7951"/>
<stop offset="0.5865" stop-color="#5EA6CB" stop-opacity="0.4854"/>
<stop offset="0.8209" stop-color="#5A9EBB" stop-opacity="0.2103"/>
<stop offset="1" stop-color="#589BB5" stop-opacity="0"/>
</radialGradient>
<radialGradient id="paint36_radial_49_2677" cx="0" cy="0" r="1" gradientUnits="userSpaceOnUse" gradientTransform="translate(31.3264 401.309) scale(0.9831)">
<stop offset="0.148" stop-color="#6CBEFC"/>
<stop offset="0.3226" stop-color="#66B3E6" stop-opacity="0.7951"/>
<stop offset="0.5865" stop-color="#5EA6CB" stop-opacity="0.4854"/>
<stop offset="0.8209" stop-color="#5A9EBB" stop-opacity="0.2103"/>
<stop offset="1" stop-color="#589BB5" stop-opacity="0"/>
</radialGradient>
<radialGradient id="paint37_radial_49_2677" cx="0" cy="0" r="1" gradientUnits="userSpaceOnUse" gradientTransform="translate(642.909 391.301) scale(0.9831)">
<stop offset="0.148" stop-color="#6CBEFC"/>
<stop offset="0.3226" stop-color="#66B3E6" stop-opacity="0.7951"/>
<stop offset="0.5865" stop-color="#5EA6CB" stop-opacity="0.4854"/>
<stop offset="0.8209" stop-color="#5A9EBB" stop-opacity="0.2103"/>
<stop offset="1" stop-color="#589BB5" stop-opacity="0"/>
</radialGradient>
<radialGradient id="paint38_radial_49_2677" cx="0" cy="0" r="1" gradientUnits="userSpaceOnUse" gradientTransform="translate(666.261 359.054) scale(0.9831)">
<stop offset="0.148" stop-color="#6CBEFC"/>
<stop offset="0.3226" stop-color="#66B3E6" stop-opacity="0.7951"/>
<stop offset="0.5865" stop-color="#5EA6CB" stop-opacity="0.4854"/>
<stop offset="0.8209" stop-color="#5A9EBB" stop-opacity="0.2103"/>
<stop offset="1" stop-color="#589BB5" stop-opacity="0"/>
</radialGradient>
<radialGradient id="paint39_radial_49_2677" cx="0" cy="0" r="1" gradientUnits="userSpaceOnUse" gradientTransform="translate(638.462 354.606) scale(0.9831)">
<stop offset="0.148" stop-color="#6CBEFC"/>
<stop offset="0.3226" stop-color="#66B3E6" stop-opacity="0.7951"/>
<stop offset="0.5865" stop-color="#5EA6CB" stop-opacity="0.4854"/>
<stop offset="0.8209" stop-color="#5A9EBB" stop-opacity="0.2103"/>
<stop offset="1" stop-color="#589BB5" stop-opacity="0"/>
</radialGradient>
<radialGradient id="paint40_radial_49_2677" cx="0" cy="0" r="1" gradientUnits="userSpaceOnUse" gradientTransform="translate(666.261 334.591) scale(0.9831)">
<stop offset="0.148" stop-color="#6CBEFC"/>
<stop offset="0.3226" stop-color="#66B3E6" stop-opacity="0.7951"/>
<stop offset="0.5865" stop-color="#5EA6CB" stop-opacity="0.4854"/>
<stop offset="0.8209" stop-color="#5A9EBB" stop-opacity="0.2103"/>
<stop offset="1" stop-color="#589BB5" stop-opacity="0"/>
</radialGradient>
<radialGradient id="paint41_radial_49_2677" cx="0" cy="0" r="1" gradientUnits="userSpaceOnUse" gradientTransform="translate(702.956 349.046) scale(0.9831)">
<stop offset="0.148" stop-color="#6CBEFC"/>
<stop offset="0.3226" stop-color="#66B3E6" stop-opacity="0.7951"/>
<stop offset="0.5865" stop-color="#5EA6CB" stop-opacity="0.4854"/>
<stop offset="0.8209" stop-color="#5A9EBB" stop-opacity="0.2103"/>
<stop offset="1" stop-color="#589BB5" stop-opacity="0"/>
</radialGradient>
<radialGradient id="paint42_radial_49_2677" cx="0" cy="0" r="1" gradientUnits="userSpaceOnUse" gradientTransform="translate(620.669 124.428) scale(0.9831)">
<stop offset="0.148" stop-color="#6CBEFC"/>
<stop offset="0.3226" stop-color="#66B3E6" stop-opacity="0.7951"/>
<stop offset="0.5865" stop-color="#5EA6CB" stop-opacity="0.4854"/>
<stop offset="0.8209" stop-color="#5A9EBB" stop-opacity="0.2103"/>
<stop offset="1" stop-color="#589BB5" stop-opacity="0"/>
</radialGradient>
<radialGradient id="paint43_radial_49_2677" cx="0" cy="0" r="1" gradientUnits="userSpaceOnUse" gradientTransform="translate(667.372 98.8532) scale(0.9831)">
<stop offset="0.148" stop-color="#6CBEFC"/>
<stop offset="0.3226" stop-color="#66B3E6" stop-opacity="0.7951"/>
<stop offset="0.5865" stop-color="#5EA6CB" stop-opacity="0.4854"/>
<stop offset="0.8209" stop-color="#5A9EBB" stop-opacity="0.2103"/>
<stop offset="1" stop-color="#589BB5" stop-opacity="0"/>
</radialGradient>
<radialGradient id="paint44_radial_49_2677" cx="0" cy="0" r="1" gradientUnits="userSpaceOnUse" gradientTransform="translate(647.357 156.676) scale(0.9831)">
<stop offset="0.148" stop-color="#6CBEFC"/>
<stop offset="0.3226" stop-color="#66B3E6" stop-opacity="0.7951"/>
<stop offset="0.5865" stop-color="#5EA6CB" stop-opacity="0.4854"/>
<stop offset="0.8209" stop-color="#5A9EBB" stop-opacity="0.2103"/>
<stop offset="1" stop-color="#589BB5" stop-opacity="0"/>
</radialGradient>
<radialGradient id="paint45_radial_49_2677" cx="0" cy="0" r="1" gradientUnits="userSpaceOnUse" gradientTransform="translate(637.349 227.842) scale(0.9831)">
<stop offset="0.148" stop-color="#6CBEFC"/>
<stop offset="0.3226" stop-color="#66B3E6" stop-opacity="0.7951"/>
<stop offset="0.5865" stop-color="#5EA6CB" stop-opacity="0.4854"/>
<stop offset="0.8209" stop-color="#5A9EBB" stop-opacity="0.2103"/>
<stop offset="1" stop-color="#589BB5" stop-opacity="0"/>
</radialGradient>
<radialGradient id="paint46_radial_49_2677" cx="0" cy="0" r="1" gradientUnits="userSpaceOnUse" gradientTransform="translate(579.527 208.938) scale(0.9831)">
<stop offset="0.148" stop-color="#6CBEFC"/>
<stop offset="0.3226" stop-color="#66B3E6" stop-opacity="0.7951"/>
<stop offset="0.5865" stop-color="#5EA6CB" stop-opacity="0.4854"/>
<stop offset="0.8209" stop-color="#5A9EBB" stop-opacity="0.2103"/>
<stop offset="1" stop-color="#589BB5" stop-opacity="0"/>
</radialGradient>
<radialGradient id="paint47_radial_49_2677" cx="0" cy="0" r="1" gradientUnits="userSpaceOnUse" gradientTransform="translate(583.975 157.788) scale(0.9831)">
<stop offset="0.148" stop-color="#6CBEFC"/>
<stop offset="0.3226" stop-color="#66B3E6" stop-opacity="0.7951"/>
<stop offset="0.5865" stop-color="#5EA6CB" stop-opacity="0.4854"/>
<stop offset="0.8209" stop-color="#5A9EBB" stop-opacity="0.2103"/>
<stop offset="1" stop-color="#589BB5" stop-opacity="0"/>
</radialGradient>
<radialGradient id="paint48_radial_49_2677" cx="0" cy="0" r="1" gradientUnits="userSpaceOnUse" gradientTransform="translate(551.727 171.131) scale(0.9831)">
<stop offset="0.148" stop-color="#6CBEFC"/>
<stop offset="0.3226" stop-color="#66B3E6" stop-opacity="0.7951"/>
<stop offset="0.5865" stop-color="#5EA6CB" stop-opacity="0.4854"/>
<stop offset="0.8209" stop-color="#5A9EBB" stop-opacity="0.2103"/>
<stop offset="1" stop-color="#589BB5" stop-opacity="0"/>
</radialGradient>
<radialGradient id="paint49_radial_49_2677" cx="0" cy="0" r="1" gradientUnits="userSpaceOnUse" gradientTransform="translate(561.735 146.668) scale(0.9831)">
<stop offset="0.148" stop-color="#6CBEFC"/>
<stop offset="0.3226" stop-color="#66B3E6" stop-opacity="0.7951"/>
<stop offset="0.5865" stop-color="#5EA6CB" stop-opacity="0.4854"/>
<stop offset="0.8209" stop-color="#5A9EBB" stop-opacity="0.2103"/>
<stop offset="1" stop-color="#589BB5" stop-opacity="0"/>
</radialGradient>
<radialGradient id="paint50_radial_49_2677" cx="0" cy="0" r="1" gradientUnits="userSpaceOnUse" gradientTransform="translate(583.975 133.324) scale(0.9831)">
<stop offset="0.148" stop-color="#6CBEFC"/>
<stop offset="0.3226" stop-color="#66B3E6" stop-opacity="0.7951"/>
<stop offset="0.5865" stop-color="#5EA6CB" stop-opacity="0.4854"/>
<stop offset="0.8209" stop-color="#5A9EBB" stop-opacity="0.2103"/>
<stop offset="1" stop-color="#589BB5" stop-opacity="0"/>
</radialGradient>
<radialGradient id="paint51_radial_49_2677" cx="0" cy="0" r="1" gradientUnits="userSpaceOnUse" gradientTransform="translate(568.407 119.981) scale(0.9831)">
<stop offset="0.148" stop-color="#6CBEFC"/>
<stop offset="0.3226" stop-color="#66B3E6" stop-opacity="0.7951"/>
<stop offset="0.5865" stop-color="#5EA6CB" stop-opacity="0.4854"/>
<stop offset="0.8209" stop-color="#5A9EBB" stop-opacity="0.2103"/>
<stop offset="1" stop-color="#589BB5" stop-opacity="0"/>
</radialGradient>
<radialGradient id="paint52_radial_49_2677" cx="0" cy="0" r="1" gradientUnits="userSpaceOnUse" gradientTransform="translate(557.288 45.4788) scale(0.9831)">
<stop offset="0.148" stop-color="#6CBEFC"/>
<stop offset="0.3226" stop-color="#66B3E6" stop-opacity="0.7951"/>
<stop offset="0.5865" stop-color="#5EA6CB" stop-opacity="0.4854"/>
<stop offset="0.8209" stop-color="#5A9EBB" stop-opacity="0.2103"/>
<stop offset="1" stop-color="#589BB5" stop-opacity="0"/>
</radialGradient>
<radialGradient id="paint53_radial_49_2677" cx="0" cy="0" r="1" gradientUnits="userSpaceOnUse" gradientTransform="translate(616.222 1) scale(0.9831)">
<stop offset="0.148" stop-color="#6CBEFC"/>
<stop offset="0.3226" stop-color="#66B3E6" stop-opacity="0.7951"/>
<stop offset="0.5865" stop-color="#5EA6CB" stop-opacity="0.4854"/>
<stop offset="0.8209" stop-color="#5A9EBB" stop-opacity="0.2103"/>
<stop offset="1" stop-color="#589BB5" stop-opacity="0"/>
</radialGradient>
<radialGradient id="paint54_radial_49_2677" cx="0" cy="0" r="1" gradientUnits="userSpaceOnUse" gradientTransform="translate(666.261 31.0231) scale(0.9831)">
<stop offset="0.148" stop-color="#6CBEFC"/>
<stop offset="0.3226" stop-color="#66B3E6" stop-opacity="0.7951"/>
<stop offset="0.5865" stop-color="#5EA6CB" stop-opacity="0.4854"/>
<stop offset="0.8209" stop-color="#5A9EBB" stop-opacity="0.2103"/>
<stop offset="1" stop-color="#589BB5" stop-opacity="0"/>
</radialGradient>
<radialGradient id="paint55_radial_49_2677" cx="0" cy="0" r="1" gradientUnits="userSpaceOnUse" gradientTransform="translate(681.828 24.3512) scale(0.9831)">
<stop offset="0.148" stop-color="#6CBEFC"/>
<stop offset="0.3226" stop-color="#66B3E6" stop-opacity="0.7951"/>
<stop offset="0.5865" stop-color="#5EA6CB" stop-opacity="0.4854"/>
<stop offset="0.8209" stop-color="#5A9EBB" stop-opacity="0.2103"/>
<stop offset="1" stop-color="#589BB5" stop-opacity="0"/>
</radialGradient>
<radialGradient id="paint56_radial_49_2677" cx="0" cy="0" r="1" gradientUnits="userSpaceOnUse" gradientTransform="translate(429.411 25.4633) scale(0.9831)">
<stop offset="0.148" stop-color="#6CBEFC"/>
<stop offset="0.3226" stop-color="#66B3E6" stop-opacity="0.7951"/>
<stop offset="0.5865" stop-color="#5EA6CB" stop-opacity="0.4854"/>
<stop offset="0.8209" stop-color="#5A9EBB" stop-opacity="0.2103"/>
<stop offset="1" stop-color="#589BB5" stop-opacity="0"/>
</radialGradient>
<radialGradient id="paint57_radial_49_2677" cx="0" cy="0" r="1" gradientUnits="userSpaceOnUse" gradientTransform="translate(414.956 46.5908) scale(0.9831)">
<stop offset="0.148" stop-color="#6CBEFC"/>
<stop offset="0.3226" stop-color="#66B3E6" stop-opacity="0.7951"/>
<stop offset="0.5865" stop-color="#5EA6CB" stop-opacity="0.4854"/>
<stop offset="0.8209" stop-color="#5A9EBB" stop-opacity="0.2103"/>
<stop offset="1" stop-color="#589BB5" stop-opacity="0"/>
</radialGradient>
<radialGradient id="paint58_radial_49_2677" cx="0" cy="0" r="1" gradientUnits="userSpaceOnUse" gradientTransform="translate(402.723 24.3512) scale(0.9831)">
<stop offset="0.148" stop-color="#6CBEFC"/>
<stop offset="0.3226" stop-color="#66B3E6" stop-opacity="0.7951"/>
<stop offset="0.5865" stop-color="#5EA6CB" stop-opacity="0.4854"/>
<stop offset="0.8209" stop-color="#5A9EBB" stop-opacity="0.2103"/>
<stop offset="1" stop-color="#589BB5" stop-opacity="0"/>
</radialGradient>
<radialGradient id="paint59_radial_49_2677" cx="0" cy="0" r="1" gradientUnits="userSpaceOnUse" gradientTransform="translate(377.149 42.1429) scale(0.9831)">
<stop offset="0.148" stop-color="#6CBEFC"/>
<stop offset="0.3226" stop-color="#66B3E6" stop-opacity="0.7951"/>
<stop offset="0.5865" stop-color="#5EA6CB" stop-opacity="0.4854"/>
<stop offset="0.8209" stop-color="#5A9EBB" stop-opacity="0.2103"/>
<stop offset="1" stop-color="#589BB5" stop-opacity="0"/>
</radialGradient>
<radialGradient id="paint60_radial_49_2677" cx="0" cy="0" r="1" gradientUnits="userSpaceOnUse" gradientTransform="translate(493.905 241.185) scale(0.9831)">
<stop offset="0.148" stop-color="#6CBEFC"/>
<stop offset="0.3226" stop-color="#66B3E6" stop-opacity="0.7951"/>
<stop offset="0.5865" stop-color="#5EA6CB" stop-opacity="0.4854"/>
<stop offset="0.8209" stop-color="#5A9EBB" stop-opacity="0.2103"/>
<stop offset="1" stop-color="#589BB5" stop-opacity="0"/>
</radialGradient>
<radialGradient id="paint61_radial_49_2677" cx="0" cy="0" r="1" gradientUnits="userSpaceOnUse" gradientTransform="translate(460.547 281.216) scale(0.9831)">
<stop offset="0.148" stop-color="#6CBEFC"/>
<stop offset="0.3226" stop-color="#66B3E6" stop-opacity="0.7951"/>
<stop offset="0.5865" stop-color="#5EA6CB" stop-opacity="0.4854"/>
<stop offset="0.8209" stop-color="#5A9EBB" stop-opacity="0.2103"/>
<stop offset="1" stop-color="#589BB5" stop-opacity="0"/>
</radialGradient>
<radialGradient id="paint62_radial_49_2677" cx="0" cy="0" r="1" gradientUnits="userSpaceOnUse" gradientTransform="translate(510.585 265.649) scale(0.9831)">
<stop offset="0.148" stop-color="#6CBEFC"/>
<stop offset="0.3226" stop-color="#66B3E6" stop-opacity="0.7951"/>
<stop offset="0.5865" stop-color="#5EA6CB" stop-opacity="0.4854"/>
<stop offset="0.8209" stop-color="#5A9EBB" stop-opacity="0.2103"/>
<stop offset="1" stop-color="#589BB5" stop-opacity="0"/>
</radialGradient>
<clipPath id="clip0_49_2677">
<rect width="703.9" height="477.2" fill="white"/>
</clipPath>
</defs>
</svg>
