<svg width="515" height="331" viewBox="0 0 515 331" fill="none" xmlns="http://www.w3.org/2000/svg">
<g clip-path="url(#clip0_43_3745)">
<g opacity="0.1">
<path d="M370.592 202.311C386.324 202.756 401.907 206.022 414.82 212.107V204.241C401.907 198.155 386.324 194.889 370.592 194.444L300.243 194.889V202.756L370.592 202.311Z" fill="#A46CFF"/>
<path d="M223.513 115.33L223.661 108.651C222.325 99.0031 215.647 89.652 203.477 81.9336V89.8004C215.053 97.0735 221.732 106.128 223.513 115.33Z" fill="#A46CFF"/>
<path d="M422.389 216.263C434.113 223.536 440.792 232.739 442.128 241.942C444.057 230.067 437.379 217.748 422.389 208.248V216.263Z" fill="#A46CFF"/>
<path d="M514.852 250.254V242.387C513.367 259.902 502.682 277.12 482.794 291.518V299.385C502.682 284.987 513.367 267.769 514.852 250.254Z" fill="#A46CFF"/>
<path d="M196.056 85.7929V77.9261C170.974 65.9032 135.651 64.4189 108.64 73.77V81.6368C135.651 72.2857 170.974 73.6216 196.056 85.7929Z" fill="#A46CFF"/>
<path d="M514.852 257.082V264.949C514.852 265.097 514.852 265.097 514.852 265.245C515 262.425 515 259.754 514.852 257.082Z" fill="url(#paint0_linear_43_3745)"/>
<path d="M263.14 297.9C237.316 283.057 223.068 263.909 220.248 244.465V252.332C223.068 271.776 237.316 290.924 263.14 305.767C266.405 307.696 269.967 309.478 273.529 311.259V303.392C269.967 301.611 266.405 299.83 263.14 297.9Z" fill="#A46CFF"/>
<path d="M280.949 306.657V314.524C338.831 338.867 420.311 336.047 472.108 306.212C473.592 305.322 475.076 304.431 476.56 303.54V295.674C475.076 296.564 473.74 297.455 472.108 298.345C420.311 328.18 338.831 331 280.949 306.657Z" fill="#A46CFF"/>
<path d="M94.2436 88.0193C95.5794 87.2771 97.0635 86.3866 98.5477 85.7928V77.926C97.0635 78.6682 95.5794 79.4103 94.2436 80.1525C78.0664 89.5036 70.9425 102.12 72.8719 114.588C74.356 104.792 81.4799 95.2924 94.2436 88.0193Z" fill="#A46CFF"/>
<path d="M0.148415 108.206L0 108.057V115.924L0.148415 116.073C-0.59366 135.369 9.79539 154.961 31.464 170.992V163.125C9.9438 147.095 -0.59366 127.502 0.148415 108.206Z" fill="#A46CFF"/>
<path d="M44.0791 171.437C41.8529 170.101 39.6266 168.766 37.5488 167.43V175.296C39.6266 176.632 41.7045 177.968 44.0791 179.304C77.1756 198.452 122.145 206.764 165.186 204.24L213.272 203.647V195.78L165.186 196.374C121.997 198.897 77.1756 190.585 44.0791 171.437Z" fill="#A46CFF"/>
</g>
<path d="M108.64 47.943L54.6172 47.7946V70.8013L108.64 70.9497C135.652 61.5986 170.975 63.0829 196.205 75.2542L196.057 52.2475C170.975 40.0762 135.652 38.5919 108.64 47.943Z" fill="#7E37F0"/>
<path d="M108.64 47.9429L54.6172 47.7944V70.8012L108.64 70.9496V47.9429Z" fill="#5E1BCA"/>
<path d="M199.619 23.7488C198.728 23.7488 197.689 23.8972 197.096 24.3425C196.353 24.7878 196.057 25.2331 196.057 25.8268L196.205 48.3882C196.353 48.0914 196.65 47.6461 197.096 47.4977C197.838 47.0524 198.728 46.9039 199.619 46.9039L249.634 47.0524V23.8972L199.619 23.7488Z" fill="#5E1BCA"/>
<path d="M277.091 245.355C276.201 245.355 275.162 245.504 274.568 245.949C273.826 246.394 273.529 246.84 273.529 247.433L273.678 269.995C273.826 269.698 274.123 269.253 274.568 269.104C275.31 268.659 276.201 268.511 277.091 268.511L319.538 268.659V245.652L277.091 245.355Z" fill="#430C9F"/>
<path d="M514.852 216.56C513.368 234.075 502.682 251.293 482.794 265.691L431.888 265.542V257.675L431.739 257.824L431.888 288.549L482.794 288.697C505.947 272.073 516.633 251.59 514.852 231.255V216.56Z" fill="#801ADA"/>
<path d="M431.74 265.542V288.549H482.646V265.69C482.794 265.69 431.443 265.542 431.74 265.542Z" fill="#6509B6"/>
<path d="M98.5476 52.0991C97.0635 52.8413 95.5793 53.5834 94.2436 54.3256C74.6528 65.6063 68.4194 81.6368 75.2464 96.3314C78.5116 89.3552 84.8934 82.8242 94.2436 77.3323C95.5793 76.5902 97.0635 75.6996 98.5476 75.1058V52.0991Z" fill="#7E37F0"/>
<path d="M86.8228 137.595L31.6124 137.447C9.9438 121.268 -0.59366 101.823 0.29683 82.5273L0 82.3789V109.245H0.148415C0.742075 127.353 11.2795 145.462 31.464 160.453L86.6744 160.602V137.595H86.8228Z" fill="#7E37F0"/>
<path d="M86.8227 137.595H86.6743L31.6123 137.447V160.454L86.8227 160.602V137.595Z" fill="#5E1BCA"/>
<path opacity="0.9" d="M223.661 82.8242C222.325 73.1762 215.647 63.8251 203.477 56.1067V79.1134C214.311 85.9412 220.841 94.2533 223.067 102.714L223.661 82.8242Z" fill="#7E37F0"/>
<path opacity="0.9" d="M263.139 272.222C237.315 257.379 223.067 238.231 220.247 218.787L219.653 236.301C220.395 257.675 234.792 278.901 263.139 295.228C266.552 297.158 269.966 298.939 273.676 300.72L273.528 277.714C269.966 275.932 266.404 274.151 263.139 272.222Z" fill="#5E12D9"/>
<path d="M472.108 272.518C420.311 302.501 338.831 305.173 280.949 280.831V303.837C338.831 328.18 420.311 325.36 472.108 295.525C473.592 294.635 475.076 293.744 476.56 292.853V269.847C475.076 270.737 473.592 271.628 472.108 272.518Z" fill="#801ADA"/>
<path d="M214.608 151.102V128.095L213.272 169.953V192.96L214.608 151.102Z" fill="url(#paint1_linear_43_3745)"/>
<path d="M213.272 169.953L165.186 170.546C122.145 173.07 77.324 164.758 44.0791 145.61C41.8529 144.274 39.6266 142.938 37.5488 141.603V164.609C39.6266 165.945 41.7045 167.281 44.0791 168.617C77.1756 187.764 122.145 196.077 165.186 193.553L213.272 192.959V169.953Z" fill="#7627F8"/>
<path opacity="0.95" d="M54.6171 47.7946L108.64 47.943C135.652 38.5919 170.974 40.0762 196.205 52.2475L196.057 25.9753C196.057 25.3816 196.502 24.9363 197.096 24.491C197.838 24.0457 198.728 23.8973 199.619 23.8973L249.634 24.0457C195.166 -6.0857 111.312 -7.86687 54.3203 18.7022L54.6171 47.7946Z" fill="url(#paint2_linear_43_3745)"/>
<path opacity="0.95" d="M86.8231 137.595L86.6747 110.284C65.7482 93.0658 68.1228 69.4653 94.2438 54.3254C95.5796 53.5832 97.0637 52.6927 98.5479 52.0989L50.9067 51.9505C49.8677 51.9505 48.9773 51.6536 48.3836 51.3568C47.7899 50.9115 47.3447 50.4662 47.3447 49.8725L47.1963 22.2644C45.7121 23.0066 44.228 23.7487 42.8922 24.6393C-10.0919 55.216 -13.6539 103.753 31.6127 137.446L86.8231 137.595Z" fill="url(#paint3_linear_43_3745)"/>
<path opacity="0.95" d="M214.608 128.096L143.666 128.838V129.135C126.004 128.392 108.64 124.088 95.1339 116.221C94.6886 115.924 94.2434 115.776 93.9465 115.479L94.095 139.673C94.095 140.861 92.4624 141.751 90.533 141.751L37.6973 141.603C39.7751 142.939 41.8529 144.275 44.2275 145.61C77.3241 164.758 122.294 173.07 165.334 170.547L213.421 169.953L214.608 128.096Z" fill="url(#paint4_linear_43_3745)"/>
<path opacity="0.95" d="M463.796 147.837C436.933 134.329 403.54 127.353 369.998 126.76L301.727 127.205L300.243 169.062L370.443 168.617C386.175 169.062 401.759 172.328 414.671 178.413L463.945 178.562L463.796 147.837Z" fill="url(#paint5_linear_43_3745)"/>
<path d="M414.671 178.413C401.759 172.328 386.175 169.062 370.443 168.617L300.095 169.062V192.069L370.295 191.624C386.027 192.069 401.611 195.334 414.523 201.42L463.796 201.569L463.648 178.562L414.671 178.413Z" fill="url(#paint6_linear_43_3745)"/>
<path d="M414.672 201.42L463.946 201.568V178.413H414.672V201.42Z" fill="#5E1BCA"/>
<path opacity="0.95" d="M471.217 180.64C471.217 181.233 470.772 181.679 470.178 182.124C469.436 182.569 468.546 182.718 467.655 182.718L422.389 182.569C445.69 197.116 448.807 218.638 431.59 234.817L431.739 265.542L482.645 265.69C529.247 232.294 525.389 183.015 471.366 151.844C471.217 151.844 471.069 151.696 471.069 151.696L471.217 180.64Z" fill="url(#paint7_linear_43_3745)"/>
<path d="M439.902 223.833C439.902 223.685 440.05 223.685 440.05 223.536C446.58 209.584 440.644 193.998 422.537 182.569V205.576C430.997 210.92 436.785 217.154 439.902 223.833Z" fill="#801ADA"/>
<path opacity="0.95" d="M273.677 277.713L273.528 247.433C273.528 246.84 273.974 246.394 274.567 245.949C275.309 245.504 276.2 245.355 277.09 245.355L319.537 245.504C317.756 244.613 315.975 243.723 314.194 242.684C300.392 234.668 292.971 224.427 292.08 213.888C292.08 213.888 296.533 84.6052 295.791 79.2617C293.119 60.8564 280.059 42.5994 256.758 28.0532L203.328 27.9048L203.477 56.1066C215.647 63.6765 222.325 73.1761 223.661 82.8241L219.654 213.146C220.396 234.52 234.792 255.746 263.139 272.073C266.553 274.151 269.966 275.932 273.677 277.713Z" fill="url(#paint8_linear_43_3745)"/>
<path opacity="0.95" d="M428.177 269.847C427.138 269.847 426.247 269.55 425.654 269.253C425.06 268.807 424.615 268.362 424.615 267.768L424.466 240.606C423.279 241.348 422.092 242.238 420.756 242.981C396.268 257.081 358.867 259.308 330.075 249.808L280.801 249.66L280.949 280.979C338.831 305.321 420.311 302.501 472.108 272.667C473.592 271.776 475.076 270.886 476.56 269.995L428.177 269.847Z" fill="url(#paint9_linear_43_3745)"/>
<g opacity="0.9">
<path opacity="0.95" d="M72.5753 84.457C72.8721 73.6216 79.9961 62.9346 94.2439 54.6225C95.5796 53.8803 97.0638 52.9897 98.5479 52.396H95.728C95.2828 52.6929 94.6891 52.9897 94.2439 53.1381C79.4024 61.7471 72.2785 73.0278 72.5753 84.457Z" fill="url(#paint10_radial_43_3745)"/>
<path opacity="0.95" d="M197.096 24.6393C197.838 24.194 198.728 24.0456 199.619 24.0456L249.634 24.194C248.744 23.7487 247.705 23.155 246.815 22.7097L199.619 22.5613C198.728 22.5613 197.689 22.7097 197.096 23.155C196.353 23.6003 196.057 24.0456 196.057 24.6393V26.1236C196.057 25.5299 196.353 25.0846 197.096 24.6393Z" fill="url(#paint11_radial_43_3745)"/>
<path opacity="0.95" d="M442.573 211.662C442.87 201.42 436.933 191.178 424.763 182.866H422.537C435.449 191.03 442.128 201.42 442.573 211.662Z" fill="url(#paint12_radial_43_3745)"/>
<path opacity="0.95" d="M203.477 56.4035C215.498 63.9734 222.325 73.3245 223.661 82.8241V81.6366C222.325 71.9887 215.647 62.6375 203.477 54.9191L203.328 28.2017L203.477 56.4035Z" fill="url(#paint13_radial_43_3745)"/>
<path opacity="0.95" d="M414.671 178.71L463.945 178.859V177.374L414.671 177.226C401.759 171.14 386.175 167.875 370.443 167.429L300.243 167.875V169.359L370.443 168.914C386.324 169.359 401.759 172.625 414.671 178.71Z" fill="url(#paint14_radial_43_3745)"/>
<path opacity="0.95" d="M472.108 271.331C420.311 301.314 338.831 303.985 280.949 279.643L280.801 249.808L280.949 281.127C338.831 305.47 420.311 302.65 472.108 272.815C473.592 271.924 475.076 271.034 476.56 270.143H474.186C473.443 270.589 472.85 270.885 472.108 271.331Z" fill="url(#paint15_radial_43_3745)"/>
<path opacity="0.95" d="M108.64 48.2398C135.652 38.8887 170.975 40.373 196.205 52.5443V51.06C171.123 38.8887 135.652 37.4044 108.64 46.7555L54.6172 46.6071L54.4688 18.999L54.6172 48.0914L108.64 48.2398Z" fill="url(#paint16_radial_43_3745)"/>
<path opacity="0.95" d="M482.794 264.503L431.888 264.355L431.739 235.114L431.888 265.839L482.794 265.987C504.759 250.254 515.445 230.958 515 211.662C514.852 230.364 504.166 249.215 482.794 264.503Z" fill="url(#paint17_radial_43_3745)"/>
<path opacity="0.95" d="M316.57 244.168H277.091C276.201 244.168 275.162 244.316 274.568 244.762C273.826 245.207 273.529 245.652 273.529 246.246V247.73C273.529 247.137 273.975 246.691 274.568 246.246C275.31 245.801 276.201 245.652 277.091 245.652L319.538 245.801C318.499 245.207 317.46 244.762 316.57 244.168Z" fill="url(#paint18_radial_43_3745)"/>
<path opacity="0.95" d="M86.8228 136.408L31.6125 136.259C10.8344 120.822 0.296901 102.12 0.148486 83.5664C-0.296759 102.714 10.0923 121.861 31.6125 137.744L86.8228 137.892V136.408Z" fill="url(#paint19_radial_43_3745)"/>
<path opacity="0.95" d="M263.14 271.034C235.089 254.855 220.545 233.778 219.654 212.404V213.443C220.396 234.817 234.793 256.043 263.14 272.37C266.553 274.3 269.967 276.081 273.677 277.862V276.378C269.967 274.745 266.553 272.964 263.14 271.034Z" fill="url(#paint20_radial_43_3745)"/>
<path opacity="0.95" d="M213.272 168.765L165.186 169.359C122.145 171.882 77.324 163.57 44.0791 144.423C42.5949 143.532 41.2592 142.79 39.9235 141.9H37.5488C39.6266 143.235 41.7044 144.571 44.0791 145.907C77.1756 165.055 122.145 173.367 165.186 170.843L213.272 170.25L214.756 128.392L213.272 168.765Z" fill="url(#paint21_radial_43_3745)"/>
</g>
<path d="M116.654 19.1477C117.1 18.9992 117.545 18.8508 118.138 18.7024C118.732 18.5539 119.177 18.5539 119.771 18.4055C120.365 18.2571 120.958 18.2571 121.7 18.2571C122.294 18.2571 122.888 18.2571 123.481 18.4055C124.075 18.5539 124.52 18.8508 124.966 19.1477C125.411 19.4445 125.708 19.8898 126.004 20.4835C126.301 21.0773 126.301 21.5226 126.153 21.9678C126.004 22.4131 125.708 22.71 125.411 23.0069C124.966 23.3037 124.52 23.6006 124.075 23.749C123.481 23.8974 122.888 24.0459 122.294 24.1943C122.294 24.1943 122.146 24.1943 121.997 24.1943C121.849 24.1943 121.7 24.1943 121.552 24.1943C121.404 24.1943 121.255 24.1943 121.107 24.1943C120.958 24.1943 120.81 24.1943 120.81 24.1943L122.294 27.7566L120.513 28.0535L116.654 19.1477ZM120.216 19.4445C119.919 19.4445 119.623 19.593 119.326 19.593C119.029 19.593 118.881 19.7414 118.732 19.7414L120.365 23.749C120.365 23.749 120.513 23.749 120.662 23.749C120.81 23.749 120.958 23.749 121.107 23.749C121.255 23.749 121.404 23.749 121.552 23.749C121.7 23.749 121.849 23.749 121.849 23.749C122.294 23.749 122.739 23.6006 123.036 23.4521C123.481 23.3037 123.778 23.1553 123.927 23.0069C124.223 22.8584 124.372 22.5616 124.372 22.2647C124.52 21.9678 124.372 21.5226 124.223 21.2257C124.075 20.7804 123.927 20.4835 123.63 20.3351C123.333 20.1867 123.036 19.8898 122.739 19.8898C122.442 19.7414 121.997 19.7414 121.552 19.7414C121.107 19.2961 120.662 19.2961 120.216 19.4445Z" fill="white"/>
<path d="M138.471 26.4207L130.605 27.0144L128.379 17.5149L130.16 17.3665L132.238 25.827L138.471 25.3817V26.4207Z" fill="white"/>
<path d="M146.189 23.4521L141.44 23.6005L140.253 26.2722H138.472L142.776 16.4758H143.815L149.603 25.9754H147.673L146.189 23.4521ZM142.034 22.7099L145.892 22.5615L144.26 19.5929L143.666 18.1086L143.369 19.5929L142.034 22.7099Z" fill="white"/>
<path d="M154.055 20.1866L153.165 18.7023L153.313 20.1866L152.571 26.2723H150.79L151.829 16.6243H152.868L158.359 23.0068L159.101 24.4911H159.25L159.101 23.0068L159.843 16.9211H161.624L160.585 26.5691H159.547L154.055 20.1866Z" fill="white"/>
<path d="M31.9096 96.6284C32.3549 96.6284 32.6517 96.6284 33.097 96.6284C33.5422 96.6284 33.9874 96.6284 34.2843 96.7769C34.7295 96.9253 35.0264 96.9253 35.3232 97.0737C35.62 97.2222 35.9168 97.3706 36.0653 97.6674H36.2137C36.2137 97.519 36.3621 97.2222 36.3621 97.0737C36.5105 96.9253 36.6589 96.6284 36.9557 96.48C37.2526 96.3316 37.5494 96.1831 37.9947 96.0347C38.4399 95.8863 39.0336 95.7378 39.6272 95.7378C40.5177 95.5894 41.2598 95.7378 41.8534 95.7378C42.4471 95.8863 43.0408 96.0347 43.486 96.1831C43.9313 96.48 44.3765 96.6284 44.6733 97.0737C44.9702 97.3706 45.1186 97.8159 45.267 98.1127C45.267 98.2612 45.4154 98.4096 45.4154 98.558C45.4154 98.7065 45.5638 98.8549 45.5638 99.1518C45.5638 99.3002 45.5638 99.597 45.5638 99.7455C45.5638 99.8939 45.5638 100.042 45.5638 100.191L29.535 101.675C29.3866 101.378 29.2382 101.081 29.0898 100.784C28.9413 100.488 28.7929 100.042 28.6445 99.597C28.4961 99.3002 28.4961 99.0033 28.4961 98.7065C28.4961 98.4096 28.6445 98.1127 28.7929 97.8159C28.9413 97.519 29.3866 97.3706 29.8318 97.0737C30.4255 96.7769 31.1676 96.6284 31.9096 96.6284ZM36.3621 99.3002C36.3621 99.1517 36.2137 99.0033 36.2137 98.8549C36.2137 98.7065 36.0653 98.558 36.0653 98.4096C35.7684 98.1127 35.3232 97.8159 34.7295 97.6674C34.1359 97.519 33.3938 97.3706 32.6517 97.519C32.2065 97.519 31.7612 97.6674 31.4644 97.8159C31.1676 97.9643 30.8707 98.1127 30.7223 98.2612C30.5739 98.4096 30.4255 98.558 30.4255 98.8549C30.4255 99.0033 30.4255 99.3002 30.4255 99.4486C30.4255 99.7455 30.5739 99.8939 30.5739 100.042C30.7223 100.191 30.7223 100.339 30.7223 100.488L36.3621 99.8939V99.3002ZM43.7828 98.1127C43.7828 97.8159 43.6344 97.6674 43.3376 97.519C43.1892 97.3706 42.8923 97.2222 42.5955 97.0737C42.2987 96.9253 42.0019 96.7769 41.5566 96.7769C41.1114 96.7769 40.6661 96.7769 40.2209 96.7769C39.6272 96.7769 39.0336 96.9253 38.7367 97.0737C38.4399 97.2222 38.1431 97.3706 37.9947 97.6674C37.8462 97.8159 37.6978 98.1127 37.6978 98.2612C37.6978 98.558 37.6978 98.7064 37.8462 99.0033L38.1431 99.8939L44.0797 99.3002V99.1518C44.0797 99.0033 44.0797 99.0033 44.0797 98.8549C44.0797 98.7065 44.0797 98.7065 44.0797 98.558C43.9313 98.2612 43.9313 98.1127 43.7828 98.1127Z" fill="white"/>
<path d="M27.3086 89.3552L27.1602 88.3161L38.2913 88.0193C40.2207 88.0193 41.7048 88.1677 42.7437 88.613C43.6342 89.0583 44.2279 89.652 44.2279 90.5426C44.3763 91.4332 43.9311 92.1753 43.0406 92.6206C42.1501 93.0659 40.9628 93.3628 39.1818 93.3628L27.7538 93.6596L27.6054 92.6206L38.1429 92.3238C39.0334 92.3238 39.7754 92.1753 40.2207 92.1753C40.8143 92.0269 41.2596 92.0269 41.5564 91.8785C41.8532 91.7301 42.1501 91.5816 42.2985 91.2848C42.4469 91.1363 42.4469 90.8395 42.4469 90.5426C42.4469 89.9489 42.0017 89.5036 41.2596 89.3552C40.5175 89.0583 39.3302 89.0583 37.846 89.0583L27.3086 89.3552Z" fill="white"/>
<path d="M27.3086 85.1992V84.1602L43.7827 84.6054L43.6342 85.6445L27.3086 85.1992Z" fill="white"/>
<path d="M45.1185 77.6291L44.228 82.2305L27.7539 81.043L27.9023 80.004L42.7438 81.043L43.4859 77.4807L45.1185 77.6291Z" fill="white"/>
<path d="M29.5352 73.9185C29.5352 73.77 29.5352 73.6216 29.6836 73.4732C29.6836 73.3248 29.832 73.1763 29.832 72.8795C29.832 72.731 29.9804 72.5826 29.9804 72.2857C29.9804 72.1373 30.1288 71.9889 30.1288 71.8405C30.4256 71.2467 30.8709 70.653 31.3161 70.3561C31.9098 69.9109 32.6519 69.614 33.3939 69.4656C34.2844 69.3171 35.1749 69.1687 36.2138 69.1687C37.2527 69.1687 38.4401 69.3171 39.6274 69.4656C40.6663 69.614 41.7052 69.7624 42.7441 70.0593C43.6346 70.3561 44.5251 70.653 45.1187 70.9499C45.7124 71.3952 46.306 71.8405 46.4545 72.2857C46.7513 72.8795 46.7513 73.4732 46.4545 74.0669C46.4545 74.2153 46.3061 74.3638 46.3061 74.5122C46.1576 74.6606 46.1576 74.8091 46.0092 75.1059C45.8608 75.2544 45.8608 75.4028 45.7124 75.6996C45.564 75.8481 45.564 75.9965 45.564 75.9965L29.5352 73.9185ZM31.7614 71.9889C31.7614 72.1373 31.613 72.1373 31.613 72.2857C31.613 72.4342 31.4646 72.4342 31.4646 72.5826C31.4646 72.731 31.4646 72.731 31.4646 72.8795C31.4646 73.0279 31.4646 73.0279 31.4646 73.0279L44.5251 74.8091C44.5251 74.8091 44.5251 74.6606 44.6735 74.6606C44.6735 74.5122 44.8219 74.5122 44.8219 74.3638C44.8219 74.2153 44.9703 74.2153 44.9703 74.0669C44.9703 73.9185 45.1187 73.9185 45.1187 73.9185C45.2671 73.4732 45.2671 73.0279 45.1187 72.5826C44.8219 72.1373 44.5251 71.8405 43.9314 71.5436C43.3378 71.2467 42.7441 71.0983 42.002 70.8014C41.2599 70.653 40.3695 70.5046 39.479 70.3561C38.7369 70.2077 37.8464 70.2077 37.1043 70.2077C36.3622 70.2077 35.6202 70.2077 34.8781 70.3561C34.136 70.5046 33.5424 70.653 33.0971 70.9499C32.2066 71.0983 31.9098 71.5436 31.7614 71.9889Z" fill="white"/>
<path d="M487.989 204.686C487.989 204.834 488.137 204.983 488.137 205.131C488.137 205.28 488.286 205.428 488.286 205.725C488.286 206.022 488.286 206.022 488.434 206.319C488.434 206.467 488.434 206.615 488.434 206.764C488.434 207.358 488.434 207.951 487.989 208.545C487.692 208.99 487.098 209.436 486.356 209.732C485.614 210.029 484.872 210.326 483.833 210.475C482.794 210.623 481.755 210.771 480.42 210.771C479.232 210.771 478.193 210.771 477.154 210.771C476.115 210.623 475.225 210.475 474.335 210.178C473.444 209.881 472.85 209.584 472.257 209.139C471.663 208.693 471.366 208.1 471.366 207.358C471.366 207.209 471.366 207.061 471.366 206.912C471.366 206.764 471.366 206.467 471.366 206.319C471.366 206.17 471.366 205.873 471.366 205.725C471.366 205.576 471.366 205.428 471.366 205.28L487.989 204.686ZM486.801 206.912C486.801 206.764 486.801 206.764 486.801 206.615C486.801 206.467 486.801 206.467 486.801 206.319C486.801 206.17 486.801 206.17 486.653 206.022C486.653 205.873 486.653 205.873 486.653 205.873L473.147 206.319V206.467C473.147 206.615 473.147 206.615 473.147 206.764C473.147 206.912 473.147 206.912 473.147 207.061C473.147 207.209 473.147 207.209 473.147 207.209C473.147 207.654 473.444 208.1 473.889 208.397C474.334 208.693 474.78 208.99 475.522 209.139C476.115 209.287 477.006 209.436 477.748 209.436C478.639 209.436 479.529 209.436 480.42 209.436C481.31 209.436 482.052 209.287 482.794 209.287C483.536 209.139 484.278 208.99 484.872 208.842C485.466 208.693 485.911 208.397 486.356 207.951C486.801 207.506 486.801 207.506 486.801 206.912Z" fill="white"/>
<path d="M488.582 212.998L488.286 217.302H486.653L486.95 214.037L481.31 213.888L481.013 216.857H479.381L479.678 213.888L473.593 213.74L473.296 217.005H471.663L471.96 212.701L488.582 212.998Z" fill="white"/>
<path d="M487.692 219.974C487.692 220.271 487.84 220.568 487.692 220.865C487.692 221.162 487.543 221.458 487.543 221.904C487.395 222.201 487.247 222.646 487.098 222.943C486.801 223.24 486.505 223.536 486.059 223.833C485.614 224.13 485.02 224.279 484.278 224.427C483.536 224.575 482.794 224.575 481.755 224.427C480.716 224.279 479.974 224.13 479.381 223.982C478.787 223.685 478.193 223.536 477.896 223.24C477.6 222.943 477.303 222.646 477.154 222.201C477.006 221.755 477.006 221.458 477.154 221.013V220.865C477.154 220.716 477.154 220.716 477.303 220.568C477.303 220.419 477.303 220.419 477.451 220.271C477.451 220.122 477.451 220.122 477.6 220.122L471.366 219.529L471.663 218.49L487.692 219.974ZM485.911 221.755C485.911 221.607 486.059 221.458 486.059 221.161C486.059 221.013 486.059 220.865 486.059 220.716L479.084 220.122C479.084 220.122 479.084 220.271 478.935 220.271C478.935 220.419 478.935 220.419 478.787 220.568C478.787 220.716 478.787 220.716 478.787 220.865C478.787 221.013 478.787 221.013 478.787 221.013C478.787 221.31 478.787 221.458 478.787 221.755C478.787 222.052 478.935 222.201 479.232 222.497C479.529 222.646 479.826 222.943 480.271 223.091C480.716 223.24 481.31 223.388 482.052 223.388C482.646 223.388 483.239 223.388 483.685 223.388C484.13 223.388 484.575 223.24 484.872 223.091C485.169 222.943 485.466 222.794 485.614 222.497C485.614 222.349 485.762 222.052 485.911 221.755Z" fill="white"/>
<path d="M467.656 229.325L469.586 224.872L485.614 227.247L485.169 228.286L470.773 226.208L469.289 229.622L467.656 229.325Z" fill="white"/>
<path d="M475.374 231.106C478.045 231.7 479.826 232.294 480.865 233.036C481.904 233.778 482.201 234.669 481.459 235.708C481.162 236.302 480.717 236.747 479.974 237.044C479.381 237.341 478.639 237.489 477.748 237.637C476.858 237.786 475.967 237.786 474.928 237.637C473.889 237.489 472.702 237.341 471.515 237.044C468.843 236.45 467.062 235.856 466.023 235.114C464.985 234.372 464.688 233.481 465.43 232.442C465.727 231.849 466.172 231.552 466.914 231.255C467.508 230.958 468.25 230.81 469.14 230.661C470.031 230.513 470.921 230.513 471.96 230.661C472.999 230.661 474.186 230.81 475.374 231.106ZM474.78 232.145C473.889 231.997 472.999 231.849 472.257 231.7C471.366 231.552 470.624 231.552 470.031 231.552C469.289 231.552 468.695 231.7 468.25 231.849C467.804 231.997 467.359 232.294 467.211 232.591C466.766 233.184 467.062 233.778 467.953 234.372C468.843 234.966 470.327 235.411 472.554 235.856C473.444 236.005 474.186 236.153 475.077 236.301C475.967 236.45 476.709 236.45 477.303 236.45C478.045 236.45 478.639 236.302 479.084 236.153C479.529 236.005 479.974 235.708 480.123 235.411C480.568 234.817 480.271 234.223 479.381 233.63C478.49 233.036 477.006 232.591 474.78 232.145Z" fill="white"/>
<path d="M467.656 239.567L478.49 239.864L477.6 240.903L469.734 240.606L468.25 240.457L469.437 241.051L474.632 244.317L473.741 245.356L466.766 240.606L460.829 238.973L461.571 238.083L467.656 239.567Z" fill="white"/>
<path d="M398.198 274.745C398.791 276.378 398.791 277.565 398.346 278.456C397.752 279.346 396.565 279.94 394.784 280.237C393.745 280.385 393.003 280.385 392.113 280.237C391.37 280.088 390.628 279.792 390.035 279.495C389.441 279.198 388.996 278.604 388.551 278.159C388.105 277.565 387.809 276.971 387.512 276.229C386.918 274.597 386.918 273.409 387.363 272.518C387.957 271.628 389.144 271.034 390.925 270.737C391.816 270.589 392.706 270.589 393.448 270.737C394.19 270.886 394.932 271.183 395.526 271.479C396.12 271.776 396.565 272.37 397.01 272.815C397.455 273.261 397.901 274.003 398.198 274.745ZM396.268 274.893C396.12 274.3 395.823 273.854 395.526 273.409C395.229 272.964 394.784 272.518 394.487 272.222C394.042 271.925 393.597 271.628 393.003 271.479C392.409 271.331 391.816 271.331 391.222 271.331C390.035 271.479 389.293 271.925 388.996 272.667C388.699 273.409 388.699 274.448 389.293 275.784C389.441 276.229 389.738 276.823 390.035 277.268C390.332 277.714 390.777 278.159 391.074 278.456C391.519 278.753 391.964 279.049 392.558 279.198C393.151 279.346 393.745 279.346 394.339 279.346C395.526 279.198 396.268 278.753 396.565 278.01C396.862 277.268 396.862 276.229 396.268 274.893Z" fill="white"/>
<path d="M384.692 280.979C384.247 281.127 383.653 281.127 383.059 281.276C382.466 281.276 381.872 281.424 381.427 281.424C380.833 281.424 380.239 281.424 379.497 281.424C378.904 281.424 378.31 281.276 377.716 281.127C377.123 280.979 376.678 280.682 376.381 280.237C375.935 279.94 375.787 279.346 375.639 278.753C375.49 278.159 375.639 277.714 375.787 277.268C375.935 276.823 376.381 276.526 376.826 276.229C377.271 275.932 377.716 275.784 378.31 275.636C378.904 275.487 379.497 275.339 380.24 275.339C380.24 275.339 380.388 275.339 380.536 275.339C380.685 275.339 380.833 275.339 380.982 275.339C381.13 275.339 381.278 275.339 381.427 275.339C381.575 275.339 381.724 275.339 381.724 275.339L380.982 271.776L382.763 271.628L384.692 280.979ZM381.13 280.534C381.427 280.534 381.724 280.534 382.02 280.385C382.317 280.385 382.466 280.385 382.763 280.237L382.02 276.229C382.02 276.229 381.872 276.229 381.724 276.229C381.575 276.229 381.427 276.229 381.278 276.229C381.13 276.229 380.982 276.229 380.833 276.229C380.685 276.229 380.536 276.229 380.536 276.229C380.091 276.229 379.646 276.378 379.349 276.378C378.904 276.526 378.607 276.675 378.31 276.823C378.013 276.971 377.865 277.268 377.716 277.565C377.568 277.862 377.568 278.159 377.568 278.604C377.568 279.049 377.865 279.346 378.013 279.495C378.31 279.792 378.459 279.94 378.904 280.088C379.201 280.237 379.646 280.237 379.943 280.385C380.388 280.534 380.833 280.534 381.13 280.534Z" fill="white"/>
<path d="M372.225 281.87H364.805V280.979H370.444V277.714H365.25V276.823H370.444V273.261H364.656V272.37H372.225V281.87Z" fill="white"/>
<path d="M360.204 281.721C359.61 281.721 359.017 281.721 358.423 281.721C357.829 281.721 357.236 281.721 356.642 281.721C356.048 281.721 355.455 281.573 354.861 281.424C354.267 281.276 353.822 281.127 353.525 280.979C353.08 280.682 352.932 280.534 352.635 280.088C352.486 279.792 352.338 279.346 352.486 278.753C352.635 278.01 352.932 277.417 353.525 276.971C354.119 276.526 354.861 276.229 355.9 276.229L355.158 275.636L352.486 271.628L354.564 271.776L357.384 276.081L359.165 276.378L359.907 272.073L361.688 272.222L360.204 281.721ZM359.017 277.12L357.532 276.971C356.642 276.971 355.9 276.971 355.306 277.268C354.712 277.565 354.416 278.01 354.267 278.753C354.119 279.198 354.267 279.643 354.713 280.088C355.158 280.385 355.751 280.682 356.493 280.682C356.79 280.682 357.087 280.682 357.532 280.682C357.829 280.682 358.126 280.682 358.274 280.682L359.017 277.12Z" fill="white"/>
<path d="M343.432 273.409L348.033 274.003L350.259 271.479L352.04 271.628L343.878 280.534H342.839L341.206 270.44L342.987 270.589L343.432 273.409ZM347.291 274.745L343.581 274.3L344.026 277.417V278.901L344.916 277.565L347.291 274.745Z" fill="white"/>
<path d="M327.997 277.12L331.856 277.862L336.16 269.55L337.941 269.847L333.637 278.159L337.496 278.901L337.05 279.791L327.552 278.159L327.997 277.12Z" fill="white"/>
<path d="M324.139 277.268L317.312 275.636L317.905 274.745L323.1 275.932L325.178 272.964L320.428 271.776L321.022 270.886L325.771 272.073L328.146 268.808L322.803 267.62L323.397 266.73L330.372 268.362L324.139 277.268Z" fill="white"/>
<path d="M253.197 77.6291C252.752 77.4807 252.455 77.1838 252.158 76.8869C251.861 76.5901 251.713 76.2932 251.564 75.8479C251.416 75.4026 251.268 74.9573 251.416 74.5121C251.564 74.0668 251.861 73.6215 252.455 73.3246C253.049 72.8793 253.791 72.5825 254.681 72.2856C255.72 71.9887 256.907 71.6919 258.391 71.5434C259.876 71.395 261.211 71.2466 262.399 71.2466C263.586 71.2466 264.476 71.395 265.219 71.5434C265.961 71.6919 266.554 71.9887 267.148 72.434C267.593 72.7309 267.89 73.1762 268.038 73.6215C268.187 74.0668 268.335 74.3636 268.335 74.6605C268.335 74.9573 268.335 75.2542 268.187 75.4026H266.554C266.703 75.2542 266.703 74.9573 266.703 74.6605C266.703 74.3636 266.554 74.0668 266.554 73.7699C266.406 73.473 266.109 73.1762 265.812 72.8793C265.515 72.5825 264.922 72.434 264.328 72.2856C263.734 72.1372 262.992 72.1372 262.102 72.1372C261.211 72.1372 260.172 72.2856 258.837 72.434C256.61 72.7309 254.978 73.1762 254.087 73.7699C253.197 74.3636 252.9 75.1058 253.197 75.8479C253.345 76.1448 253.494 76.4416 253.791 76.5901C254.087 76.7385 254.236 77.0354 254.533 77.1838L253.197 77.6291Z" fill="white"/>
<path d="M261.36 78.8166C264.18 78.6681 266.257 78.6681 267.89 79.1134C269.374 79.5587 270.265 80.3009 270.562 81.3399C270.71 81.9336 270.562 82.3789 270.265 82.8242C269.968 83.2695 269.523 83.5663 268.781 83.8632C268.038 84.1601 267.296 84.4569 266.257 84.6053C265.219 84.7538 264.031 84.9022 262.844 85.0506C260.024 85.1991 257.946 85.1991 256.314 84.7538C254.83 84.3085 253.939 83.5663 253.642 82.5273C253.494 81.9336 253.642 81.4883 253.939 81.043C254.236 80.5977 254.681 80.3009 255.423 80.004C256.165 79.7071 256.907 79.4103 257.946 79.2619C258.837 79.1134 260.024 78.965 261.36 78.8166ZM261.508 79.8556C260.618 79.8556 259.727 80.004 258.837 80.1524C258.095 80.3009 257.353 80.4493 256.759 80.5977C256.165 80.7462 255.72 81.043 255.423 81.3399C255.126 81.6367 254.978 81.9336 255.126 82.3789C255.275 83.121 256.017 83.5663 257.204 83.8632C258.391 84.1601 260.172 84.1601 262.547 84.0116C263.438 84.0116 264.328 83.8632 265.07 83.7148C265.812 83.5663 266.554 83.4179 267.148 83.2695C267.742 83.121 268.187 82.8242 268.484 82.5273C268.781 82.2305 268.929 81.9336 268.781 81.4883C268.632 80.7462 268.038 80.3009 266.703 80.004C265.664 79.8556 263.883 79.7071 261.508 79.8556Z" fill="white"/>
<path d="M264.921 89.8005L267.593 89.2067L264.921 89.3552L254.384 89.2067V88.1677L271.155 88.3162V88.9099L260.32 92.3238L257.797 92.9175L260.32 92.7691L270.858 92.9175V93.9565L254.087 93.8081V93.2144L264.921 89.8005Z" fill="white"/>
<path d="M268.928 102.269V99.8936L254.087 99.7452V98.7062L268.928 98.8546V96.4797H270.561L270.413 102.269H268.928Z" fill="white"/>
<path d="M270.561 104.94V105.979L254.087 105.831V104.792L270.561 104.94Z" fill="white"/>
<path d="M264.327 110.729L266.999 110.135L264.327 110.284L253.79 110.135V109.096L270.561 109.245V109.839L259.727 113.252L257.204 113.846L259.727 113.698L270.264 113.846V114.885L253.493 114.737V114.143L264.327 110.729Z" fill="white"/>
<path d="M269.968 122.455V123.494L258.837 123.346C256.908 123.346 255.423 123.049 254.533 122.604C253.643 122.158 253.197 121.565 253.197 120.674C253.197 119.635 253.643 119.041 254.533 118.596C255.423 118.151 256.759 118.002 258.54 118.002L269.968 118.151V119.19L259.431 119.041C258.54 119.041 257.798 119.041 257.204 119.041C256.611 119.041 256.166 119.19 255.72 119.338C255.423 119.487 255.127 119.635 254.978 119.932C254.83 120.08 254.681 120.377 254.681 120.674C254.681 121.268 254.978 121.713 255.72 122.01C256.462 122.307 257.65 122.455 259.134 122.455H269.968Z" fill="white"/>
<path d="M261.508 126.166C264.328 126.166 266.406 126.463 267.89 127.056C269.374 127.65 269.968 128.392 269.968 129.431C269.968 130.025 269.671 130.47 269.374 130.916C268.929 131.361 268.336 131.658 267.593 131.806C266.851 132.103 265.961 132.251 264.922 132.4C263.883 132.548 262.696 132.548 261.36 132.548C258.54 132.548 256.462 132.251 254.978 131.658C253.494 131.064 252.9 130.322 252.9 129.283C252.9 128.689 253.197 128.244 253.494 127.799C253.939 127.353 254.533 127.056 255.275 126.759C256.017 126.463 256.908 126.314 257.947 126.166C259.134 126.166 260.173 126.166 261.508 126.166ZM261.508 127.353C260.618 127.353 259.727 127.353 258.837 127.502C257.947 127.502 257.204 127.65 256.611 127.799C256.017 127.947 255.423 128.095 255.127 128.392C254.681 128.689 254.533 128.986 254.533 129.283C254.533 130.025 255.127 130.47 256.166 130.916C257.353 131.212 258.985 131.509 261.36 131.509C262.251 131.509 263.141 131.509 264.032 131.361C264.922 131.361 265.664 131.212 266.258 131.064C266.851 130.916 267.445 130.767 267.742 130.47C268.187 130.173 268.336 129.877 268.336 129.431C268.336 128.689 267.742 128.244 266.703 127.799C265.664 127.502 263.883 127.353 261.508 127.353Z" fill="white"/>
<path d="M269.374 139.97V141.009L258.243 140.861C256.314 140.861 254.83 140.564 253.939 140.118C253.049 139.673 252.604 139.079 252.604 138.189C252.604 137.15 253.049 136.556 253.939 136.111C254.83 135.666 256.165 135.517 257.946 135.517L269.374 135.666V136.705L258.837 136.556C257.946 136.556 257.204 136.556 256.611 136.556C256.017 136.556 255.572 136.705 255.127 136.853C254.83 137.001 254.533 137.15 254.384 137.447C254.236 137.595 254.088 137.892 254.088 138.189C254.088 138.783 254.384 139.228 255.127 139.525C255.869 139.822 257.056 139.97 258.54 139.97H269.374Z" fill="white"/>
<path d="M254.83 143.829C254.681 143.977 254.385 144.274 254.236 144.571C254.088 144.868 253.939 145.313 253.939 145.61C253.939 146.056 254.088 146.501 254.533 146.798C254.978 147.095 255.572 147.243 256.611 147.243C257.204 147.243 257.798 147.095 258.243 146.946C258.689 146.798 259.134 146.501 259.579 146.204C260.024 145.907 260.321 145.61 260.766 145.313C261.212 145.017 261.509 144.72 261.954 144.423C262.399 144.126 262.993 143.977 263.586 143.681C264.18 143.532 264.922 143.384 265.664 143.384C267 143.384 267.89 143.681 268.632 144.126C269.226 144.571 269.523 145.165 269.523 145.907C269.523 146.352 269.374 146.798 269.226 147.095C269.078 147.391 268.929 147.688 268.632 147.985L267.148 147.688C267.297 147.54 267.445 147.243 267.594 146.946C267.742 146.649 267.89 146.352 267.89 145.907C267.89 145.462 267.742 145.017 267.297 144.868C266.851 144.571 266.406 144.571 265.664 144.423C265.07 144.423 264.625 144.571 264.18 144.72C263.735 144.868 263.289 145.165 262.993 145.462C262.547 145.759 262.251 146.056 261.805 146.352C261.36 146.649 260.915 146.946 260.47 147.243C260.024 147.54 259.431 147.688 258.837 147.837C258.243 147.985 257.501 148.134 256.759 148.134C255.423 148.134 254.236 147.837 253.494 147.391C252.752 146.946 252.307 146.204 252.455 145.313C252.455 144.72 252.604 144.274 252.752 143.977C252.9 143.681 253.197 143.384 253.346 143.087L254.83 143.829Z" fill="white"/>
<path d="M268.781 155.555L268.632 159.86H267L267.148 156.594H261.36L261.212 159.563H259.579L259.727 156.594L252.307 156.446V155.407L268.781 155.555Z" fill="white"/>
<path d="M268.632 162.531L268.484 166.836H266.851L267 163.57H261.36L261.211 166.539H259.579L259.727 163.57H253.642L253.494 166.836H251.861L252.01 162.531H268.632Z" fill="white"/>
<path d="M268.335 169.953L268.187 174.257H266.554L266.703 170.992H261.063L260.915 173.96H259.282L259.43 170.992H253.345L253.197 174.257H251.564L251.713 169.953H268.335Z" fill="white"/>
<path d="M268.038 177.078C268.038 177.226 268.038 177.374 268.186 177.523C268.186 177.671 268.186 177.82 268.186 178.117C268.186 178.265 268.186 178.414 268.186 178.71C268.186 178.859 268.186 179.007 268.186 179.156C268.186 179.749 267.89 180.343 267.593 180.788C267.148 181.234 266.554 181.679 265.812 181.976C265.07 182.273 264.179 182.421 263.14 182.57C262.101 182.718 260.914 182.718 259.727 182.718C258.539 182.718 257.501 182.57 256.462 182.421C255.423 182.273 254.532 182.124 253.79 181.827C253.048 181.531 252.454 181.085 252.009 180.64C251.564 180.195 251.267 179.601 251.416 178.859C251.416 178.71 251.416 178.562 251.416 178.413C251.416 178.265 251.416 177.968 251.416 177.82C251.416 177.671 251.416 177.374 251.564 177.226C251.564 177.078 251.564 176.929 251.712 176.781L268.038 177.078ZM266.554 179.304C266.554 179.156 266.554 179.156 266.554 179.007C266.554 178.859 266.554 178.859 266.554 178.71C266.554 178.562 266.554 178.562 266.554 178.413C266.554 178.265 266.554 178.265 266.554 178.265L253.048 178.117V178.265C253.048 178.413 253.048 178.414 253.048 178.562C253.048 178.71 253.048 178.71 253.048 178.859C253.048 179.007 253.048 179.007 253.048 179.007C253.048 179.453 253.197 179.898 253.642 180.343C253.939 180.64 254.532 180.937 255.126 181.234C255.72 181.382 256.462 181.531 257.352 181.679C258.243 181.827 259.133 181.827 260.024 181.827C260.914 181.827 261.656 181.827 262.547 181.679C263.289 181.679 264.031 181.531 264.773 181.382C265.367 181.234 265.96 180.937 266.257 180.64C266.405 180.195 266.554 179.749 266.554 179.304Z" fill="white"/>
<path d="M263.883 190.436C263.438 190.436 262.992 190.436 262.695 190.288C262.25 190.288 261.953 190.139 261.508 189.991C261.211 189.843 260.766 189.694 260.618 189.546C260.321 189.397 260.172 189.1 260.024 188.952H259.876C259.727 189.1 259.579 189.397 259.43 189.546C259.282 189.694 258.985 189.991 258.688 190.139C258.391 190.288 257.946 190.436 257.501 190.436C257.056 190.585 256.462 190.585 255.868 190.585C254.978 190.585 254.236 190.436 253.642 190.288C253.048 190.139 252.455 189.843 252.158 189.694C251.713 189.397 251.564 189.1 251.268 188.804C251.119 188.507 250.971 188.061 250.971 187.616C250.971 187.468 250.971 187.319 250.971 187.171C250.971 187.022 250.971 186.874 250.971 186.577C250.971 186.429 250.971 186.132 251.119 185.983C251.119 185.835 251.268 185.687 251.268 185.538L267.593 185.687C267.742 185.983 267.742 186.28 267.742 186.726C267.742 187.171 267.742 187.468 267.742 187.913C267.742 188.21 267.742 188.507 267.593 188.804C267.445 189.1 267.296 189.397 267 189.694C266.703 189.991 266.257 190.139 265.812 190.288C265.367 190.436 264.773 190.436 263.883 190.436ZM252.603 187.765C252.603 188.061 252.603 188.21 252.752 188.507C252.9 188.655 253.048 188.952 253.345 189.1C253.642 189.249 253.939 189.397 254.384 189.546C254.829 189.694 255.275 189.694 255.72 189.694C256.314 189.694 256.907 189.694 257.353 189.546C257.798 189.397 258.095 189.249 258.243 189.1C258.54 188.952 258.688 188.655 258.688 188.507C258.837 188.21 258.837 188.061 258.837 187.765V186.874H252.752C252.752 186.874 252.752 187.022 252.603 187.022C252.603 187.171 252.603 187.171 252.603 187.319C252.603 187.468 252.603 187.468 252.603 187.616C252.603 187.468 252.603 187.616 252.603 187.765ZM260.321 187.171C260.321 187.319 260.321 187.468 260.321 187.616C260.321 187.765 260.321 187.913 260.321 188.061C260.618 188.358 260.914 188.655 261.508 188.952C262.102 189.249 262.695 189.397 263.438 189.397C264.031 189.397 264.328 189.397 264.773 189.249C265.07 189.1 265.367 189.1 265.664 188.952C265.812 188.804 265.961 188.655 266.109 188.507C266.257 188.358 266.257 188.061 266.257 187.913C266.257 187.616 266.257 187.468 266.257 187.319C266.257 187.171 266.257 187.022 266.257 186.874H260.469L260.321 187.171Z" fill="white"/>
<path d="M255.423 197.116L255.572 194.444L250.971 193.553V192.514L267.742 195.631V196.225L250.822 198.897V197.858L255.423 197.116ZM257.056 194.741L256.907 196.967L262.102 196.225L264.625 195.928L262.102 195.631L257.056 194.741Z" fill="white"/>
<path d="M251.119 206.022C250.822 205.725 250.525 205.428 250.377 205.131C250.229 204.834 250.229 204.389 250.229 204.092C250.229 203.647 250.377 203.201 250.822 202.756C251.119 202.311 251.713 202.014 252.306 201.717C253.048 201.42 253.939 201.272 254.978 201.123C256.017 200.975 257.352 200.975 258.837 200.975C260.469 200.975 261.805 201.123 262.844 201.272C263.883 201.42 264.773 201.717 265.515 202.014C266.109 202.311 266.703 202.756 266.999 203.053C267.296 203.498 267.445 203.943 267.445 204.24C267.445 204.686 267.296 204.982 267.296 205.279C267.148 205.576 266.999 205.873 266.851 206.022L265.218 205.725C265.367 205.576 265.515 205.279 265.664 205.131C265.812 204.834 265.812 204.537 265.812 204.24C265.812 203.943 265.664 203.647 265.515 203.35C265.218 203.053 264.922 202.756 264.328 202.608C263.734 202.311 263.141 202.162 262.25 202.014C261.36 201.865 260.321 201.865 258.985 201.717C256.759 201.717 254.978 201.865 253.79 202.311C252.603 202.756 252.009 203.35 252.009 204.092C252.009 204.389 252.009 204.686 252.158 204.982C252.306 205.279 252.455 205.428 252.603 205.576L251.119 206.022Z" fill="white"/>
<path d="M258.094 210.177V209.732L250.377 209.584V208.545L266.851 208.693V209.732L259.133 209.584L259.43 210.029L266.703 212.552V213.74L259.727 211.216L258.985 210.771L257.946 211.365L250.08 214.037V212.701L258.094 210.177Z" fill="white"/>
<path d="M106.414 149.024C105.969 149.173 105.375 149.173 104.781 149.024C104.188 149.024 103.594 148.876 103 148.727C102.258 148.579 101.516 148.282 101.071 147.985C100.477 147.688 100.181 147.243 100.032 146.798C99.8837 146.352 99.7353 145.759 99.8837 145.165C100.032 144.571 100.477 143.829 100.923 142.939C101.516 142.048 102.11 141.454 102.852 140.861C103.594 140.415 104.336 139.97 105.078 139.673C105.82 139.376 106.562 139.376 107.304 139.228C108.047 139.228 108.789 139.228 109.531 139.525C110.273 139.673 110.718 139.822 111.163 139.97C111.609 140.118 111.905 140.267 112.202 140.415L111.312 141.306C111.015 141.157 110.866 141.009 110.421 140.861C110.124 140.712 109.679 140.564 109.085 140.415C108.64 140.267 108.047 140.267 107.453 140.267C106.859 140.267 106.414 140.415 105.82 140.564C105.227 140.712 104.781 141.157 104.188 141.454C103.594 141.9 103.149 142.493 102.704 143.087C101.813 144.274 101.516 145.313 101.813 146.056C102.11 146.798 102.852 147.391 104.039 147.688C104.485 147.837 104.93 147.837 105.375 147.837C105.82 147.837 106.266 147.837 106.562 147.837L106.414 149.024Z" fill="white"/>
<path d="M110.273 145.165C111.164 143.681 112.203 142.493 113.39 141.9C114.726 141.306 116.21 141.157 117.991 141.454C118.881 141.603 119.623 141.9 120.217 142.196C120.811 142.493 121.108 142.939 121.256 143.384C121.404 143.829 121.553 144.423 121.404 145.017C121.256 145.61 120.959 146.353 120.662 147.095C119.772 148.579 118.733 149.766 117.397 150.36C116.061 150.954 114.577 151.102 112.796 150.805C111.906 150.657 111.164 150.36 110.57 150.063C109.976 149.766 109.68 149.321 109.531 148.876C109.383 148.431 109.234 147.837 109.383 147.243C109.68 146.501 109.976 145.907 110.273 145.165ZM112.054 145.462C111.757 145.907 111.609 146.501 111.461 146.946C111.312 147.392 111.312 147.837 111.461 148.282C111.609 148.727 111.757 149.024 112.054 149.321C112.351 149.618 112.796 149.766 113.39 149.915C114.577 150.063 115.468 149.915 116.507 149.47C117.397 148.876 118.288 147.985 118.881 146.798C119.178 146.353 119.327 145.759 119.475 145.314C119.623 144.868 119.623 144.423 119.475 143.978C119.327 143.532 119.178 143.236 118.881 142.939C118.584 142.642 118.139 142.493 117.397 142.345C116.358 142.196 115.319 142.345 114.429 142.79C113.687 143.235 112.796 144.126 112.054 145.462Z" fill="white"/>
<path d="M126.154 146.352L125.56 144.72L125.412 146.204L123.482 152.141L121.85 151.993L124.966 142.493L126.005 142.642L130.012 149.321L130.458 150.805H130.606L130.755 149.321L132.684 143.384L134.316 143.532L131.2 153.032L130.161 152.883L126.154 146.352Z" fill="white"/>
<path d="M144.706 145.017L140.698 144.868L139.808 153.477H138.027L138.917 144.868L134.91 144.72L135.059 143.829L144.854 144.126L144.706 145.017Z" fill="white"/>
<path d="M146.189 143.978H147.97L148.267 153.477H146.486L146.189 143.978Z" fill="white"/>
<path d="M153.907 147.391L152.868 145.907L153.165 147.391V153.477H151.532V143.829H152.571L158.656 150.063L159.695 151.547H159.843L159.547 150.063V143.978H161.179V153.626H160.14L153.907 147.391Z" fill="white"/>
<path d="M171.42 143.978H173.052V150.36C173.052 151.547 172.607 152.29 171.865 152.883C171.123 153.329 169.936 153.626 168.6 153.626C166.967 153.626 165.78 153.329 165.038 152.883C164.296 152.438 163.851 151.547 163.851 150.508V143.829H165.632V149.915C165.632 150.36 165.632 150.805 165.78 151.102C165.928 151.399 166.077 151.696 166.374 151.993C166.67 152.141 166.967 152.29 167.264 152.438C167.709 152.586 168.155 152.587 168.6 152.587C169.639 152.587 170.381 152.438 170.678 151.993C171.123 151.547 171.271 150.954 171.271 149.915L171.42 143.978Z" fill="white"/>
<path d="M175.427 148.727C175.427 147.095 175.872 145.907 176.762 145.017C177.653 144.126 178.989 143.829 180.918 143.829C181.957 143.829 182.699 143.978 183.441 144.126C184.183 144.423 184.628 144.72 185.074 145.165C185.519 145.61 185.816 146.056 185.964 146.649C186.113 147.243 186.261 147.985 186.261 148.727C186.261 150.36 185.816 151.547 184.925 152.438C184.035 153.329 182.699 153.626 180.77 153.626C179.731 153.626 178.989 153.477 178.247 153.329C177.505 153.032 177.059 152.735 176.614 152.29C176.169 151.844 175.872 151.399 175.724 150.805C175.575 150.063 175.427 149.469 175.427 148.727ZM177.208 148.727C177.208 149.321 177.208 149.766 177.356 150.212C177.505 150.657 177.653 151.102 177.95 151.547C178.247 151.844 178.543 152.141 178.989 152.438C179.434 152.586 180.028 152.735 180.621 152.735C181.809 152.735 182.699 152.438 183.293 151.696C183.886 151.102 184.183 150.063 184.183 148.727C184.183 148.134 184.183 147.688 184.035 147.243C183.886 146.798 183.738 146.352 183.441 145.907C183.144 145.61 182.848 145.313 182.402 145.017C181.957 144.868 181.363 144.72 180.77 144.72C179.582 144.72 178.692 145.017 178.098 145.759C177.653 146.352 177.208 147.391 177.208 148.727Z" fill="white"/>
<path d="M196.056 143.978H197.689V150.36C197.689 151.547 197.244 152.29 196.502 152.883C195.76 153.329 194.572 153.626 193.237 153.626C191.604 153.626 190.417 153.329 189.675 152.883C188.933 152.438 188.487 151.547 188.487 150.508V143.829H190.268V149.915C190.268 150.36 190.268 150.805 190.417 151.102C190.565 151.399 190.714 151.696 191.01 151.993C191.307 152.141 191.604 152.29 191.901 152.438C192.346 152.586 192.791 152.587 193.237 152.587C194.275 152.587 195.018 152.438 195.314 151.993C195.76 151.547 195.908 150.954 195.908 149.915L196.056 143.978Z" fill="white"/>
<path d="M200.509 152.141C200.806 152.29 201.251 152.438 201.696 152.438C202.29 152.586 202.883 152.586 203.477 152.586C204.367 152.586 205.11 152.438 205.555 152.141C206.148 151.844 206.445 151.547 206.445 150.954C206.445 150.657 206.297 150.36 206 150.063C205.703 149.766 205.258 149.618 204.813 149.321C204.367 149.173 203.774 148.876 203.329 148.727C202.735 148.579 202.29 148.282 201.844 147.985C201.399 147.688 200.954 147.391 200.657 147.095C200.36 146.798 200.212 146.352 200.212 145.907C200.212 145.165 200.657 144.571 201.399 144.274C202.141 143.978 203.18 143.681 204.516 143.681C205.258 143.681 206 143.681 206.594 143.829C207.187 143.978 207.633 143.978 208.078 144.126L207.484 145.017C207.187 144.868 206.742 144.868 206.297 144.72C205.703 144.571 205.11 144.571 204.516 144.571C203.625 144.571 203.032 144.72 202.586 144.868C202.141 145.165 201.993 145.462 201.993 145.759C201.993 146.056 202.141 146.352 202.438 146.649C202.735 146.946 203.18 147.095 203.625 147.391C204.071 147.54 204.664 147.837 205.11 147.985C205.703 148.134 206.148 148.43 206.594 148.727C207.039 149.024 207.484 149.321 207.781 149.618C208.078 149.915 208.226 150.36 208.226 150.805C208.226 151.547 207.781 152.29 207.039 152.735C206.297 153.18 205.11 153.477 203.625 153.477C202.735 153.477 201.844 153.477 201.251 153.329C200.657 153.18 200.212 153.18 199.767 153.032L200.509 152.141Z" fill="white"/>
<path d="M324.584 143.829H326.365V153.329H324.584V143.829Z" fill="white"/>
<path d="M332.004 147.391L330.966 145.907L331.262 147.391V153.477H329.481V143.829H330.52L336.605 150.063L337.496 151.547H337.644L337.347 150.063V143.978H338.98V153.626H337.941L332.004 147.391Z" fill="white"/>
<path d="M350.557 144.868H346.55V153.477H344.769V144.868H340.762V143.978H350.557V144.868Z" fill="white"/>
<path d="M352.189 143.978H359.462V144.868H353.97V148.134H359.017V149.024H353.97V152.587H359.61V153.477H352.189V143.978Z" fill="white"/>
<path d="M366.734 148.727H371.334L371.186 152.883C370.741 153.18 370.147 153.329 369.405 153.329C368.663 153.477 368.069 153.477 367.327 153.477C366.437 153.477 365.695 153.329 364.953 153.18C364.211 153.032 363.617 152.735 363.172 152.29C362.726 151.844 362.281 151.399 362.133 150.805C361.836 150.212 361.836 149.469 361.836 148.579C361.836 147.688 362.133 146.946 362.43 146.352C362.726 145.759 363.172 145.165 363.765 144.868C364.359 144.423 364.953 144.274 365.695 143.978C366.437 143.829 367.179 143.681 367.921 143.681C368.663 143.681 369.257 143.681 369.85 143.829C370.296 143.829 370.741 143.978 371.186 144.126L370.741 145.017C370.444 144.868 369.999 144.868 369.702 144.72C369.257 144.72 368.811 144.571 368.218 144.571C367.624 144.571 367.179 144.571 366.585 144.72C366.14 144.868 365.546 145.017 365.249 145.313C364.804 145.61 364.507 146.056 364.211 146.501C363.914 146.946 363.765 147.688 363.765 148.43C363.765 149.766 364.062 150.805 364.804 151.399C365.546 151.993 366.585 152.438 367.773 152.438C368.515 152.438 369.257 152.29 369.85 152.141L369.999 149.321L367.03 149.024L366.734 148.727Z" fill="white"/>
<path d="M373.413 144.126C373.858 144.126 374.452 143.978 375.046 143.978C375.639 143.978 376.233 143.978 376.678 143.978C377.272 143.978 377.865 143.978 378.459 144.126C379.053 144.274 379.498 144.423 379.943 144.571C380.389 144.72 380.685 145.017 380.834 145.313C381.131 145.61 381.131 146.056 381.131 146.501C381.131 147.243 380.834 147.837 380.24 148.282C379.646 148.727 378.904 149.024 378.014 149.173L378.904 149.618L382.021 153.477H379.943L376.53 149.321L374.749 149.173L374.6 153.477H372.819L373.413 144.126ZM375.194 148.43H376.53C377.42 148.43 378.162 148.282 378.608 147.985C379.201 147.688 379.35 147.243 379.35 146.501C379.35 146.056 379.201 145.61 378.756 145.313C378.311 145.017 377.717 144.868 376.827 144.868C376.53 144.868 376.233 144.868 375.788 144.868C375.491 144.868 375.194 144.868 375.046 144.868L375.194 148.43Z" fill="white"/>
<path d="M390.035 151.102L385.434 150.954L383.802 153.626H382.021L387.957 144.126H388.848L392.855 153.922H391.074L390.035 151.102ZM386.028 150.063L389.738 150.212L388.551 147.243L388.254 145.759L387.66 147.243L386.028 150.063Z" fill="white"/>
<path d="M403.541 146.204L399.533 145.907L397.159 154.368L395.378 154.219L397.752 145.759L393.745 145.462L394.042 144.571L403.689 145.462L403.541 146.204Z" fill="white"/>
<path d="M407.103 145.759L408.735 146.056L404.431 155.258L402.799 154.961L407.103 145.759Z" fill="white"/>
<path d="M409.626 151.102C410.665 149.618 411.852 148.579 413.336 147.985C414.672 147.392 416.304 147.392 417.937 147.688C418.827 147.837 419.569 148.134 420.015 148.579C420.46 148.876 420.757 149.321 420.905 149.915C421.054 150.36 420.905 150.954 420.757 151.548C420.608 152.141 420.163 152.883 419.718 153.477C418.679 154.962 417.492 156.001 416.007 156.594C414.672 157.188 413.039 157.188 411.407 156.891C410.516 156.743 409.774 156.446 409.329 156.001C408.884 155.704 408.587 155.258 408.438 154.665C408.29 154.219 408.29 153.626 408.587 153.032C408.884 152.438 409.18 151.844 409.626 151.102ZM411.407 151.548C411.11 151.993 410.813 152.587 410.516 153.032C410.368 153.477 410.219 153.922 410.219 154.368C410.219 154.813 410.368 155.11 410.665 155.407C410.961 155.704 411.407 156.001 412 156.001C413.039 156.297 414.078 156.149 415.117 155.704C416.156 155.258 417.046 154.368 417.937 153.18C418.234 152.735 418.531 152.141 418.679 151.696C418.827 151.251 418.976 150.805 418.976 150.36C418.976 149.915 418.827 149.618 418.531 149.321C418.234 149.024 417.788 148.727 417.195 148.579C416.156 148.282 415.117 148.431 414.078 148.876C413.188 149.321 412.297 150.212 411.407 151.548Z" fill="white"/>
<path d="M425.655 153.922L426.1 152.29L425.061 153.626L419.719 158.821L418.234 158.375L426.694 150.063L427.585 150.36L427.436 157.485L426.991 158.969H427.139L428.178 157.633L433.521 152.438L435.005 152.883L426.546 161.196L425.655 160.899V153.922Z" fill="white"/>
</g>
<defs>
<linearGradient id="paint0_linear_43_3745" x1="21.613" y1="-7.26209" x2="532.675" y2="270.75" gradientUnits="userSpaceOnUse">
<stop offset="0.00505051" stop-color="#FFE4A7"/>
<stop offset="0.099793" stop-color="#FAC098"/>
<stop offset="0.202" stop-color="#F49587"/>
<stop offset="0.4638" stop-color="#A142B5"/>
<stop offset="0.596" stop-color="#7C1DC9"/>
<stop offset="0.6346" stop-color="#7926CB"/>
<stop offset="0.6973" stop-color="#703ED1"/>
<stop offset="0.7764" stop-color="#6165DB"/>
<stop offset="0.8686" stop-color="#4C9CE9"/>
<stop offset="0.9709" stop-color="#32E1FA"/>
<stop offset="1" stop-color="#2AF6FF"/>
</linearGradient>
<linearGradient id="paint1_linear_43_3745" x1="14.6101" y1="47.9534" x2="505.891" y2="325.479" gradientUnits="userSpaceOnUse">
<stop offset="0.00505051" stop-color="#FFE4A7"/>
<stop offset="0.099793" stop-color="#FAC098"/>
<stop offset="0.202" stop-color="#F49587"/>
<stop offset="0.4638" stop-color="#A142B5"/>
<stop offset="0.596" stop-color="#7C1DC9"/>
<stop offset="0.6346" stop-color="#7926CB"/>
<stop offset="0.6973" stop-color="#703ED1"/>
<stop offset="0.7764" stop-color="#6165DB"/>
<stop offset="0.8686" stop-color="#4C9CE9"/>
<stop offset="0.9709" stop-color="#32E1FA"/>
<stop offset="1" stop-color="#2AF6FF"/>
</linearGradient>
<linearGradient id="paint2_linear_43_3745" x1="151.977" y1="0.0273437" x2="151.977" y2="52.2475" gradientUnits="userSpaceOnUse">
<stop stop-color="#A46CFF"/>
<stop offset="1" stop-color="#7330DF"/>
</linearGradient>
<linearGradient id="paint3_linear_43_3745" x1="49.3731" y1="22.2644" x2="49.3731" y2="137.595" gradientUnits="userSpaceOnUse">
<stop stop-color="#935BEE"/>
<stop offset="1" stop-color="#702CDE"/>
</linearGradient>
<linearGradient id="paint4_linear_43_3745" x1="126.153" y1="115.479" x2="126.153" y2="170.987" gradientUnits="userSpaceOnUse">
<stop stop-color="#9A64F2"/>
<stop offset="1" stop-color="#7D41E0"/>
</linearGradient>
<linearGradient id="paint5_linear_43_3745" x1="382.094" y1="126.76" x2="382.094" y2="178.562" gradientUnits="userSpaceOnUse">
<stop stop-color="#8549E8"/>
<stop offset="1" stop-color="#9045DB"/>
</linearGradient>
<linearGradient id="paint6_linear_43_3745" x1="381.946" y1="168.617" x2="381.946" y2="201.569" gradientUnits="userSpaceOnUse">
<stop stop-color="#8514CA"/>
<stop offset="1" stop-color="#7627F8"/>
</linearGradient>
<linearGradient id="paint7_linear_43_3745" x1="468.671" y1="151.696" x2="468.671" y2="265.69" gradientUnits="userSpaceOnUse">
<stop stop-color="#7327EE"/>
<stop offset="1" stop-color="#8844D5"/>
</linearGradient>
<linearGradient id="paint8_linear_43_3745" x1="261.433" y1="27.9048" x2="261.433" y2="277.713" gradientUnits="userSpaceOnUse">
<stop stop-color="#925AEE"/>
<stop offset="1" stop-color="#7320F9"/>
</linearGradient>
<linearGradient id="paint9_linear_43_3745" x1="378.68" y1="240.606" x2="378.68" y2="297.354" gradientUnits="userSpaceOnUse">
<stop stop-color="#7225EE"/>
<stop offset="1" stop-color="#803FCF"/>
</linearGradient>
<radialGradient id="paint10_radial_43_3745" cx="0" cy="0" r="1" gradientUnits="userSpaceOnUse" gradientTransform="translate(85.5808 68.3796) scale(14.5974 14.5989)">
<stop stop-color="white"/>
<stop offset="1"/>
</radialGradient>
<radialGradient id="paint11_radial_43_3745" cx="0" cy="0" r="1" gradientUnits="userSpaceOnUse" gradientTransform="translate(222.827 24.3212) scale(18.9894 18.9914)">
<stop stop-color="white"/>
<stop offset="1"/>
</radialGradient>
<radialGradient id="paint12_radial_43_3745" cx="0" cy="0" r="1" gradientUnits="userSpaceOnUse" gradientTransform="translate(432.481 197.309) scale(12.4295 12.4308)">
<stop stop-color="white"/>
<stop offset="1"/>
</radialGradient>
<radialGradient id="paint13_radial_43_3745" cx="0" cy="0" r="1" gradientUnits="userSpaceOnUse" gradientTransform="translate(213.467 55.5694) scale(20.6229 20.625)">
<stop stop-color="white"/>
<stop offset="1"/>
</radialGradient>
<radialGradient id="paint14_radial_43_3745" cx="0" cy="0" r="1" gradientUnits="userSpaceOnUse" gradientTransform="translate(382.155 173.1) scale(58.0261 58.0321)">
<stop stop-color="white"/>
<stop offset="1"/>
</radialGradient>
<radialGradient id="paint15_radial_43_3745" cx="0" cy="0" r="1" gradientUnits="userSpaceOnUse" gradientTransform="translate(378.62 273.711) scale(71.2471 71.2545)">
<stop stop-color="white"/>
<stop offset="1"/>
</radialGradient>
<radialGradient id="paint16_radial_43_3745" cx="0" cy="0" r="1" gradientUnits="userSpaceOnUse" gradientTransform="translate(125.282 35.7067) scale(51.508 51.5134)">
<stop stop-color="white"/>
<stop offset="1"/>
</radialGradient>
<radialGradient id="paint17_radial_43_3745" cx="0" cy="0" r="1" gradientUnits="userSpaceOnUse" gradientTransform="translate(473.307 238.807) scale(35.1904 35.194)">
<stop stop-color="white"/>
<stop offset="1"/>
</radialGradient>
<radialGradient id="paint18_radial_43_3745" cx="0" cy="0" r="1" gradientUnits="userSpaceOnUse" gradientTransform="translate(296.491 245.919) scale(16.3237 16.3254)">
<stop stop-color="white"/>
<stop offset="1"/>
</radialGradient>
<radialGradient id="paint19_radial_43_3745" cx="0" cy="0" r="1" gradientUnits="userSpaceOnUse" gradientTransform="translate(43.4647 110.691) scale(36.1465 36.1502)">
<stop stop-color="white"/>
<stop offset="1"/>
</radialGradient>
<radialGradient id="paint20_radial_43_3745" cx="0" cy="0" r="1" gradientUnits="userSpaceOnUse" gradientTransform="translate(246.649 245.18) scale(30.0177 30.0208)">
<stop stop-color="white"/>
<stop offset="1"/>
</radialGradient>
<radialGradient id="paint21_radial_43_3745" cx="0" cy="0" r="1" gradientUnits="userSpaceOnUse" gradientTransform="translate(126.123 149.878) scale(64.4222 64.4289)">
<stop stop-color="white"/>
<stop offset="1"/>
</radialGradient>
<clipPath id="clip0_43_3745">
<rect width="515" height="331" fill="white"/>
</clipPath>
</defs>
</svg>
